<svg width="68" height="68" viewBox="0 0 68 68" fill="none" xmlns="http://www.w3.org/2000/svg">
<path d="M60.1407 56.4533H52.9035V10.6171C52.9035 10.3886 52.8193 10.1682 52.667 9.99783C52.5147 9.8275 52.305 9.71926 52.0779 9.69379L27.6404 6.93554C27.5104 6.92088 27.3787 6.93384 27.254 6.97358C27.1293 7.01333 27.0144 7.07895 26.9168 7.16615C26.8192 7.25336 26.7411 7.36019 26.6877 7.47965C26.6342 7.59911 26.6066 7.72851 26.6066 7.85938V9.68741H16.0262C15.7797 9.68741 15.5432 9.78536 15.3688 9.95971C15.1945 10.1341 15.0965 10.3705 15.0965 10.6171V56.4533H7.85931C7.61275 56.4533 7.37628 56.5513 7.20193 56.7256C7.02758 56.9 6.92963 57.1365 6.92963 57.383C6.92963 57.6296 7.02758 57.8661 7.20193 58.0404C7.37628 58.2148 7.61275 58.3127 7.85931 58.3127H26.6066V60.1408C26.6066 60.3873 26.7045 60.6238 26.8789 60.7981C27.0532 60.9725 27.2897 61.0704 27.5363 61.0704C27.5718 61.0707 27.6073 61.0687 27.6425 61.0646L52.0269 58.3127H60.1423C60.3889 58.3127 60.6253 58.2148 60.7997 58.0404C60.974 57.8661 61.072 57.6296 61.072 57.383C61.072 57.1365 60.974 56.9 60.7997 56.7256C60.6253 56.5513 60.3889 56.4533 60.1423 56.4533H60.1407ZM16.9559 11.5468H26.6066V13.9374H20.2757C20.0291 13.9374 19.7927 14.0354 19.6183 14.2097C19.444 14.3841 19.346 14.6205 19.346 14.8671V56.4533H16.9554L16.9559 11.5468ZM21.2059 56.4533V15.7968H26.6066V56.4533H21.2059ZM28.466 8.89957L51.0441 11.4496V56.5527L28.466 59.1027V8.89957Z" fill="white"/>
<path d="M32.4727 31.2333C31.9255 31.2333 31.3905 31.3955 30.9356 31.6996C30.4806 32.0036 30.1259 32.4357 29.9165 32.9412C29.7071 33.4468 29.6523 34.0031 29.7591 34.5398C29.8659 35.0765 30.1294 35.5695 30.5163 35.9564C30.9032 36.3434 31.3962 36.6069 31.9329 36.7136C32.4696 36.8204 33.0259 36.7656 33.5315 36.5562C34.037 36.3468 34.4691 35.9921 34.7731 35.5372C35.0772 35.0822 35.2394 34.5472 35.2394 34C35.2386 33.2665 34.9468 32.5633 34.4281 32.0446C33.9094 31.5259 33.2062 31.2341 32.4727 31.2333ZM32.4727 34.9074C32.2932 34.9074 32.1178 34.8542 31.9686 34.7545C31.8194 34.6548 31.7031 34.5131 31.6344 34.3473C31.5657 34.1815 31.5477 33.999 31.5827 33.823C31.6178 33.647 31.7042 33.4853 31.8311 33.3584C31.958 33.2315 32.1196 33.1451 32.2957 33.1101C32.4717 33.0751 32.6541 33.093 32.8199 33.1617C32.9857 33.2304 33.1274 33.3467 33.2271 33.4959C33.3268 33.6451 33.3801 33.8206 33.3801 34C33.3798 34.2406 33.2841 34.4712 33.114 34.6413C32.9439 34.8114 32.7132 34.9071 32.4727 34.9074Z" fill="white"/>
</svg>
