<svg width="62" height="61" viewBox="0 0 62 61" fill="none" xmlns="http://www.w3.org/2000/svg">
<path d="M59 38.371H56V40.3387H54.396L53.249 33.003C53.022 31.5527 51.776 30.5 50.284 30.5H30.716C29.224 30.5 27.978 31.5527 27.751 33.003L26.604 40.3387H25V38.371H22C20.346 38.371 19 39.6953 19 41.3226C19 42.9499 20.346 44.2742 22 44.2742H25V42.3065H26.296L26.114 43.4694C24.238 44.7061 23 46.8096 23 49.1936V55.0968H25V57.0645C25 57.7847 25.212 58.4508 25.556 59.0323H17V27.2217C23.282 25.866 28 20.3553 28 13.7742C28 6.17871 21.72 0 14 0C6.28 0 0 6.17871 0 13.7742C0 20.3553 4.718 25.866 11 27.2217V59.0323H4V61H11H17H58V59.0323H55.444C55.788 58.4508 56 57.7847 56 57.0645V55.0968H58V49.1936C58 46.8096 56.762 44.7061 54.886 43.4694L54.704 42.3065H56V44.2742H59C60.654 44.2742 62 42.9499 62 41.3226C62 39.6953 60.654 38.371 59 38.371ZM23 42.3065H22C21.449 42.3065 21 41.8647 21 41.3226C21 40.7805 21.449 40.3387 22 40.3387H23V42.3065ZM15 59.0323H13V31.4839H15V59.0323ZM15 29.5161H13V27.4982C13.332 27.5218 13.662 27.5484 14 27.5484C14.338 27.5484 14.668 27.5218 15 27.4982V29.5161ZM14 25.5806C7.383 25.5806 2 20.2845 2 13.7742C2 7.26392 7.383 1.96774 14 1.96774C20.617 1.96774 26 7.26392 26 13.7742C26 20.2845 20.617 25.5806 14 25.5806ZM29.727 33.3011C29.803 32.818 30.219 32.4677 30.716 32.4677H50.284C50.781 32.4677 51.197 32.818 51.272 33.3021L52.714 42.5249C52.165 42.3871 51.592 42.3065 51 42.3065H30C29.408 42.3065 28.835 42.3871 28.285 42.5239L29.727 33.3011ZM25 53.129V50.1774H34V53.129H25ZM31 57.0645C31 58.1497 30.103 59.0323 29 59.0323C27.897 59.0323 27 58.1497 27 57.0645V55.0968H31V57.0645ZM32.444 59.0323C32.788 58.4508 33 57.7847 33 57.0645V55.0968H48V57.0645C48 57.7847 48.212 58.4508 48.556 59.0323H32.444ZM36 53.129V49.1936C36 48.6514 36.449 48.2097 37 48.2097H44C44.551 48.2097 45 48.6514 45 49.1936V53.129H36ZM54 57.0645C54 58.1497 53.103 59.0323 52 59.0323C50.897 59.0323 50 58.1497 50 57.0645V55.0968H54V57.0645ZM56 53.129H47V50.1774H56V53.129ZM55.899 48.2097H46.816C46.402 47.0674 45.302 46.2419 44 46.2419H37C35.698 46.2419 34.598 47.0674 34.184 48.2097H25.101C25.566 45.9674 27.585 44.2742 30 44.2742H51C53.414 44.2742 55.434 45.9674 55.899 48.2097ZM59 42.3065H58V40.3387H59C59.551 40.3387 60 40.7805 60 41.3226C60 41.8647 59.551 42.3065 59 42.3065Z" fill="white"/>
<path d="M16 6.88708H10V19.6774H12V14.7581H16C18.206 14.7581 20 12.993 20 10.8226C20 8.65215 18.206 6.88708 16 6.88708ZM16 12.7903H12V8.85483H16C17.103 8.85483 18 9.73736 18 10.8226C18 11.9078 17.103 12.7903 16 12.7903Z" fill="white"/>
<path d="M45 38.371H32V40.3387H45V38.371Z" fill="white"/>
<path d="M49 38.371H47V40.3387H49V38.371Z" fill="white"/>
<path d="M62 59.0322H60V61H62V59.0322Z" fill="white"/>
<path d="M2 59.0322H0V61H2V59.0322Z" fill="white"/>
</svg>
