<svg width="56" height="56" viewBox="0 0 56 56" fill="none" xmlns="http://www.w3.org/2000/svg">
<path d="M16.1721 38.5011C16.1503 38.483 16.1377 38.4583 16.1377 38.4333V6.34549C16.1377 2.90358 13.3789 0.0573173 9.98799 0.000661156C8.30121 -0.0276669 6.7004 0.60966 5.49498 1.79517C4.28934 2.98091 3.62533 4.56509 3.62533 6.25602V15.4873C3.62533 15.9403 3.9925 16.3076 4.44564 16.3076C4.89878 16.3076 5.26595 15.9403 5.26595 15.4873V6.25602C5.26595 5.0085 5.75584 3.83972 6.64539 2.96483C7.53471 2.09027 8.70874 1.62127 9.96075 1.64106C12.462 1.68285 14.4972 3.79323 14.4972 6.34549V38.4332C14.4972 38.9489 14.7268 39.4345 15.127 39.7655C17.0299 41.3382 18.1212 43.6541 18.1212 46.1194C18.1212 48.357 17.2394 50.4505 15.6385 52.0143C14.0381 53.5775 11.9252 54.4102 9.68251 54.3566C5.298 54.2535 1.69136 50.6004 1.64258 46.2133C1.61469 43.7113 2.70571 41.3614 4.63552 39.7659C5.03626 39.4349 5.26606 38.949 5.26606 38.4331V18.7685C5.26606 18.3155 4.89889 17.9482 4.44575 17.9482C3.99261 17.9482 3.62544 18.3155 3.62544 18.7685V38.4332C3.62544 38.4581 3.61275 38.4831 3.59044 38.5015C1.27662 40.4143 -0.0312883 43.2318 0.00196166 46.2316C0.0305085 48.7918 1.04562 51.2141 2.86036 53.0524C4.67544 54.8909 7.08453 55.9367 9.64379 55.9968C9.72407 55.9987 9.80402 55.9997 9.88408 55.9997C12.4804 55.9996 14.923 55.0064 16.7849 53.188C18.7046 51.3129 19.7618 48.8026 19.7618 46.1194C19.7617 43.1633 18.4534 40.3865 16.1721 38.5011Z" fill="white"/>
<path d="M10.7862 16.3078H8.97431C8.02242 16.3078 7.24805 17.0822 7.24805 18.0341V40.3853C7.24805 40.4193 7.23164 40.4517 7.20878 40.4625C4.89561 41.5565 3.49233 43.9162 3.63397 46.4742C3.81006 49.656 6.44371 52.2464 9.62969 52.3712C9.71456 52.3745 9.79911 52.3761 9.88344 52.3761C11.5092 52.3761 13.0395 51.7613 14.2161 50.6299C15.4545 49.4391 16.1365 47.8373 16.1365 46.1198C16.1365 43.7208 14.736 41.5033 12.5686 40.4705C12.5341 40.4541 12.5126 40.4235 12.5126 40.3908V18.0341C12.5126 17.0822 11.7381 16.3078 10.7862 16.3078ZM14.4959 46.1198C14.4959 47.387 13.9927 48.5687 13.079 49.4473C12.1659 50.3254 10.9642 50.7817 9.694 50.7318C7.3443 50.6397 5.40191 48.7297 5.27197 46.3835C5.16741 44.4949 6.20297 42.7529 7.90988 41.9457C8.50444 41.6648 8.88856 41.0523 8.88856 40.3853V18.0341C8.88856 17.9868 8.92706 17.9484 8.97421 17.9484H10.7861C10.8335 17.9484 10.8719 17.9868 10.8719 18.0341V40.3905C10.8719 41.0519 11.2608 41.6645 11.8627 41.9514C13.4624 42.7137 14.4959 44.3499 14.4959 46.1198Z" fill="white"/>
<path d="M29.812 14.3245C31.2636 14.3245 32.4444 13.1437 32.4444 11.6922C32.4444 10.2408 31.2634 9.05995 29.812 9.05995C28.3606 9.05995 27.1798 10.2408 27.1798 11.6922C27.1798 13.1437 28.3606 14.3245 29.812 14.3245ZM29.812 10.7006C30.3589 10.7006 30.8037 11.1454 30.8037 11.6922C30.8037 12.239 30.3589 12.6839 29.812 12.6839C29.2653 12.6839 28.8204 12.239 28.8204 11.6922C28.8204 11.1454 29.2653 10.7006 29.812 10.7006Z" fill="white"/>
<path d="M41.6535 30.6323C43.9824 30.6323 46.0625 29.8762 47.6686 28.4457C47.9839 28.1649 48.2839 27.8554 48.5603 27.5258C48.8515 27.1787 48.8061 26.6613 48.459 26.3701C48.1119 26.0789 47.5945 26.1243 47.3034 26.4714C47.0778 26.7403 46.8335 26.9923 46.5773 27.2205C45.2578 28.3957 43.6011 28.9916 41.6535 28.9916C36.6105 28.9916 32.5079 24.889 32.5079 19.846C32.5079 14.8032 36.6106 10.7004 41.6535 10.7004C43.4863 10.7004 45.2542 11.2404 46.7662 12.2618C47.1416 12.5155 47.6515 12.4167 47.9051 12.0413C48.1587 11.6658 48.06 11.1559 47.6845 10.9023C45.9002 9.69687 43.8147 9.05976 41.6534 9.05976C35.7058 9.05976 30.8671 13.8984 30.8671 19.846C30.8671 25.7936 35.7059 30.6323 41.6535 30.6323Z" fill="white"/>
<path d="M23.5558 8.06828L23.5559 31.624C23.5559 33.0755 24.7367 34.2564 26.1881 34.2564H49.7438C51.1952 34.2564 52.3761 33.0756 52.3761 31.624L52.376 8.06828C52.376 6.61688 51.1952 5.43606 49.7438 5.43606H26.1881C24.7367 5.43596 23.5558 6.61688 23.5558 8.06828ZM50.7355 8.06828L50.7356 31.624C50.7356 32.1708 50.2908 32.6157 49.7439 32.6157H26.1881C25.6414 32.6157 25.1965 32.1709 25.1965 31.624L25.1964 8.06828C25.1964 7.52152 25.6412 7.07669 26.1881 7.07669H49.7438C50.2906 7.07658 50.7355 7.52152 50.7355 8.06828Z" fill="white"/>
<path d="M51.5558 1.81202H31.4527C30.9996 1.81202 30.6324 2.1793 30.6324 2.63233C30.6324 3.08536 30.9996 3.45264 31.4527 3.45264H51.5558C53.1018 3.45264 54.3595 4.71035 54.3595 6.25625V33.4359C54.3595 34.9818 53.1018 36.2395 51.5559 36.2395H24.3762C22.8302 36.2395 21.5725 34.9818 21.5725 33.4359V6.25625C21.5725 4.71035 22.8302 3.45264 24.3761 3.45264H28.1714C28.6245 3.45264 28.9917 3.08536 28.9917 2.63233C28.9917 2.1793 28.6245 1.81202 28.1714 1.81202H24.3761C21.9255 1.81202 19.9318 3.8057 19.9318 6.25625V33.4359C19.9318 35.8865 21.9256 37.8802 24.3762 37.8802H51.5559C54.0064 37.8802 56.0001 35.8865 56.0001 33.4359V6.25625C56.0001 3.8057 54.0063 1.81202 51.5558 1.81202Z" fill="white"/>
</svg>
