<svg width="57" height="56" viewBox="0 0 57 56" fill="none" xmlns="http://www.w3.org/2000/svg">
<path d="M32.3942 29.1277C31.3076 28.0894 29.8721 27.5389 28.3562 27.5814C25.4609 27.6602 23.0876 29.9473 22.9529 32.7882C22.8725 34.4857 23.6083 36.1367 24.9259 37.2292V41.0838C24.9259 43.0272 26.5352 44.6082 28.5131 44.6082C30.4911 44.6082 32.1004 43.0272 32.1004 41.0838V37.2293C33.3598 36.1865 34.0795 34.6692 34.0795 33.0481C34.0795 31.5587 33.481 30.1665 32.3942 29.1277ZM30.6098 35.602C30.1421 35.973 29.8738 36.5275 29.8738 37.1231V41.0839C29.8738 41.821 29.2634 42.4208 28.5131 42.4208C27.7629 42.4208 27.1525 41.8211 27.1525 41.0839V37.1231C27.1525 36.5275 26.8844 35.9731 26.4169 35.6023C26.4169 35.6022 26.4169 35.6022 26.4169 35.6022C25.5789 34.9373 25.1269 33.9488 25.1771 32.8899C25.2578 31.1866 26.6812 29.8154 28.4176 29.7681C28.4496 29.7672 28.4814 29.7668 28.5133 29.7668C29.389 29.7668 30.2127 30.0947 30.8417 30.6957C31.4938 31.3191 31.853 32.1545 31.853 33.0481C31.853 34.044 31.3998 34.9749 30.6098 35.602Z" fill="white"/>
<path d="M42.9858 22.1776V14.2188C42.9858 6.37842 36.4933 0 28.5131 0C20.5329 0 14.0404 6.37842 14.0404 14.2188V22.1635C11.3262 24.8889 9.4426 28.3433 8.66363 32.0802C8.54028 32.672 8.92859 33.2499 9.53099 33.3712C10.1337 33.4925 10.7216 33.1109 10.845 32.519C12.5532 24.3235 19.9838 18.375 28.5131 18.375C38.4577 18.375 46.5483 26.3236 46.5483 36.0938C46.5483 45.8639 38.4577 53.8125 28.5131 53.8125C19.9825 53.8125 12.5517 47.8629 10.8444 39.6658C10.7212 39.0741 10.1335 38.6923 9.53054 38.8136C8.92815 38.9347 8.53984 39.5126 8.66308 40.1044C9.5851 44.5312 12.0572 48.5618 15.6243 51.454C19.2399 54.3855 23.8173 56 28.5131 56C39.6854 56 48.7748 47.0701 48.7748 36.0938C48.7748 30.6823 46.5646 25.7693 42.9858 22.1776ZM35.4154 17.3776C33.2601 16.608 30.9357 16.1875 28.5131 16.1875C26.1462 16.1875 23.8095 16.5982 21.6108 17.3805V14.2188C21.6108 10.4795 24.7071 7.4375 28.5131 7.4375C32.3191 7.4375 35.4154 10.4795 35.4154 14.2188V17.3776ZM40.7592 20.246C39.7851 19.5176 38.7425 18.8738 37.642 18.3258V14.2188C37.642 9.27336 33.5468 5.25 28.5131 5.25C23.4794 5.25 19.3842 9.27336 19.3842 14.2188V18.3241C18.2922 18.8649 17.2479 19.5032 16.267 20.2344V14.2188C16.267 7.58472 21.7606 2.1875 28.5131 2.1875C35.2656 2.1875 40.7592 7.58472 40.7592 14.2188V20.246Z" fill="white"/>
<path d="M43.55 35.3205C43.343 35.117 43.0557 35 42.7629 35C42.4701 35 42.1829 35.1169 41.9758 35.3205C41.7688 35.5239 41.6497 35.8061 41.6497 36.0938C41.6497 36.3814 41.7688 36.6636 41.9758 36.8669C42.1829 37.0704 42.4701 37.1875 42.7629 37.1875C43.0557 37.1875 43.343 37.0705 43.55 36.8669C43.7571 36.6636 43.8762 36.3814 43.8762 36.0938C43.8762 35.8061 43.7571 35.5239 43.55 35.3205Z" fill="white"/>
<path d="M43.4659 32.6146C42.6844 29.3616 40.7841 26.4124 38.1149 24.3105C35.404 22.1757 31.9939 21 28.5129 21C27.8981 21 27.3997 21.4898 27.3997 22.0938C27.3997 22.6977 27.8981 23.1875 28.5129 23.1875C34.6368 23.1875 39.8945 27.2707 41.2987 33.1171C41.4196 33.6207 41.8766 33.9598 42.3814 33.9598C42.466 33.9598 42.5521 33.9503 42.638 33.9303C43.2364 33.7915 43.607 33.2025 43.4659 32.6146Z" fill="white"/>
<path d="M9.39084 35H9.33862C8.72376 35 8.22534 35.4898 8.22534 36.0938C8.22534 36.6977 8.72376 37.1875 9.33862 37.1875H9.39084C10.0057 37.1875 10.5041 36.6977 10.5041 36.0938C10.5041 35.4898 10.0057 35 9.39084 35Z" fill="white"/>
</svg>
