<svg width="61" height="61" viewBox="0 0 61 61" fill="none" xmlns="http://www.w3.org/2000/svg">
<path d="M42.4332 44.6444C42.6714 44.2441 42.8906 43.8819 43.0908 43.5387C44.0439 41.947 44.7969 40.6984 44.7969 38.7827V15.25C44.7969 14.2389 44.3952 13.2691 43.6802 12.5542C42.9653 11.8392 41.9955 11.4375 40.9844 11.4375C40.3125 11.4401 39.6538 11.6246 39.0782 11.9712V10.4844C39.0782 9.47324 38.6765 8.50351 37.9615 7.78853C37.2465 7.07355 36.2768 6.67187 35.2657 6.67187C34.5937 6.6745 33.935 6.85894 33.3594 7.20562V5.71875C33.3594 4.70761 32.9577 3.73789 32.2427 3.02291C31.5278 2.30792 30.558 1.90625 29.5469 1.90625C28.5358 1.90625 27.566 2.30792 26.8511 3.02291C26.1361 3.73789 25.7344 4.70761 25.7344 5.71875V7.20562C25.1588 6.85894 24.5001 6.6745 23.8282 6.67187C22.817 6.67187 21.8473 7.07355 21.1323 7.78853C20.4173 8.50351 20.0157 9.47324 20.0157 10.4844V31.6819L14.3636 24.8956C13.613 23.9903 12.5533 23.3956 11.3895 23.2266C10.2257 23.0576 9.0406 23.3263 8.06347 23.9806L6.71957 24.8766C6.10175 25.2861 5.66767 25.9201 5.50932 26.6443C5.35097 27.3684 5.4808 28.1257 5.87128 28.7558C5.88801 28.7829 5.90715 28.8084 5.92847 28.832L20.0157 47.0272V49.5625H19.0625C18.83 49.5631 18.6057 49.6488 18.432 49.8032C18.2582 49.9577 18.1468 50.1704 18.1189 50.4012L17.1658 58.0262C17.1475 58.1593 17.1585 58.2948 17.198 58.4232C17.2375 58.5517 17.3046 58.6699 17.3946 58.7697C17.4831 58.8723 17.5929 58.9544 17.7163 59.0104C17.8398 59.0663 17.9739 59.0948 18.1094 59.0937H42.8906C43.0262 59.0948 43.1603 59.0663 43.2837 59.0104C43.4072 58.9544 43.5169 58.8723 43.6055 58.7697C43.6954 58.6699 43.7625 58.5517 43.802 58.4232C43.8416 58.2948 43.8525 58.1593 43.8342 58.0262L42.8811 50.4012C42.8532 50.1704 42.7419 49.9577 42.5681 49.8032C42.3943 49.6488 42.17 49.5631 41.9375 49.5625H40.9844V46.9795L42.4332 44.6444ZM41.0988 51.4687L41.8136 57.1875H19.1864L19.9013 51.4687H41.0988ZM40.8033 43.6627L39.2211 46.198C39.1265 46.3494 39.077 46.5246 39.0782 46.7031V49.5625H21.9219V46.7031C21.9242 46.492 21.8535 46.2867 21.7218 46.1217L7.47253 27.7169C7.35565 27.5073 7.32213 27.2613 7.37867 27.0281C7.43521 26.7949 7.57764 26.5915 7.77753 26.4587L9.11191 25.5723C9.69761 25.1773 10.4093 25.0141 11.1086 25.1145C11.8079 25.2149 12.4449 25.5717 12.8958 26.1156L20.2349 34.9225L20.2444 34.913C20.3321 35.0211 20.4424 35.1087 20.5675 35.1696C20.6926 35.2305 20.8296 35.2633 20.9688 35.2656H23.8282C24.8393 35.2656 25.809 35.6673 26.524 36.3823C27.239 37.0973 27.6407 38.067 27.6407 39.0781V42.8906H29.5469V39.0781C29.5469 37.5614 28.9444 36.1068 27.8719 35.0344C26.7994 33.9619 25.3449 33.3594 23.8282 33.3594H21.9219V10.4844C21.9219 9.97881 22.1227 9.49394 22.4802 9.13645C22.8377 8.77896 23.3226 8.57812 23.8282 8.57812C24.3337 8.57812 24.8186 8.77896 25.1761 9.13645C25.5336 9.49394 25.7344 9.97881 25.7344 10.4844V29.5469H27.6407V5.71875C27.6407 5.21318 27.8415 4.72832 28.199 4.37083C28.5565 4.01334 29.0413 3.8125 29.5469 3.8125C30.0525 3.8125 30.5373 4.01334 30.8948 4.37083C31.2523 4.72832 31.4532 5.21318 31.4532 5.71875V29.5469H33.3594V10.4844C33.3594 9.97881 33.5602 9.49394 33.9177 9.13645C34.2752 8.77896 34.7601 8.57812 35.2657 8.57812C35.7712 8.57812 36.2561 8.77896 36.6136 9.13645C36.9711 9.49394 37.1719 9.97881 37.1719 10.4844V28.5937H39.0782V15.25C39.0782 14.7444 39.279 14.2596 39.6365 13.9021C39.994 13.5446 40.4788 13.3437 40.9844 13.3437C41.49 13.3437 41.9748 13.5446 42.3323 13.9021C42.6898 14.2596 42.8906 14.7444 42.8906 15.25V38.7827C42.8906 40.1647 42.3474 41.0702 41.461 42.557C41.2513 42.9097 41.0225 43.2814 40.8033 43.6627Z" fill="white"/>
<path d="M40.0312 53.375H38.125V55.2812H40.0312V53.375Z" fill="white"/>
<path d="M36.2188 53.375H34.3125V55.2812H36.2188V53.375Z" fill="white"/>
<path d="M5.29274 12.2952L8.72971 14.0109L10.5206 20.2796C10.5773 20.4791 10.6974 20.6547 10.8629 20.7797C11.0284 20.9048 11.2301 20.9724 11.4375 20.9724C11.6449 20.9724 11.8467 20.9048 12.0122 20.7797C12.1776 20.6547 12.2978 20.4791 12.3544 20.2796L14.1454 14.0109L17.5823 12.2952C17.7409 12.2162 17.8744 12.0945 17.9676 11.9438C18.0609 11.7931 18.1103 11.6194 18.1103 11.4422C18.1103 11.265 18.0609 11.0913 17.9676 10.9406C17.8744 10.7899 17.7409 10.6682 17.5823 10.5891L14.1454 8.86399L12.3544 2.59815C12.2978 2.39862 12.1776 2.22302 12.0122 2.09797C11.8467 1.97293 11.6449 1.90527 11.4375 1.90527C11.2301 1.90527 11.0284 1.97293 10.8629 2.09797C10.6974 2.22302 10.5773 2.39862 10.5206 2.59815L8.72971 8.86399L5.29274 10.5796C5.13413 10.6587 5.0007 10.7804 4.90744 10.9311C4.81418 11.0817 4.76477 11.2555 4.76477 11.4327C4.76477 11.6099 4.81418 11.7836 4.90744 11.9343C5.0007 12.085 5.13413 12.2067 5.29274 12.2857V12.2952ZM9.95733 10.389C10.0758 10.3298 10.1806 10.2467 10.2651 10.1447C10.3496 10.0428 10.412 9.92444 10.4482 9.7971L11.4375 6.32868L12.4269 9.79234C12.4631 9.91968 12.5255 10.0381 12.61 10.14C12.6945 10.2419 12.7993 10.3251 12.9177 10.3842L15.0251 11.4374L12.9177 12.4906C12.7993 12.5498 12.6945 12.633 12.61 12.7349C12.5255 12.8368 12.4631 12.9552 12.4269 13.0825L11.4375 16.5462L10.4482 13.0825C10.412 12.9552 10.3496 12.8368 10.2651 12.7349C10.1806 12.633 10.0758 12.5498 9.95733 12.4906L7.84997 11.4374L9.95733 10.389Z" fill="white"/>
<path d="M46.2771 12.2952L49.7141 14.0109L51.505 20.2796C51.5616 20.4791 51.6818 20.6547 51.8473 20.7797C52.0128 20.9048 52.2145 20.9724 52.4219 20.9724C52.6293 20.9724 52.8311 20.9048 52.9965 20.7797C53.162 20.6547 53.2822 20.4791 53.3388 20.2796L55.1297 14.0109L58.5667 12.2952C58.7253 12.2162 58.8587 12.0945 58.952 11.9438C59.0453 11.7931 59.0947 11.6194 59.0947 11.4422C59.0947 11.265 59.0453 11.0913 58.952 10.9406C58.8587 10.7899 58.7253 10.6682 58.5667 10.5891L55.1297 8.86399L53.3388 2.59815C53.2822 2.39862 53.162 2.22302 52.9965 2.09797C52.8311 1.97293 52.6293 1.90527 52.4219 1.90527C52.2145 1.90527 52.0128 1.97293 51.8473 2.09797C51.6818 2.22302 51.5616 2.39862 51.505 2.59815L49.7141 8.86399L46.2771 10.5796C46.1185 10.6587 45.9851 10.7804 45.8918 10.9311C45.7986 11.0817 45.7491 11.2555 45.7491 11.4327C45.7491 11.6099 45.7986 11.7836 45.8918 11.9343C45.9851 12.085 46.1185 12.2067 46.2771 12.2857V12.2952ZM50.9417 10.389C51.0601 10.3298 51.165 10.2467 51.2495 10.1447C51.334 10.0428 51.3963 9.92444 51.4326 9.7971L52.4219 6.32868L53.4113 9.79234C53.4475 9.91968 53.5098 10.0381 53.5943 10.14C53.6789 10.2419 53.7837 10.3251 53.9021 10.3842L56.0095 11.4374L53.9021 12.4906C53.7837 12.5498 53.6789 12.633 53.5943 12.7349C53.5098 12.8368 53.4475 12.9552 53.4113 13.0825L52.4219 16.5462L51.4326 13.0825C51.3963 12.9552 51.334 12.8368 51.2495 12.7349C51.165 12.633 51.0601 12.5498 50.9417 12.4906L48.8343 11.4374L50.9417 10.389Z" fill="white"/>
<path d="M14.723 44.8969L11.286 43.1813L9.49506 36.9106C9.43843 36.7111 9.31826 36.5355 9.15279 36.4105C8.98731 36.2854 8.78556 36.2178 8.57816 36.2178C8.37075 36.2178 8.169 36.2854 8.00353 36.4105C7.83805 36.5355 7.71788 36.7111 7.66125 36.9106L5.87033 43.1765L2.43336 44.8921C2.27476 44.9712 2.14133 45.0929 2.04807 45.2436C1.9548 45.3942 1.9054 45.568 1.9054 45.7452C1.9054 45.9224 1.9548 46.0961 2.04807 46.2468C2.14133 46.3975 2.27476 46.5192 2.43336 46.5982L5.87033 48.3138L7.66125 54.5825C7.71788 54.7821 7.83805 54.9577 8.00353 55.0827C8.169 55.2078 8.37075 55.2754 8.57816 55.2754C8.78556 55.2754 8.98731 55.2078 9.15279 55.0827C9.31826 54.9577 9.43843 54.7821 9.49506 54.5825L11.286 48.3234L14.723 46.6077C14.8816 46.5287 15.015 46.407 15.1083 46.2563C15.2015 46.1056 15.2509 45.9319 15.2509 45.7547C15.2509 45.5775 15.2015 45.4038 15.1083 45.2531C15.015 45.1024 14.8816 44.9807 14.723 44.9017V44.8969ZM10.0584 46.8031C9.93992 46.8623 9.83511 46.9455 9.75059 47.0474C9.66608 47.1493 9.60373 47.2677 9.5675 47.395L8.57816 50.8587L7.58881 47.395C7.55259 47.2677 7.49024 47.1493 7.40572 47.0474C7.32121 46.9455 7.21639 46.8623 7.09796 46.8031L4.9906 45.7499L7.09796 44.7015C7.21639 44.6423 7.32121 44.5592 7.40572 44.4572C7.49024 44.3553 7.55259 44.2369 7.58881 44.1096L8.57816 40.6412L9.5675 44.1048C9.60373 44.2322 9.66608 44.3506 9.75059 44.4525C9.83511 44.5544 9.93992 44.6376 10.0584 44.6967L12.1657 45.7499L10.0584 46.8031Z" fill="white"/>
<path d="M58.5667 39.1782L55.1297 37.4626L53.3388 31.1939C53.2822 30.9943 53.162 30.8187 52.9965 30.6937C52.8311 30.5686 52.6293 30.501 52.4219 30.501C52.2145 30.501 52.0128 30.5686 51.8473 30.6937C51.6818 30.8187 51.5616 30.9943 51.505 31.1939L49.7141 37.4578L46.2771 39.1734C46.1185 39.2525 45.9851 39.3742 45.8918 39.5248C45.7986 39.6755 45.7491 39.8492 45.7491 40.0265C45.7491 40.2037 45.7986 40.3774 45.8918 40.5281C45.9851 40.6788 46.1185 40.8005 46.2771 40.8795L49.7141 42.5951L51.505 48.8638C51.5616 49.0634 51.6818 49.239 51.8473 49.364C52.0128 49.489 52.2145 49.5567 52.4219 49.5567C52.6293 49.5567 52.8311 49.489 52.9965 49.364C53.162 49.239 53.2822 49.0634 53.3388 48.8638L55.1297 42.6047L58.5667 40.889C58.7253 40.81 58.8587 40.6883 58.952 40.5376C59.0453 40.3869 59.0947 40.2132 59.0947 40.036C59.0947 39.8588 59.0453 39.6851 58.952 39.5344C58.8587 39.3837 58.7253 39.262 58.5667 39.1829V39.1782ZM53.9021 41.0844C53.7837 41.1436 53.6789 41.2268 53.5943 41.3287C53.5098 41.4306 53.4475 41.549 53.4113 41.6763L52.4219 45.14L51.4326 41.6763C51.3963 41.549 51.334 41.4306 51.2495 41.3287C51.165 41.2268 51.0601 41.1436 50.9417 41.0844L48.8343 40.0312L50.9417 38.9828C51.0601 38.9236 51.165 38.8404 51.2495 38.7385C51.334 38.6366 51.3963 38.5182 51.4326 38.3909L52.4219 34.9225L53.4113 38.3861C53.4475 38.5135 53.5098 38.6319 53.5943 38.7338C53.6789 38.8357 53.7837 38.9189 53.9021 38.978L56.0095 40.0312L53.9021 41.0844Z" fill="white"/>
</svg>
