<svg width="43" height="43" viewBox="0 0 43 43" fill="none" xmlns="http://www.w3.org/2000/svg">
<g clip-path="url(#clip0)">
<path d="M37.7352 10.7674C37.412 10.6525 37.1505 10.3908 37.0355 10.0676C36.4806 8.5078 35.5539 7.61316 34.4932 7.61316C33.5448 7.61316 32.7046 8.32998 32.1404 9.59631V5.18745L21.5445 0L10.9486 5.18745V37.8126L21.5445 43L27.0577 40.301L26.4318 39.0225L22.8852 40.7588L25.5788 33.9729L29.9912 37.28L27.8612 38.3228L28.4871 39.6013L32.1404 37.8126V17.023C32.7045 18.2892 33.5448 19.0061 34.4932 19.0061C35.5539 19.0061 36.4806 18.1114 37.0355 16.5517C37.1504 16.2285 37.412 15.9669 37.7352 15.8519C39.295 15.297 40.1897 14.3704 40.1897 13.3096C40.1897 12.2489 39.295 11.3222 37.7352 10.7674ZM30.717 15.6351V36.0453L25.9724 32.4891V10.5109L30.717 6.95471V10.9841C29.4892 11.5478 28.7968 12.3767 28.7968 13.3096C28.7968 14.2425 29.4892 15.0714 30.717 15.6351ZM17.3976 34.0236L20.17 40.7422L13.0931 37.2776L17.3976 34.0236ZM18.7703 33.6184L24.2086 33.5668L21.5317 40.3109L18.7703 33.6184ZM18.393 32.1986V17.3366H16.9696V32.5629L12.372 36.0385V6.96154L16.9696 10.4371V15.9073H18.393V10.8015L24.5491 10.8599V32.1402L18.393 32.1986ZM25.5988 9.01215L22.8918 2.24447L29.9912 5.72007L25.5988 9.01215ZM24.2344 9.43347L18.7438 9.38138L21.5317 2.6768L24.2344 9.43347ZM17.377 8.96082L13.093 5.72235L20.1629 2.26118L17.377 8.96082ZM37.2582 14.5108C36.5252 14.7715 35.9551 15.3415 35.6944 16.0746C35.3238 17.1164 34.8241 17.5827 34.4932 17.5827C34.1624 17.5827 33.6627 17.1164 33.292 16.0746C33.0312 15.3414 32.4612 14.7715 31.7283 14.5108C30.6865 14.1403 30.2202 13.6405 30.2202 13.3096C30.2202 12.9788 30.6865 12.479 31.7282 12.1085C32.4613 11.8478 33.0312 11.2778 33.292 10.5447C33.6627 9.50293 34.1624 9.03654 34.4932 9.03654C34.824 9.03654 35.3238 9.50284 35.6944 10.5447C35.9551 11.2779 36.5252 11.8478 37.2581 12.1085C38.2999 12.479 38.7663 12.9788 38.7663 13.3096C38.7663 13.6405 38.3 14.1403 37.2582 14.5108Z" fill="black"/>
<path d="M3.84857 18.8213H5.26929V21.4783H3.84857V18.8213Z" fill="black"/>
<path d="M5.98822 22.1952H8.64519V23.616H5.98822V22.1952Z" fill="black"/>
<path d="M3.84857 24.3686H5.26929V27.0256H3.84857V24.3686Z" fill="black"/>
<path d="M0.472595 22.1952H3.12956V23.616H0.472595V22.1952Z" fill="black"/>
<path d="M37.7309 34.6445H39.1516V37.3015H37.7309V34.6445Z" fill="black"/>
<path d="M39.8705 38.0184H42.5274V39.4392H39.8705V38.0184Z" fill="black"/>
<path d="M37.7309 40.1918H39.1516V42.8487H37.7309V40.1918Z" fill="black"/>
<path d="M34.3549 38.0184H37.0119V39.4392H34.3549V38.0184Z" fill="black"/>
<path d="M4.46991 1.62152H5.89329V3.04233H4.46991V1.62152Z" fill="black"/>
<path d="M40.1373 26.4772H41.5607V27.898H40.1373V26.4772Z" fill="black"/>
<path d="M4.46991 36.4468H5.89329V37.8676H4.46991V36.4468Z" fill="black"/>
<path d="M21.4843 29.9454H20.0609V28.599H21.4843V29.9454ZM21.4843 27.1758H20.0609V25.7524H21.4843V27.1758ZM21.4843 24.329H20.0609V22.9056H21.4843V24.329Z" fill="black"/>
</g>
<defs>
<clipPath id="clip0">
<rect width="43" height="43" fill="white"/>
</clipPath>
</defs>
</svg>
