<svg width="546" height="157" viewBox="0 0 546 157" fill="none" xmlns="http://www.w3.org/2000/svg">
<path d="M14.8 22.232V26H1.72V23.024L8.008 17.144C8.616 16.568 9.024 16.08 9.232 15.68C9.44 15.264 9.544 14.848 9.544 14.432C9.544 13.888 9.36 13.464 8.992 13.16C8.624 12.856 8.088 12.704 7.384 12.704C6.76 12.704 6.184 12.848 5.656 13.136C5.144 13.408 4.72 13.808 4.384 14.336L0.856 12.368C1.512 11.28 2.432 10.424 3.616 9.8C4.8 9.176 6.2 8.864 7.816 8.864C9.096 8.864 10.224 9.072 11.2 9.488C12.192 9.904 12.96 10.504 13.504 11.288C14.064 12.056 14.344 12.952 14.344 13.976C14.344 14.888 14.144 15.752 13.744 16.568C13.36 17.368 12.608 18.28 11.488 19.304L8.32 22.232H14.8ZM31.9996 12.776C33.1836 12.776 34.2556 13.056 35.2156 13.616C36.1916 14.16 36.9596 14.944 37.5196 15.968C38.0956 16.976 38.3836 18.152 38.3836 19.496C38.3836 20.84 38.0956 22.024 37.5196 23.048C36.9596 24.056 36.1916 24.84 35.2156 25.4C34.2556 25.944 33.1836 26.216 31.9996 26.216C30.4796 26.216 29.2716 25.76 28.3756 24.848V30.656H23.8156V12.992H28.1596V14.288C29.0076 13.28 30.2876 12.776 31.9996 12.776ZM31.0396 22.592C31.8396 22.592 32.4956 22.32 33.0076 21.776C33.5196 21.216 33.7756 20.456 33.7756 19.496C33.7756 18.536 33.5196 17.784 33.0076 17.24C32.4956 16.68 31.8396 16.4 31.0396 16.4C30.2396 16.4 29.5836 16.68 29.0716 17.24C28.5596 17.784 28.3036 18.536 28.3036 19.496C28.3036 20.456 28.5596 21.216 29.0716 21.776C29.5836 22.32 30.2396 22.592 31.0396 22.592ZM53.7991 19.52C53.7991 19.552 53.7751 19.928 53.7271 20.648H44.2711C44.4631 21.32 44.8311 21.84 45.3751 22.208C45.9351 22.56 46.6311 22.736 47.4631 22.736C48.0871 22.736 48.6231 22.648 49.0711 22.472C49.5351 22.296 49.9991 22.008 50.4631 21.608L52.8631 24.104C51.5991 25.512 49.7511 26.216 47.3191 26.216C45.7991 26.216 44.4631 25.928 43.3111 25.352C42.1591 24.776 41.2631 23.976 40.6231 22.952C39.9991 21.928 39.6871 20.768 39.6871 19.472C39.6871 18.192 39.9911 17.048 40.5991 16.04C41.2231 15.016 42.0791 14.216 43.1671 13.64C44.2551 13.064 45.4791 12.776 46.8391 12.776C48.1351 12.776 49.3111 13.048 50.3671 13.592C51.4231 14.12 52.2551 14.896 52.8631 15.92C53.4871 16.928 53.7991 18.128 53.7991 19.52ZM46.8631 16.016C46.1591 16.016 45.5671 16.216 45.0871 16.616C44.6231 17.016 44.3271 17.56 44.1991 18.248H49.5271C49.3991 17.56 49.0951 17.016 48.6151 16.616C48.1511 16.216 47.5671 16.016 46.8631 16.016ZM60.2455 14.552C60.7095 13.96 61.3095 13.52 62.0455 13.232C62.7975 12.928 63.6535 12.776 64.6135 12.776V16.88C64.1975 16.832 63.8535 16.808 63.5815 16.808C62.6055 16.808 61.8375 17.072 61.2775 17.6C60.7335 18.128 60.4615 18.936 60.4615 20.024V26H55.9015V12.992H60.2455V14.552ZM71.2467 26.216C70.1587 26.216 69.0867 26.096 68.0307 25.856C66.9747 25.6 66.1267 25.272 65.4867 24.872L66.8547 21.752C67.4467 22.12 68.1507 22.416 68.9667 22.64C69.7827 22.848 70.5907 22.952 71.3907 22.952C72.1267 22.952 72.6467 22.88 72.9507 22.736C73.2707 22.576 73.4307 22.352 73.4307 22.064C73.4307 21.776 73.2387 21.576 72.8547 21.464C72.4867 21.336 71.8947 21.216 71.0787 21.104C70.0387 20.976 69.1507 20.808 68.4147 20.6C67.6947 20.392 67.0707 20.008 66.5427 19.448C66.0147 18.888 65.7507 18.104 65.7507 17.096C65.7507 16.264 65.9987 15.528 66.4947 14.888C66.9907 14.232 67.7107 13.72 68.6547 13.352C69.6147 12.968 70.7587 12.776 72.0867 12.776C73.0307 12.776 73.9667 12.872 74.8947 13.064C75.8227 13.256 76.5987 13.528 77.2227 13.88L75.8547 16.976C74.7027 16.336 73.4547 16.016 72.1107 16.016C71.3907 16.016 70.8627 16.104 70.5267 16.28C70.1907 16.44 70.0227 16.656 70.0227 16.928C70.0227 17.232 70.2067 17.448 70.5747 17.576C70.9427 17.688 71.5507 17.808 72.3987 17.936C73.4707 18.096 74.3587 18.28 75.0627 18.488C75.7667 18.696 76.3747 19.08 76.8867 19.64C77.4147 20.184 77.6787 20.952 77.6787 21.944C77.6787 22.76 77.4307 23.496 76.9347 24.152C76.4387 24.792 75.7027 25.296 74.7267 25.664C73.7667 26.032 72.6067 26.216 71.2467 26.216ZM86.1717 26.216C84.7797 26.216 83.5237 25.928 82.4037 25.352C81.2837 24.776 80.4037 23.976 79.7637 22.952C79.1397 21.928 78.8277 20.768 78.8277 19.472C78.8277 18.192 79.1397 17.04 79.7637 16.016C80.4037 14.992 81.2757 14.2 82.3797 13.64C83.4997 13.064 84.7637 12.776 86.1717 12.776C87.5797 12.776 88.8437 13.064 89.9637 13.64C91.0837 14.2 91.9557 14.992 92.5797 16.016C93.2037 17.024 93.5157 18.176 93.5157 19.472C93.5157 20.768 93.2037 21.928 92.5797 22.952C91.9557 23.976 91.0837 24.776 89.9637 25.352C88.8437 25.928 87.5797 26.216 86.1717 26.216ZM86.1717 22.592C86.9717 22.592 87.6277 22.32 88.1397 21.776C88.6517 21.216 88.9077 20.448 88.9077 19.472C88.9077 18.512 88.6517 17.76 88.1397 17.216C87.6277 16.672 86.9717 16.4 86.1717 16.4C85.3717 16.4 84.7157 16.672 84.2037 17.216C83.6917 17.76 83.4357 18.512 83.4357 19.472C83.4357 20.448 83.6917 21.216 84.2037 21.776C84.7157 22.32 85.3717 22.592 86.1717 22.592ZM104.1 12.776C105.716 12.776 107.012 13.256 107.988 14.216C108.98 15.176 109.476 16.624 109.476 18.56V26H104.916V19.304C104.916 17.528 104.204 16.64 102.78 16.64C101.996 16.64 101.364 16.896 100.884 17.408C100.42 17.92 100.188 18.688 100.188 19.712V26H95.6281V12.992H99.9721V14.408C100.484 13.88 101.092 13.48 101.796 13.208C102.5 12.92 103.268 12.776 104.1 12.776ZM120.811 12.776C122.427 12.776 123.723 13.256 124.699 14.216C125.691 15.176 126.187 16.624 126.187 18.56V26H121.627V19.304C121.627 17.528 120.915 16.64 119.491 16.64C118.707 16.64 118.075 16.896 117.595 17.408C117.131 17.92 116.899 18.688 116.899 19.712V26H112.339V12.992H116.683V14.408C117.195 13.88 117.803 13.48 118.507 13.208C119.211 12.92 119.979 12.776 120.811 12.776ZM142.533 19.52C142.533 19.552 142.509 19.928 142.461 20.648H133.005C133.197 21.32 133.565 21.84 134.109 22.208C134.669 22.56 135.365 22.736 136.197 22.736C136.821 22.736 137.357 22.648 137.805 22.472C138.269 22.296 138.733 22.008 139.197 21.608L141.597 24.104C140.333 25.512 138.485 26.216 136.053 26.216C134.533 26.216 133.197 25.928 132.045 25.352C130.893 24.776 129.997 23.976 129.357 22.952C128.733 21.928 128.421 20.768 128.421 19.472C128.421 18.192 128.725 17.048 129.333 16.04C129.957 15.016 130.813 14.216 131.901 13.64C132.989 13.064 134.213 12.776 135.573 12.776C136.869 12.776 138.045 13.048 139.101 13.592C140.157 14.12 140.989 14.896 141.597 15.92C142.221 16.928 142.533 18.128 142.533 19.52ZM135.597 16.016C134.893 16.016 134.301 16.216 133.821 16.616C133.357 17.016 133.061 17.56 132.933 18.248H138.261C138.133 17.56 137.829 17.016 137.349 16.616C136.885 16.216 136.301 16.016 135.597 16.016ZM149.364 26.216C148.276 26.216 147.204 26.096 146.148 25.856C145.092 25.6 144.244 25.272 143.604 24.872L144.972 21.752C145.564 22.12 146.268 22.416 147.084 22.64C147.9 22.848 148.708 22.952 149.508 22.952C150.244 22.952 150.764 22.88 151.068 22.736C151.388 22.576 151.548 22.352 151.548 22.064C151.548 21.776 151.356 21.576 150.972 21.464C150.604 21.336 150.012 21.216 149.196 21.104C148.156 20.976 147.268 20.808 146.532 20.6C145.812 20.392 145.188 20.008 144.66 19.448C144.132 18.888 143.868 18.104 143.868 17.096C143.868 16.264 144.116 15.528 144.612 14.888C145.108 14.232 145.828 13.72 146.772 13.352C147.732 12.968 148.876 12.776 150.204 12.776C151.148 12.776 152.084 12.872 153.012 13.064C153.94 13.256 154.716 13.528 155.34 13.88L153.972 16.976C152.82 16.336 151.572 16.016 150.228 16.016C149.508 16.016 148.98 16.104 148.644 16.28C148.308 16.44 148.14 16.656 148.14 16.928C148.14 17.232 148.324 17.448 148.692 17.576C149.06 17.688 149.668 17.808 150.516 17.936C151.588 18.096 152.476 18.28 153.18 18.488C153.884 18.696 154.492 19.08 155.004 19.64C155.532 20.184 155.796 20.952 155.796 21.944C155.796 22.76 155.548 23.496 155.052 24.152C154.556 24.792 153.82 25.296 152.844 25.664C151.884 26.032 150.724 26.216 149.364 26.216Z" fill="black"/>
<path d="M374.432 15.92C375.824 16.208 376.888 16.784 377.624 17.648C378.376 18.496 378.752 19.528 378.752 20.744C378.752 21.736 378.48 22.656 377.936 23.504C377.408 24.352 376.592 25.04 375.488 25.568C374.4 26.08 373.048 26.336 371.432 26.336C370.248 26.336 369.072 26.192 367.904 25.904C366.752 25.616 365.752 25.208 364.904 24.68L366.632 21.104C367.288 21.552 368.024 21.896 368.84 22.136C369.672 22.376 370.488 22.496 371.288 22.496C372.104 22.496 372.752 22.344 373.232 22.04C373.712 21.736 373.952 21.304 373.952 20.744C373.952 19.656 373.096 19.112 371.384 19.112H369.392V16.112L372.392 12.872H365.768V9.2H377.912V12.176L374.432 15.92ZM396.093 12.776C397.277 12.776 398.349 13.056 399.309 13.616C400.285 14.16 401.053 14.944 401.613 15.968C402.189 16.976 402.477 18.152 402.477 19.496C402.477 20.84 402.189 22.024 401.613 23.048C401.053 24.056 400.285 24.84 399.309 25.4C398.349 25.944 397.277 26.216 396.093 26.216C394.573 26.216 393.365 25.76 392.469 24.848V30.656H387.909V12.992H392.253V14.288C393.101 13.28 394.381 12.776 396.093 12.776ZM395.133 22.592C395.933 22.592 396.589 22.32 397.101 21.776C397.613 21.216 397.869 20.456 397.869 19.496C397.869 18.536 397.613 17.784 397.101 17.24C396.589 16.68 395.933 16.4 395.133 16.4C394.333 16.4 393.677 16.68 393.165 17.24C392.653 17.784 392.397 18.536 392.397 19.496C392.397 20.456 392.653 21.216 393.165 21.776C393.677 22.32 394.333 22.592 395.133 22.592ZM417.893 19.52C417.893 19.552 417.869 19.928 417.821 20.648H408.365C408.557 21.32 408.925 21.84 409.469 22.208C410.029 22.56 410.725 22.736 411.557 22.736C412.181 22.736 412.717 22.648 413.165 22.472C413.629 22.296 414.093 22.008 414.557 21.608L416.957 24.104C415.693 25.512 413.845 26.216 411.413 26.216C409.893 26.216 408.557 25.928 407.405 25.352C406.253 24.776 405.357 23.976 404.717 22.952C404.093 21.928 403.781 20.768 403.781 19.472C403.781 18.192 404.085 17.048 404.693 16.04C405.317 15.016 406.173 14.216 407.261 13.64C408.349 13.064 409.573 12.776 410.933 12.776C412.229 12.776 413.405 13.048 414.461 13.592C415.517 14.12 416.349 14.896 416.957 15.92C417.581 16.928 417.893 18.128 417.893 19.52ZM410.957 16.016C410.253 16.016 409.661 16.216 409.181 16.616C408.717 17.016 408.421 17.56 408.293 18.248H413.621C413.493 17.56 413.189 17.016 412.709 16.616C412.245 16.216 411.661 16.016 410.957 16.016ZM424.339 14.552C424.803 13.96 425.403 13.52 426.139 13.232C426.891 12.928 427.747 12.776 428.707 12.776V16.88C428.291 16.832 427.947 16.808 427.675 16.808C426.699 16.808 425.931 17.072 425.371 17.6C424.827 18.128 424.555 18.936 424.555 20.024V26H419.995V12.992H424.339V14.552ZM435.34 26.216C434.252 26.216 433.18 26.096 432.124 25.856C431.068 25.6 430.22 25.272 429.58 24.872L430.948 21.752C431.54 22.12 432.244 22.416 433.06 22.64C433.876 22.848 434.684 22.952 435.484 22.952C436.22 22.952 436.74 22.88 437.044 22.736C437.364 22.576 437.524 22.352 437.524 22.064C437.524 21.776 437.332 21.576 436.948 21.464C436.58 21.336 435.988 21.216 435.172 21.104C434.132 20.976 433.244 20.808 432.508 20.6C431.788 20.392 431.164 20.008 430.636 19.448C430.108 18.888 429.844 18.104 429.844 17.096C429.844 16.264 430.092 15.528 430.588 14.888C431.084 14.232 431.804 13.72 432.748 13.352C433.708 12.968 434.852 12.776 436.18 12.776C437.124 12.776 438.06 12.872 438.988 13.064C439.916 13.256 440.692 13.528 441.316 13.88L439.948 16.976C438.796 16.336 437.548 16.016 436.204 16.016C435.484 16.016 434.956 16.104 434.62 16.28C434.284 16.44 434.116 16.656 434.116 16.928C434.116 17.232 434.3 17.448 434.668 17.576C435.036 17.688 435.644 17.808 436.492 17.936C437.564 18.096 438.452 18.28 439.156 18.488C439.86 18.696 440.468 19.08 440.98 19.64C441.508 20.184 441.772 20.952 441.772 21.944C441.772 22.76 441.524 23.496 441.028 24.152C440.532 24.792 439.796 25.296 438.82 25.664C437.86 26.032 436.7 26.216 435.34 26.216ZM450.265 26.216C448.873 26.216 447.617 25.928 446.497 25.352C445.377 24.776 444.497 23.976 443.857 22.952C443.233 21.928 442.921 20.768 442.921 19.472C442.921 18.192 443.233 17.04 443.857 16.016C444.497 14.992 445.369 14.2 446.473 13.64C447.593 13.064 448.857 12.776 450.265 12.776C451.673 12.776 452.937 13.064 454.057 13.64C455.177 14.2 456.049 14.992 456.673 16.016C457.297 17.024 457.609 18.176 457.609 19.472C457.609 20.768 457.297 21.928 456.673 22.952C456.049 23.976 455.177 24.776 454.057 25.352C452.937 25.928 451.673 26.216 450.265 26.216ZM450.265 22.592C451.065 22.592 451.721 22.32 452.233 21.776C452.745 21.216 453.001 20.448 453.001 19.472C453.001 18.512 452.745 17.76 452.233 17.216C451.721 16.672 451.065 16.4 450.265 16.4C449.465 16.4 448.809 16.672 448.297 17.216C447.785 17.76 447.529 18.512 447.529 19.472C447.529 20.448 447.785 21.216 448.297 21.776C448.809 22.32 449.465 22.592 450.265 22.592ZM468.194 12.776C469.81 12.776 471.106 13.256 472.082 14.216C473.074 15.176 473.57 16.624 473.57 18.56V26H469.01V19.304C469.01 17.528 468.298 16.64 466.874 16.64C466.09 16.64 465.458 16.896 464.978 17.408C464.514 17.92 464.282 18.688 464.282 19.712V26H459.722V12.992H464.066V14.408C464.578 13.88 465.186 13.48 465.89 13.208C466.594 12.92 467.362 12.776 468.194 12.776ZM484.905 12.776C486.521 12.776 487.817 13.256 488.793 14.216C489.785 15.176 490.281 16.624 490.281 18.56V26H485.721V19.304C485.721 17.528 485.009 16.64 483.585 16.64C482.801 16.64 482.169 16.896 481.689 17.408C481.225 17.92 480.993 18.688 480.993 19.712V26H476.433V12.992H480.777V14.408C481.289 13.88 481.897 13.48 482.601 13.208C483.305 12.92 484.073 12.776 484.905 12.776ZM506.627 19.52C506.627 19.552 506.603 19.928 506.555 20.648H497.099C497.291 21.32 497.659 21.84 498.203 22.208C498.763 22.56 499.459 22.736 500.291 22.736C500.915 22.736 501.451 22.648 501.899 22.472C502.363 22.296 502.827 22.008 503.291 21.608L505.691 24.104C504.427 25.512 502.579 26.216 500.147 26.216C498.627 26.216 497.291 25.928 496.139 25.352C494.987 24.776 494.091 23.976 493.451 22.952C492.827 21.928 492.515 20.768 492.515 19.472C492.515 18.192 492.819 17.048 493.427 16.04C494.051 15.016 494.907 14.216 495.995 13.64C497.083 13.064 498.307 12.776 499.667 12.776C500.963 12.776 502.139 13.048 503.195 13.592C504.251 14.12 505.083 14.896 505.691 15.92C506.315 16.928 506.627 18.128 506.627 19.52ZM499.691 16.016C498.987 16.016 498.395 16.216 497.915 16.616C497.451 17.016 497.155 17.56 497.027 18.248H502.355C502.227 17.56 501.923 17.016 501.443 16.616C500.979 16.216 500.395 16.016 499.691 16.016ZM513.458 26.216C512.37 26.216 511.298 26.096 510.242 25.856C509.186 25.6 508.338 25.272 507.698 24.872L509.066 21.752C509.658 22.12 510.362 22.416 511.178 22.64C511.994 22.848 512.802 22.952 513.602 22.952C514.338 22.952 514.858 22.88 515.162 22.736C515.482 22.576 515.642 22.352 515.642 22.064C515.642 21.776 515.45 21.576 515.066 21.464C514.698 21.336 514.106 21.216 513.29 21.104C512.25 20.976 511.362 20.808 510.626 20.6C509.906 20.392 509.282 20.008 508.754 19.448C508.226 18.888 507.962 18.104 507.962 17.096C507.962 16.264 508.21 15.528 508.706 14.888C509.202 14.232 509.922 13.72 510.866 13.352C511.826 12.968 512.97 12.776 514.298 12.776C515.242 12.776 516.178 12.872 517.106 13.064C518.034 13.256 518.81 13.528 519.434 13.88L518.066 16.976C516.914 16.336 515.666 16.016 514.322 16.016C513.602 16.016 513.074 16.104 512.738 16.28C512.402 16.44 512.234 16.656 512.234 16.928C512.234 17.232 512.418 17.448 512.786 17.576C513.154 17.688 513.762 17.808 514.61 17.936C515.682 18.096 516.57 18.28 517.274 18.488C517.978 18.696 518.586 19.08 519.098 19.64C519.626 20.184 519.89 20.952 519.89 21.944C519.89 22.76 519.642 23.496 519.146 24.152C518.65 24.792 517.914 25.296 516.938 25.664C515.978 26.032 514.818 26.216 513.458 26.216Z" fill="black"/>
<path d="M17.656 109.784H15.16V113H10.528V109.784H1.648V106.688L9.184 96.2H14.104L7.264 106.016H10.672V103.16H15.16V106.016H17.656V109.784ZM34.4371 99.776C35.6211 99.776 36.6931 100.056 37.6531 100.616C38.6291 101.16 39.3971 101.944 39.9571 102.968C40.5331 103.976 40.8211 105.152 40.8211 106.496C40.8211 107.84 40.5331 109.024 39.9571 110.048C39.3971 111.056 38.6291 111.84 37.6531 112.4C36.6931 112.944 35.6211 113.216 34.4371 113.216C32.9171 113.216 31.7091 112.76 30.8131 111.848V117.656H26.2531V99.992H30.5971V101.288C31.4451 100.28 32.7251 99.776 34.4371 99.776ZM33.4771 109.592C34.2771 109.592 34.9331 109.32 35.4451 108.776C35.9571 108.216 36.2131 107.456 36.2131 106.496C36.2131 105.536 35.9571 104.784 35.4451 104.24C34.9331 103.68 34.2771 103.4 33.4771 103.4C32.6771 103.4 32.0211 103.68 31.5091 104.24C30.9971 104.784 30.7411 105.536 30.7411 106.496C30.7411 107.456 30.9971 108.216 31.5091 108.776C32.0211 109.32 32.6771 109.592 33.4771 109.592ZM56.2366 106.52C56.2366 106.552 56.2126 106.928 56.1646 107.648H46.7086C46.9006 108.32 47.2686 108.84 47.8126 109.208C48.3726 109.56 49.0686 109.736 49.9006 109.736C50.5246 109.736 51.0606 109.648 51.5086 109.472C51.9726 109.296 52.4366 109.008 52.9006 108.608L55.3006 111.104C54.0366 112.512 52.1886 113.216 49.7566 113.216C48.2366 113.216 46.9006 112.928 45.7486 112.352C44.5966 111.776 43.7006 110.976 43.0606 109.952C42.4366 108.928 42.1246 107.768 42.1246 106.472C42.1246 105.192 42.4286 104.048 43.0366 103.04C43.6606 102.016 44.5166 101.216 45.6046 100.64C46.6926 100.064 47.9166 99.776 49.2766 99.776C50.5726 99.776 51.7486 100.048 52.8046 100.592C53.8606 101.12 54.6926 101.896 55.3006 102.92C55.9246 103.928 56.2366 105.128 56.2366 106.52ZM49.3006 103.016C48.5966 103.016 48.0046 103.216 47.5246 103.616C47.0606 104.016 46.7646 104.56 46.6366 105.248H51.9646C51.8366 104.56 51.5326 104.016 51.0526 103.616C50.5886 103.216 50.0046 103.016 49.3006 103.016ZM62.683 101.552C63.147 100.96 63.747 100.52 64.483 100.232C65.235 99.928 66.091 99.776 67.051 99.776V103.88C66.635 103.832 66.291 103.808 66.019 103.808C65.043 103.808 64.275 104.072 63.715 104.6C63.171 105.128 62.899 105.936 62.899 107.024V113H58.339V99.992H62.683V101.552ZM73.6842 113.216C72.5962 113.216 71.5242 113.096 70.4682 112.856C69.4122 112.6 68.5642 112.272 67.9242 111.872L69.2922 108.752C69.8842 109.12 70.5882 109.416 71.4042 109.64C72.2202 109.848 73.0282 109.952 73.8282 109.952C74.5642 109.952 75.0842 109.88 75.3882 109.736C75.7082 109.576 75.8682 109.352 75.8682 109.064C75.8682 108.776 75.6762 108.576 75.2922 108.464C74.9242 108.336 74.3322 108.216 73.5162 108.104C72.4762 107.976 71.5882 107.808 70.8522 107.6C70.1322 107.392 69.5082 107.008 68.9802 106.448C68.4522 105.888 68.1882 105.104 68.1882 104.096C68.1882 103.264 68.4362 102.528 68.9322 101.888C69.4282 101.232 70.1482 100.72 71.0922 100.352C72.0522 99.968 73.1962 99.776 74.5242 99.776C75.4682 99.776 76.4042 99.872 77.3322 100.064C78.2602 100.256 79.0362 100.528 79.6602 100.88L78.2922 103.976C77.1402 103.336 75.8922 103.016 74.5482 103.016C73.8282 103.016 73.3002 103.104 72.9642 103.28C72.6282 103.44 72.4602 103.656 72.4602 103.928C72.4602 104.232 72.6442 104.448 73.0122 104.576C73.3802 104.688 73.9882 104.808 74.8362 104.936C75.9082 105.096 76.7962 105.28 77.5002 105.488C78.2042 105.696 78.8122 106.08 79.3242 106.64C79.8522 107.184 80.1162 107.952 80.1162 108.944C80.1162 109.76 79.8682 110.496 79.3722 111.152C78.8762 111.792 78.1402 112.296 77.1642 112.664C76.2042 113.032 75.0442 113.216 73.6842 113.216ZM88.6092 113.216C87.2172 113.216 85.9612 112.928 84.8412 112.352C83.7212 111.776 82.8412 110.976 82.2012 109.952C81.5772 108.928 81.2652 107.768 81.2652 106.472C81.2652 105.192 81.5772 104.04 82.2012 103.016C82.8412 101.992 83.7132 101.2 84.8172 100.64C85.9372 100.064 87.2012 99.776 88.6092 99.776C90.0172 99.776 91.2812 100.064 92.4012 100.64C93.5212 101.2 94.3932 101.992 95.0172 103.016C95.6412 104.024 95.9532 105.176 95.9532 106.472C95.9532 107.768 95.6412 108.928 95.0172 109.952C94.3932 110.976 93.5212 111.776 92.4012 112.352C91.2812 112.928 90.0172 113.216 88.6092 113.216ZM88.6092 109.592C89.4092 109.592 90.0652 109.32 90.5772 108.776C91.0892 108.216 91.3452 107.448 91.3452 106.472C91.3452 105.512 91.0892 104.76 90.5772 104.216C90.0652 103.672 89.4092 103.4 88.6092 103.4C87.8092 103.4 87.1532 103.672 86.6412 104.216C86.1292 104.76 85.8732 105.512 85.8732 106.472C85.8732 107.448 86.1292 108.216 86.6412 108.776C87.1532 109.32 87.8092 109.592 88.6092 109.592ZM106.538 99.776C108.154 99.776 109.45 100.256 110.426 101.216C111.418 102.176 111.914 103.624 111.914 105.56V113H107.354V106.304C107.354 104.528 106.642 103.64 105.218 103.64C104.434 103.64 103.802 103.896 103.322 104.408C102.858 104.92 102.626 105.688 102.626 106.712V113H98.0656V99.992H102.41V101.408C102.922 100.88 103.53 100.48 104.234 100.208C104.938 99.92 105.706 99.776 106.538 99.776ZM123.249 99.776C124.865 99.776 126.161 100.256 127.137 101.216C128.129 102.176 128.625 103.624 128.625 105.56V113H124.065V106.304C124.065 104.528 123.353 103.64 121.929 103.64C121.145 103.64 120.513 103.896 120.033 104.408C119.569 104.92 119.337 105.688 119.337 106.712V113H114.777V99.992H119.121V101.408C119.633 100.88 120.241 100.48 120.945 100.208C121.649 99.92 122.417 99.776 123.249 99.776ZM144.971 106.52C144.971 106.552 144.947 106.928 144.899 107.648H135.443C135.635 108.32 136.003 108.84 136.547 109.208C137.107 109.56 137.803 109.736 138.635 109.736C139.259 109.736 139.795 109.648 140.243 109.472C140.707 109.296 141.171 109.008 141.635 108.608L144.035 111.104C142.771 112.512 140.923 113.216 138.491 113.216C136.971 113.216 135.635 112.928 134.483 112.352C133.331 111.776 132.435 110.976 131.795 109.952C131.171 108.928 130.859 107.768 130.859 106.472C130.859 105.192 131.163 104.048 131.771 103.04C132.395 102.016 133.251 101.216 134.339 100.64C135.427 100.064 136.651 99.776 138.011 99.776C139.307 99.776 140.483 100.048 141.539 100.592C142.595 101.12 143.427 101.896 144.035 102.92C144.659 103.928 144.971 105.128 144.971 106.52ZM138.035 103.016C137.331 103.016 136.739 103.216 136.259 103.616C135.795 104.016 135.499 104.56 135.371 105.248H140.699C140.571 104.56 140.267 104.016 139.787 103.616C139.323 103.216 138.739 103.016 138.035 103.016ZM151.801 113.216C150.713 113.216 149.641 113.096 148.585 112.856C147.529 112.6 146.681 112.272 146.041 111.872L147.409 108.752C148.001 109.12 148.705 109.416 149.521 109.64C150.337 109.848 151.145 109.952 151.945 109.952C152.681 109.952 153.201 109.88 153.505 109.736C153.825 109.576 153.985 109.352 153.985 109.064C153.985 108.776 153.793 108.576 153.409 108.464C153.041 108.336 152.449 108.216 151.633 108.104C150.593 107.976 149.705 107.808 148.969 107.6C148.249 107.392 147.625 107.008 147.097 106.448C146.569 105.888 146.305 105.104 146.305 104.096C146.305 103.264 146.553 102.528 147.049 101.888C147.545 101.232 148.265 100.72 149.209 100.352C150.169 99.968 151.313 99.776 152.641 99.776C153.585 99.776 154.521 99.872 155.449 100.064C156.377 100.256 157.153 100.528 157.777 100.88L156.409 103.976C155.257 103.336 154.009 103.016 152.665 103.016C151.945 103.016 151.417 103.104 151.081 103.28C150.745 103.44 150.577 103.656 150.577 103.928C150.577 104.232 150.761 104.448 151.129 104.576C151.497 104.688 152.105 104.808 152.953 104.936C154.025 105.096 154.913 105.28 155.617 105.488C156.321 105.696 156.929 106.08 157.441 106.64C157.969 107.184 158.233 107.952 158.233 108.944C158.233 109.76 157.985 110.496 157.489 111.152C156.993 111.792 156.257 112.296 155.281 112.664C154.321 113.032 153.161 113.216 151.801 113.216Z" fill="black"/>
<path d="M372.104 102.32C374.456 102.32 376.192 102.8 377.312 103.76C378.448 104.72 379.016 106 379.016 107.6C379.016 108.64 378.744 109.6 378.2 110.48C377.672 111.344 376.856 112.04 375.752 112.568C374.664 113.08 373.312 113.336 371.696 113.336C370.512 113.336 369.336 113.192 368.168 112.904C367.016 112.616 366.024 112.208 365.192 111.68L366.896 108.104C367.568 108.552 368.304 108.896 369.104 109.136C369.92 109.376 370.736 109.496 371.552 109.496C372.368 109.496 373.016 109.344 373.496 109.04C373.992 108.72 374.24 108.28 374.24 107.72C374.24 107.16 374 106.736 373.52 106.448C373.04 106.16 372.192 106.016 370.976 106.016H366.416L367.256 96.2H377.96V99.872H371.192L370.976 102.32H372.104ZM380.73 104.408H387.738V107.912H380.73V104.408ZM398.338 102.296C399.394 102.296 400.362 102.52 401.242 102.968C402.122 103.4 402.818 104.024 403.33 104.84C403.858 105.64 404.122 106.56 404.122 107.6C404.122 108.736 403.826 109.744 403.234 110.624C402.658 111.488 401.866 112.16 400.858 112.64C399.866 113.104 398.754 113.336 397.522 113.336C395.122 113.336 393.226 112.624 391.834 111.2C390.442 109.776 389.746 107.728 389.746 105.056C389.746 103.136 390.114 101.488 390.85 100.112C391.602 98.72 392.65 97.664 393.994 96.944C395.338 96.224 396.898 95.864 398.674 95.864C399.634 95.864 400.546 95.968 401.41 96.176C402.274 96.384 403.01 96.688 403.618 97.088L401.89 100.496C401.074 99.92 400.042 99.632 398.794 99.632C397.578 99.632 396.594 99.968 395.842 100.64C395.09 101.312 394.658 102.28 394.546 103.544C395.506 102.712 396.77 102.296 398.338 102.296ZM397.234 109.952C397.906 109.952 398.45 109.76 398.866 109.376C399.298 108.992 399.514 108.472 399.514 107.816C399.514 107.176 399.298 106.664 398.866 106.28C398.45 105.896 397.898 105.704 397.21 105.704C396.522 105.704 395.962 105.904 395.53 106.304C395.098 106.688 394.882 107.2 394.882 107.84C394.882 108.464 395.09 108.976 395.506 109.376C395.938 109.76 396.514 109.952 397.234 109.952ZM421.148 99.776C422.332 99.776 423.404 100.056 424.364 100.616C425.34 101.16 426.108 101.944 426.668 102.968C427.244 103.976 427.532 105.152 427.532 106.496C427.532 107.84 427.244 109.024 426.668 110.048C426.108 111.056 425.34 111.84 424.364 112.4C423.404 112.944 422.332 113.216 421.148 113.216C419.628 113.216 418.42 112.76 417.524 111.848V117.656H412.964V99.992H417.308V101.288C418.156 100.28 419.436 99.776 421.148 99.776ZM420.188 109.592C420.988 109.592 421.644 109.32 422.156 108.776C422.668 108.216 422.924 107.456 422.924 106.496C422.924 105.536 422.668 104.784 422.156 104.24C421.644 103.68 420.988 103.4 420.188 103.4C419.388 103.4 418.732 103.68 418.22 104.24C417.708 104.784 417.452 105.536 417.452 106.496C417.452 107.456 417.708 108.216 418.22 108.776C418.732 109.32 419.388 109.592 420.188 109.592ZM442.948 106.52C442.948 106.552 442.924 106.928 442.876 107.648H433.42C433.612 108.32 433.98 108.84 434.523 109.208C435.084 109.56 435.78 109.736 436.612 109.736C437.236 109.736 437.772 109.648 438.22 109.472C438.684 109.296 439.148 109.008 439.612 108.608L442.012 111.104C440.748 112.512 438.9 113.216 436.468 113.216C434.948 113.216 433.612 112.928 432.46 112.352C431.308 111.776 430.412 110.976 429.771 109.952C429.148 108.928 428.836 107.768 428.836 106.472C428.836 105.192 429.14 104.048 429.748 103.04C430.372 102.016 431.228 101.216 432.316 100.64C433.404 100.064 434.628 99.776 435.988 99.776C437.284 99.776 438.46 100.048 439.516 100.592C440.572 101.12 441.404 101.896 442.012 102.92C442.636 103.928 442.948 105.128 442.948 106.52ZM436.012 103.016C435.308 103.016 434.716 103.216 434.236 103.616C433.772 104.016 433.476 104.56 433.348 105.248H438.676C438.548 104.56 438.244 104.016 437.764 103.616C437.3 103.216 436.716 103.016 436.012 103.016ZM449.394 101.552C449.858 100.96 450.458 100.52 451.194 100.232C451.946 99.928 452.802 99.776 453.762 99.776V103.88C453.346 103.832 453.002 103.808 452.73 103.808C451.754 103.808 450.986 104.072 450.426 104.6C449.882 105.128 449.61 105.936 449.61 107.024V113H445.05V99.992H449.394V101.552ZM460.395 113.216C459.307 113.216 458.235 113.096 457.179 112.856C456.123 112.6 455.275 112.272 454.635 111.872L456.003 108.752C456.595 109.12 457.299 109.416 458.115 109.64C458.931 109.848 459.739 109.952 460.539 109.952C461.275 109.952 461.795 109.88 462.099 109.736C462.419 109.576 462.579 109.352 462.579 109.064C462.579 108.776 462.387 108.576 462.003 108.464C461.635 108.336 461.043 108.216 460.227 108.104C459.187 107.976 458.299 107.808 457.563 107.6C456.843 107.392 456.219 107.008 455.691 106.448C455.163 105.888 454.899 105.104 454.899 104.096C454.899 103.264 455.147 102.528 455.643 101.888C456.139 101.232 456.859 100.72 457.803 100.352C458.763 99.968 459.907 99.776 461.235 99.776C462.179 99.776 463.115 99.872 464.043 100.064C464.971 100.256 465.747 100.528 466.371 100.88L465.003 103.976C463.851 103.336 462.603 103.016 461.259 103.016C460.539 103.016 460.011 103.104 459.675 103.28C459.339 103.44 459.171 103.656 459.171 103.928C459.171 104.232 459.355 104.448 459.723 104.576C460.091 104.688 460.699 104.808 461.547 104.936C462.619 105.096 463.507 105.28 464.211 105.488C464.915 105.696 465.523 106.08 466.035 106.64C466.563 107.184 466.827 107.952 466.827 108.944C466.827 109.76 466.579 110.496 466.083 111.152C465.587 111.792 464.851 112.296 463.875 112.664C462.915 113.032 461.755 113.216 460.395 113.216ZM475.32 113.216C473.928 113.216 472.672 112.928 471.552 112.352C470.432 111.776 469.552 110.976 468.912 109.952C468.288 108.928 467.976 107.768 467.976 106.472C467.976 105.192 468.288 104.04 468.912 103.016C469.552 101.992 470.424 101.2 471.528 100.64C472.648 100.064 473.912 99.776 475.32 99.776C476.728 99.776 477.992 100.064 479.112 100.64C480.232 101.2 481.104 101.992 481.728 103.016C482.352 104.024 482.664 105.176 482.664 106.472C482.664 107.768 482.352 108.928 481.728 109.952C481.104 110.976 480.232 111.776 479.112 112.352C477.992 112.928 476.728 113.216 475.32 113.216ZM475.32 109.592C476.12 109.592 476.776 109.32 477.288 108.776C477.8 108.216 478.056 107.448 478.056 106.472C478.056 105.512 477.8 104.76 477.288 104.216C476.776 103.672 476.12 103.4 475.32 103.4C474.52 103.4 473.864 103.672 473.352 104.216C472.84 104.76 472.584 105.512 472.584 106.472C472.584 107.448 472.84 108.216 473.352 108.776C473.864 109.32 474.52 109.592 475.32 109.592ZM493.249 99.776C494.865 99.776 496.161 100.256 497.137 101.216C498.129 102.176 498.625 103.624 498.625 105.56V113H494.065V106.304C494.065 104.528 493.353 103.64 491.929 103.64C491.145 103.64 490.513 103.896 490.033 104.408C489.569 104.92 489.337 105.688 489.337 106.712V113H484.777V99.992H489.121V101.408C489.633 100.88 490.241 100.48 490.945 100.208C491.649 99.92 492.417 99.776 493.249 99.776ZM509.959 99.776C511.575 99.776 512.871 100.256 513.847 101.216C514.839 102.176 515.335 103.624 515.335 105.56V113H510.775V106.304C510.775 104.528 510.063 103.64 508.639 103.64C507.855 103.64 507.223 103.896 506.743 104.408C506.279 104.92 506.047 105.688 506.047 106.712V113H501.487V99.992H505.831V101.408C506.343 100.88 506.951 100.48 507.655 100.208C508.359 99.92 509.127 99.776 509.959 99.776ZM531.682 106.52C531.682 106.552 531.658 106.928 531.61 107.648H522.154C522.346 108.32 522.714 108.84 523.258 109.208C523.818 109.56 524.514 109.736 525.346 109.736C525.97 109.736 526.506 109.648 526.954 109.472C527.418 109.296 527.882 109.008 528.346 108.608L530.746 111.104C529.482 112.512 527.634 113.216 525.202 113.216C523.682 113.216 522.346 112.928 521.194 112.352C520.042 111.776 519.146 110.976 518.506 109.952C517.882 108.928 517.57 107.768 517.57 106.472C517.57 105.192 517.874 104.048 518.482 103.04C519.106 102.016 519.962 101.216 521.05 100.64C522.138 100.064 523.362 99.776 524.722 99.776C526.018 99.776 527.194 100.048 528.25 100.592C529.306 101.12 530.138 101.896 530.746 102.92C531.37 103.928 531.682 105.128 531.682 106.52ZM524.746 103.016C524.042 103.016 523.45 103.216 522.97 103.616C522.506 104.016 522.21 104.56 522.082 105.248H527.41C527.282 104.56 526.978 104.016 526.498 103.616C526.034 103.216 525.45 103.016 524.746 103.016ZM538.512 113.216C537.424 113.216 536.352 113.096 535.296 112.856C534.24 112.6 533.392 112.272 532.752 111.872L534.12 108.752C534.712 109.12 535.416 109.416 536.232 109.64C537.048 109.848 537.856 109.952 538.656 109.952C539.392 109.952 539.912 109.88 540.216 109.736C540.536 109.576 540.696 109.352 540.696 109.064C540.696 108.776 540.504 108.576 540.12 108.464C539.752 108.336 539.16 108.216 538.344 108.104C537.304 107.976 536.416 107.808 535.68 107.6C534.96 107.392 534.336 107.008 533.808 106.448C533.28 105.888 533.016 105.104 533.016 104.096C533.016 103.264 533.264 102.528 533.76 101.888C534.256 101.232 534.976 100.72 535.92 100.352C536.88 99.968 538.024 99.776 539.352 99.776C540.296 99.776 541.232 99.872 542.16 100.064C543.088 100.256 543.864 100.528 544.488 100.88L543.12 103.976C541.968 103.336 540.72 103.016 539.376 103.016C538.656 103.016 538.128 103.104 537.792 103.28C537.456 103.44 537.288 103.656 537.288 103.928C537.288 104.232 537.472 104.448 537.84 104.576C538.208 104.688 538.816 104.808 539.664 104.936C540.736 105.096 541.624 105.28 542.328 105.488C543.032 105.696 543.64 106.08 544.152 106.64C544.68 107.184 544.944 107.952 544.944 108.944C544.944 109.76 544.696 110.496 544.2 111.152C543.704 111.792 542.968 112.296 541.992 112.664C541.032 113.032 539.872 113.216 538.512 113.216Z" fill="black"/>
<path d="M9.38477 54.1836H10.835V56.2314H9.38477V59H6.84473V56.2314H1.59766L1.4834 54.6318L6.81836 46.2031H9.38477V54.1836ZM4.01465 54.1836H6.84473V49.666L6.67773 49.9561L4.01465 54.1836ZM20.8193 53.709C20.8193 55.4785 20.4531 56.832 19.7207 57.7695C18.9883 58.707 17.916 59.1758 16.5039 59.1758C15.1094 59.1758 14.043 58.7158 13.3047 57.7959C12.5664 56.876 12.1885 55.5576 12.1709 53.8408V51.4854C12.1709 49.6982 12.54 48.3418 13.2783 47.416C14.0225 46.4902 15.0918 46.0273 16.4863 46.0273C17.8809 46.0273 18.9473 46.4873 19.6855 47.4072C20.4238 48.3213 20.8018 49.6367 20.8193 51.3535V53.709ZM18.2793 51.125C18.2793 50.0645 18.1328 49.2939 17.8398 48.8135C17.5527 48.3271 17.1016 48.084 16.4863 48.084C15.8887 48.084 15.4463 48.3154 15.1592 48.7783C14.8779 49.2354 14.7285 49.9531 14.7109 50.9316V54.043C14.7109 55.0859 14.8516 55.8623 15.1328 56.3721C15.4199 56.876 15.877 57.1279 16.5039 57.1279C17.125 57.1279 17.5732 56.8848 17.8486 56.3984C18.124 55.9121 18.2676 55.168 18.2793 54.166V51.125ZM34.0117 54.4648H31.0674C31.0967 55.3262 31.3252 55.9736 31.7529 56.4072C32.1865 56.8408 32.8574 57.0576 33.7656 57.0576C34.3809 57.0576 34.9375 56.9668 35.4355 56.7852L35.752 58.9121C35.0254 59.082 34.2754 59.167 33.502 59.167C31.9609 59.167 30.7393 58.7539 29.8369 57.9277C28.9404 57.0957 28.4688 55.9414 28.4219 54.4648H26.9365V53.1289H28.4219V52.0391H26.9365V50.7031H28.4395C28.5391 49.2266 29.0518 48.0811 29.9775 47.2666C30.9092 46.4463 32.1426 46.0361 33.6777 46.0361C34.293 46.0361 34.9844 46.127 35.752 46.3086L35.4355 48.4443C34.8848 48.2568 34.3428 48.1631 33.8096 48.1631C32.1514 48.1631 31.2432 49.0098 31.085 50.7031H34.0117V52.0391H31.0674V53.1289H34.0117V54.4648ZM50.2363 54.3506C50.2363 55.7979 49.9053 56.9639 49.2432 57.8486C48.5811 58.7334 47.6846 59.1758 46.5537 59.1758C45.3994 59.1758 44.4912 58.8096 43.8291 58.0771V62.6562H42.2031V49.4902H43.6885L43.7676 50.5449C44.4297 49.7246 45.3496 49.3145 46.5273 49.3145C47.6699 49.3145 48.5723 49.7451 49.2344 50.6064C49.9023 51.4678 50.2363 52.666 50.2363 54.2012V54.3506ZM48.6104 54.166C48.6104 53.0938 48.3818 52.2471 47.9248 51.626C47.4678 51.0049 46.8408 50.6943 46.0439 50.6943C45.0596 50.6943 44.3213 51.1309 43.8291 52.0039V56.5479C44.3154 57.415 45.0596 57.8486 46.0615 57.8486C46.8408 57.8486 47.459 57.541 47.916 56.9258C48.3789 56.3047 48.6104 55.3848 48.6104 54.166ZM58.1816 59C58.0879 58.8125 58.0117 58.4785 57.9531 57.998C57.1973 58.7832 56.2949 59.1758 55.2461 59.1758C54.3086 59.1758 53.5381 58.9121 52.9346 58.3848C52.3369 57.8516 52.0381 57.1777 52.0381 56.3633C52.0381 55.373 52.4131 54.6055 53.1631 54.0605C53.9189 53.5098 54.9795 53.2344 56.3447 53.2344H57.9268V52.4873C57.9268 51.9189 57.7568 51.4678 57.417 51.1338C57.0771 50.7939 56.5762 50.624 55.9141 50.624C55.334 50.624 54.8477 50.7705 54.4551 51.0635C54.0625 51.3564 53.8662 51.7109 53.8662 52.127H52.2314C52.2314 51.6523 52.3984 51.1953 52.7324 50.7559C53.0723 50.3105 53.5293 49.959 54.1035 49.7012C54.6836 49.4434 55.3193 49.3145 56.0107 49.3145C57.1064 49.3145 57.9648 49.5898 58.5859 50.1406C59.207 50.6855 59.5293 51.4385 59.5527 52.3994V56.7764C59.5527 57.6494 59.6641 58.3438 59.8867 58.8594V59H58.1816ZM55.4834 57.7607C55.9932 57.7607 56.4766 57.6289 56.9336 57.3652C57.3906 57.1016 57.7217 56.7588 57.9268 56.3369V54.3857H56.6523C54.6602 54.3857 53.6641 54.9688 53.6641 56.1348C53.6641 56.6445 53.834 57.043 54.1738 57.3301C54.5137 57.6172 54.9502 57.7607 55.4834 57.7607ZM66.6982 50.9492C66.4521 50.9082 66.1855 50.8877 65.8984 50.8877C64.832 50.8877 64.1084 51.3418 63.7275 52.25V59H62.1016V49.4902H63.6836L63.71 50.5889C64.2432 49.7393 64.999 49.3145 65.9775 49.3145C66.2939 49.3145 66.5342 49.3555 66.6982 49.4375V50.9492ZM80.6992 54.3506C80.6992 55.7979 80.3682 56.9639 79.7061 57.8486C79.0439 58.7334 78.1475 59.1758 77.0166 59.1758C75.8623 59.1758 74.9541 58.8096 74.292 58.0771V62.6562H72.666V49.4902H74.1514L74.2305 50.5449C74.8926 49.7246 75.8125 49.3145 76.9902 49.3145C78.1328 49.3145 79.0352 49.7451 79.6973 50.6064C80.3652 51.4678 80.6992 52.666 80.6992 54.2012V54.3506ZM79.0732 54.166C79.0732 53.0938 78.8447 52.2471 78.3877 51.626C77.9307 51.0049 77.3037 50.6943 76.5068 50.6943C75.5225 50.6943 74.7842 51.1309 74.292 52.0039V56.5479C74.7783 57.415 75.5225 57.8486 76.5244 57.8486C77.3037 57.8486 77.9219 57.541 78.3789 56.9258C78.8418 56.3047 79.0732 55.3848 79.0732 54.166ZM86.7197 59.1758C85.4307 59.1758 84.3818 58.7539 83.5732 57.9102C82.7646 57.0605 82.3604 55.9268 82.3604 54.5088V54.21C82.3604 53.2666 82.5391 52.4258 82.8965 51.6875C83.2598 50.9434 83.7637 50.3633 84.4082 49.9473C85.0586 49.5254 85.7617 49.3145 86.5176 49.3145C87.7539 49.3145 88.7148 49.7217 89.4004 50.5361C90.0859 51.3506 90.4287 52.5166 90.4287 54.0342V54.7109H83.9863C84.0098 55.6484 84.2822 56.4072 84.8037 56.9873C85.3311 57.5615 85.999 57.8486 86.8076 57.8486C87.3818 57.8486 87.8682 57.7314 88.2666 57.4971C88.665 57.2627 89.0137 56.9521 89.3125 56.5654L90.3057 57.3389C89.5088 58.5635 88.3135 59.1758 86.7197 59.1758ZM86.5176 50.6504C85.8613 50.6504 85.3105 50.8906 84.8652 51.3711C84.4199 51.8457 84.1445 52.5137 84.0391 53.375H88.8027V53.252C88.7559 52.4258 88.5332 51.7871 88.1348 51.3359C87.7363 50.8789 87.1973 50.6504 86.5176 50.6504ZM96.915 50.9492C96.6689 50.9082 96.4023 50.8877 96.1152 50.8877C95.0488 50.8877 94.3252 51.3418 93.9443 52.25V59H92.3184V49.4902H93.9004L93.9268 50.5889C94.46 49.7393 95.2158 49.3145 96.1943 49.3145C96.5107 49.3145 96.751 49.3555 96.915 49.4375V50.9492ZM103.955 56.4775C103.955 56.0381 103.788 55.6982 103.454 55.458C103.126 55.2119 102.549 55.001 101.723 54.8252C100.902 54.6494 100.249 54.4385 99.7627 54.1924C99.2822 53.9463 98.9248 53.6533 98.6904 53.3135C98.4619 52.9736 98.3477 52.5693 98.3477 52.1006C98.3477 51.3213 98.6758 50.6621 99.332 50.123C99.9941 49.584 100.838 49.3145 101.863 49.3145C102.941 49.3145 103.814 49.5928 104.482 50.1494C105.156 50.7061 105.493 51.418 105.493 52.2852H103.858C103.858 51.8398 103.668 51.4561 103.287 51.1338C102.912 50.8115 102.438 50.6504 101.863 50.6504C101.271 50.6504 100.809 50.7793 100.475 51.0371C100.141 51.2949 99.9736 51.6318 99.9736 52.0479C99.9736 52.4404 100.129 52.7363 100.439 52.9355C100.75 53.1348 101.31 53.3252 102.118 53.5068C102.933 53.6885 103.592 53.9053 104.096 54.1572C104.6 54.4092 104.972 54.7139 105.212 55.0713C105.458 55.4229 105.581 55.8535 105.581 56.3633C105.581 57.2129 105.241 57.8955 104.562 58.4111C103.882 58.9209 103 59.1758 101.916 59.1758C101.154 59.1758 100.48 59.041 99.8945 58.7715C99.3086 58.502 98.8486 58.127 98.5146 57.6465C98.1865 57.1602 98.0225 56.6357 98.0225 56.0732H99.6484C99.6777 56.6182 99.8945 57.0518 100.299 57.374C100.709 57.6904 101.248 57.8486 101.916 57.8486C102.531 57.8486 103.023 57.7256 103.393 57.4795C103.768 57.2275 103.955 56.8936 103.955 56.4775ZM107.269 54.1572C107.269 53.2256 107.45 52.3877 107.813 51.6436C108.183 50.8994 108.692 50.3252 109.343 49.9209C109.999 49.5166 110.746 49.3145 111.584 49.3145C112.879 49.3145 113.925 49.7627 114.722 50.6592C115.524 51.5557 115.926 52.748 115.926 54.2363V54.3506C115.926 55.2764 115.747 56.1084 115.39 56.8467C115.038 57.5791 114.531 58.1504 113.869 58.5605C113.213 58.9707 112.457 59.1758 111.602 59.1758C110.312 59.1758 109.267 58.7275 108.464 57.8311C107.667 56.9346 107.269 55.748 107.269 54.2715V54.1572ZM108.903 54.3506C108.903 55.4053 109.146 56.252 109.633 56.8906C110.125 57.5293 110.781 57.8486 111.602 57.8486C112.428 57.8486 113.084 57.5264 113.57 56.8818C114.057 56.2314 114.3 55.3232 114.3 54.1572C114.3 53.1143 114.051 52.2705 113.553 51.626C113.061 50.9756 112.404 50.6504 111.584 50.6504C110.781 50.6504 110.134 50.9697 109.642 51.6084C109.149 52.2471 108.903 53.1611 108.903 54.3506ZM119.503 49.4902L119.556 50.6855C120.282 49.7715 121.231 49.3145 122.403 49.3145C124.413 49.3145 125.427 50.4482 125.444 52.7158V59H123.818V52.707C123.812 52.0215 123.654 51.5146 123.344 51.1865C123.039 50.8584 122.562 50.6943 121.911 50.6943C121.384 50.6943 120.921 50.835 120.522 51.1162C120.124 51.3975 119.813 51.7666 119.591 52.2236V59H117.965V49.4902H119.503ZM129.435 49.4902L129.487 50.6855C130.214 49.7715 131.163 49.3145 132.335 49.3145C134.345 49.3145 135.358 50.4482 135.376 52.7158V59H133.75V52.707C133.744 52.0215 133.586 51.5146 133.275 51.1865C132.971 50.8584 132.493 50.6943 131.843 50.6943C131.315 50.6943 130.853 50.835 130.454 51.1162C130.056 51.3975 129.745 51.7666 129.522 52.2236V59H127.896V49.4902H129.435ZM141.774 59.1758C140.485 59.1758 139.437 58.7539 138.628 57.9102C137.819 57.0605 137.415 55.9268 137.415 54.5088V54.21C137.415 53.2666 137.594 52.4258 137.951 51.6875C138.314 50.9434 138.818 50.3633 139.463 49.9473C140.113 49.5254 140.816 49.3145 141.572 49.3145C142.809 49.3145 143.77 49.7217 144.455 50.5361C145.141 51.3506 145.483 52.5166 145.483 54.0342V54.7109H139.041C139.064 55.6484 139.337 56.4072 139.858 56.9873C140.386 57.5615 141.054 57.8486 141.862 57.8486C142.437 57.8486 142.923 57.7314 143.321 57.4971C143.72 57.2627 144.068 56.9521 144.367 56.5654L145.36 57.3389C144.563 58.5635 143.368 59.1758 141.774 59.1758ZM141.572 50.6504C140.916 50.6504 140.365 50.8906 139.92 51.3711C139.475 51.8457 139.199 52.5137 139.094 53.375H143.857V53.252C143.811 52.4258 143.588 51.7871 143.189 51.3359C142.791 50.8789 142.252 50.6504 141.572 50.6504Z" fill="#FF4614"/>
<path d="M368.454 51.4766H369.808C370.452 51.4766 370.93 51.3154 371.24 50.9932C371.551 50.6709 371.706 50.2432 371.706 49.71C371.706 49.1943 371.551 48.793 371.24 48.5059C370.936 48.2188 370.514 48.0752 369.975 48.0752C369.488 48.0752 369.081 48.21 368.753 48.4795C368.425 48.7432 368.261 49.0889 368.261 49.5166H365.721C365.721 48.8486 365.899 48.251 366.257 47.7236C366.62 47.1904 367.124 46.7744 367.769 46.4756C368.419 46.1768 369.134 46.0273 369.913 46.0273C371.267 46.0273 372.327 46.3525 373.095 47.0029C373.862 47.6475 374.246 48.5381 374.246 49.6748C374.246 50.2607 374.067 50.7998 373.71 51.292C373.353 51.7842 372.884 52.1621 372.304 52.4258C373.024 52.6836 373.561 53.0703 373.912 53.5859C374.27 54.1016 374.448 54.7109 374.448 55.4141C374.448 56.5508 374.032 57.4619 373.2 58.1475C372.374 58.833 371.278 59.1758 369.913 59.1758C368.636 59.1758 367.59 58.8389 366.775 58.165C365.967 57.4912 365.562 56.6006 365.562 55.4932H368.103C368.103 55.9736 368.281 56.3662 368.639 56.6709C369.002 56.9756 369.447 57.1279 369.975 57.1279C370.578 57.1279 371.05 56.9697 371.39 56.6533C371.735 56.3311 371.908 55.9062 371.908 55.3789C371.908 54.1016 371.205 53.4629 369.799 53.4629H368.454V51.4766ZM384.978 59H376.206V57.2598L380.346 52.8477C380.914 52.2266 381.333 51.6846 381.603 51.2217C381.878 50.7588 382.016 50.3193 382.016 49.9033C382.016 49.335 381.872 48.8896 381.585 48.5674C381.298 48.2393 380.888 48.0752 380.354 48.0752C379.78 48.0752 379.326 48.2744 378.992 48.6729C378.664 49.0654 378.5 49.584 378.5 50.2285H375.951C375.951 49.4492 376.136 48.7373 376.505 48.0928C376.88 47.4482 377.407 46.9443 378.087 46.5811C378.767 46.2119 379.537 46.0273 380.398 46.0273C381.717 46.0273 382.739 46.3438 383.466 46.9766C384.198 47.6094 384.564 48.5029 384.564 49.6572C384.564 50.29 384.4 50.9346 384.072 51.5908C383.744 52.2471 383.182 53.0117 382.385 53.8848L379.476 56.9521H384.978V59ZM398.012 54.4648H395.067C395.097 55.3262 395.325 55.9736 395.753 56.4072C396.187 56.8408 396.857 57.0576 397.766 57.0576C398.381 57.0576 398.938 56.9668 399.436 56.7852L399.752 58.9121C399.025 59.082 398.275 59.167 397.502 59.167C395.961 59.167 394.739 58.7539 393.837 57.9277C392.94 57.0957 392.469 55.9414 392.422 54.4648H390.937V53.1289H392.422V52.0391H390.937V50.7031H392.439C392.539 49.2266 393.052 48.0811 393.978 47.2666C394.909 46.4463 396.143 46.0361 397.678 46.0361C398.293 46.0361 398.984 46.127 399.752 46.3086L399.436 48.4443C398.885 48.2568 398.343 48.1631 397.81 48.1631C396.151 48.1631 395.243 49.0098 395.085 50.7031H398.012V52.0391H395.067V53.1289H398.012V54.4648ZM414.236 54.3506C414.236 55.7979 413.905 56.9639 413.243 57.8486C412.581 58.7334 411.685 59.1758 410.554 59.1758C409.399 59.1758 408.491 58.8096 407.829 58.0771V62.6562H406.203V49.4902H407.688L407.768 50.5449C408.43 49.7246 409.35 49.3145 410.527 49.3145C411.67 49.3145 412.572 49.7451 413.234 50.6064C413.902 51.4678 414.236 52.666 414.236 54.2012V54.3506ZM412.61 54.166C412.61 53.0938 412.382 52.2471 411.925 51.626C411.468 51.0049 410.841 50.6943 410.044 50.6943C409.06 50.6943 408.321 51.1309 407.829 52.0039V56.5479C408.315 57.415 409.06 57.8486 410.062 57.8486C410.841 57.8486 411.459 57.541 411.916 56.9258C412.379 56.3047 412.61 55.3848 412.61 54.166ZM422.182 59C422.088 58.8125 422.012 58.4785 421.953 57.998C421.197 58.7832 420.295 59.1758 419.246 59.1758C418.309 59.1758 417.538 58.9121 416.935 58.3848C416.337 57.8516 416.038 57.1777 416.038 56.3633C416.038 55.373 416.413 54.6055 417.163 54.0605C417.919 53.5098 418.979 53.2344 420.345 53.2344H421.927V52.4873C421.927 51.9189 421.757 51.4678 421.417 51.1338C421.077 50.7939 420.576 50.624 419.914 50.624C419.334 50.624 418.848 50.7705 418.455 51.0635C418.062 51.3564 417.866 51.7109 417.866 52.127H416.231C416.231 51.6523 416.398 51.1953 416.732 50.7559C417.072 50.3105 417.529 49.959 418.104 49.7012C418.684 49.4434 419.319 49.3145 420.011 49.3145C421.106 49.3145 421.965 49.5898 422.586 50.1406C423.207 50.6855 423.529 51.4385 423.553 52.3994V56.7764C423.553 57.6494 423.664 58.3438 423.887 58.8594V59H422.182ZM419.483 57.7607C419.993 57.7607 420.477 57.6289 420.934 57.3652C421.391 57.1016 421.722 56.7588 421.927 56.3369V54.3857H420.652C418.66 54.3857 417.664 54.9688 417.664 56.1348C417.664 56.6445 417.834 57.043 418.174 57.3301C418.514 57.6172 418.95 57.7607 419.483 57.7607ZM430.698 50.9492C430.452 50.9082 430.186 50.8877 429.898 50.8877C428.832 50.8877 428.108 51.3418 427.728 52.25V59H426.102V49.4902H427.684L427.71 50.5889C428.243 49.7393 428.999 49.3145 429.978 49.3145C430.294 49.3145 430.534 49.3555 430.698 49.4375V50.9492ZM444.699 54.3506C444.699 55.7979 444.368 56.9639 443.706 57.8486C443.044 58.7334 442.147 59.1758 441.017 59.1758C439.862 59.1758 438.954 58.8096 438.292 58.0771V62.6562H436.666V49.4902H438.151L438.23 50.5449C438.893 49.7246 439.812 49.3145 440.99 49.3145C442.133 49.3145 443.035 49.7451 443.697 50.6064C444.365 51.4678 444.699 52.666 444.699 54.2012V54.3506ZM443.073 54.166C443.073 53.0938 442.845 52.2471 442.388 51.626C441.931 51.0049 441.304 50.6943 440.507 50.6943C439.522 50.6943 438.784 51.1309 438.292 52.0039V56.5479C438.778 57.415 439.522 57.8486 440.524 57.8486C441.304 57.8486 441.922 57.541 442.379 56.9258C442.842 56.3047 443.073 55.3848 443.073 54.166ZM450.72 59.1758C449.431 59.1758 448.382 58.7539 447.573 57.9102C446.765 57.0605 446.36 55.9268 446.36 54.5088V54.21C446.36 53.2666 446.539 52.4258 446.896 51.6875C447.26 50.9434 447.764 50.3633 448.408 49.9473C449.059 49.5254 449.762 49.3145 450.518 49.3145C451.754 49.3145 452.715 49.7217 453.4 50.5361C454.086 51.3506 454.429 52.5166 454.429 54.0342V54.7109H447.986C448.01 55.6484 448.282 56.4072 448.804 56.9873C449.331 57.5615 449.999 57.8486 450.808 57.8486C451.382 57.8486 451.868 57.7314 452.267 57.4971C452.665 57.2627 453.014 56.9521 453.312 56.5654L454.306 57.3389C453.509 58.5635 452.313 59.1758 450.72 59.1758ZM450.518 50.6504C449.861 50.6504 449.311 50.8906 448.865 51.3711C448.42 51.8457 448.145 52.5137 448.039 53.375H452.803V53.252C452.756 52.4258 452.533 51.7871 452.135 51.3359C451.736 50.8789 451.197 50.6504 450.518 50.6504ZM460.915 50.9492C460.669 50.9082 460.402 50.8877 460.115 50.8877C459.049 50.8877 458.325 51.3418 457.944 52.25V59H456.318V49.4902H457.9L457.927 50.5889C458.46 49.7393 459.216 49.3145 460.194 49.3145C460.511 49.3145 460.751 49.3555 460.915 49.4375V50.9492ZM467.955 56.4775C467.955 56.0381 467.788 55.6982 467.454 55.458C467.126 55.2119 466.549 55.001 465.723 54.8252C464.902 54.6494 464.249 54.4385 463.763 54.1924C463.282 53.9463 462.925 53.6533 462.69 53.3135C462.462 52.9736 462.348 52.5693 462.348 52.1006C462.348 51.3213 462.676 50.6621 463.332 50.123C463.994 49.584 464.838 49.3145 465.863 49.3145C466.941 49.3145 467.814 49.5928 468.482 50.1494C469.156 50.7061 469.493 51.418 469.493 52.2852H467.858C467.858 51.8398 467.668 51.4561 467.287 51.1338C466.912 50.8115 466.438 50.6504 465.863 50.6504C465.271 50.6504 464.809 50.7793 464.475 51.0371C464.141 51.2949 463.974 51.6318 463.974 52.0479C463.974 52.4404 464.129 52.7363 464.439 52.9355C464.75 53.1348 465.31 53.3252 466.118 53.5068C466.933 53.6885 467.592 53.9053 468.096 54.1572C468.6 54.4092 468.972 54.7139 469.212 55.0713C469.458 55.4229 469.581 55.8535 469.581 56.3633C469.581 57.2129 469.241 57.8955 468.562 58.4111C467.882 58.9209 467 59.1758 465.916 59.1758C465.154 59.1758 464.48 59.041 463.895 58.7715C463.309 58.502 462.849 58.127 462.515 57.6465C462.187 57.1602 462.022 56.6357 462.022 56.0732H463.648C463.678 56.6182 463.895 57.0518 464.299 57.374C464.709 57.6904 465.248 57.8486 465.916 57.8486C466.531 57.8486 467.023 57.7256 467.393 57.4795C467.768 57.2275 467.955 56.8936 467.955 56.4775ZM471.269 54.1572C471.269 53.2256 471.45 52.3877 471.813 51.6436C472.183 50.8994 472.692 50.3252 473.343 49.9209C473.999 49.5166 474.746 49.3145 475.584 49.3145C476.879 49.3145 477.925 49.7627 478.722 50.6592C479.524 51.5557 479.926 52.748 479.926 54.2363V54.3506C479.926 55.2764 479.747 56.1084 479.39 56.8467C479.038 57.5791 478.531 58.1504 477.869 58.5605C477.213 58.9707 476.457 59.1758 475.602 59.1758C474.312 59.1758 473.267 58.7275 472.464 57.8311C471.667 56.9346 471.269 55.748 471.269 54.2715V54.1572ZM472.903 54.3506C472.903 55.4053 473.146 56.252 473.633 56.8906C474.125 57.5293 474.781 57.8486 475.602 57.8486C476.428 57.8486 477.084 57.5264 477.57 56.8818C478.057 56.2314 478.3 55.3232 478.3 54.1572C478.3 53.1143 478.051 52.2705 477.553 51.626C477.061 50.9756 476.404 50.6504 475.584 50.6504C474.781 50.6504 474.134 50.9697 473.642 51.6084C473.149 52.2471 472.903 53.1611 472.903 54.3506ZM483.503 49.4902L483.556 50.6855C484.282 49.7715 485.231 49.3145 486.403 49.3145C488.413 49.3145 489.427 50.4482 489.444 52.7158V59H487.818V52.707C487.812 52.0215 487.654 51.5146 487.344 51.1865C487.039 50.8584 486.562 50.6943 485.911 50.6943C485.384 50.6943 484.921 50.835 484.522 51.1162C484.124 51.3975 483.813 51.7666 483.591 52.2236V59H481.965V49.4902H483.503ZM493.435 49.4902L493.487 50.6855C494.214 49.7715 495.163 49.3145 496.335 49.3145C498.345 49.3145 499.358 50.4482 499.376 52.7158V59H497.75V52.707C497.744 52.0215 497.586 51.5146 497.275 51.1865C496.971 50.8584 496.493 50.6943 495.843 50.6943C495.315 50.6943 494.853 50.835 494.454 51.1162C494.056 51.3975 493.745 51.7666 493.522 52.2236V59H491.896V49.4902H493.435ZM505.774 59.1758C504.485 59.1758 503.437 58.7539 502.628 57.9102C501.819 57.0605 501.415 55.9268 501.415 54.5088V54.21C501.415 53.2666 501.594 52.4258 501.951 51.6875C502.314 50.9434 502.818 50.3633 503.463 49.9473C504.113 49.5254 504.816 49.3145 505.572 49.3145C506.809 49.3145 507.77 49.7217 508.455 50.5361C509.141 51.3506 509.483 52.5166 509.483 54.0342V54.7109H503.041C503.064 55.6484 503.337 56.4072 503.858 56.9873C504.386 57.5615 505.054 57.8486 505.862 57.8486C506.437 57.8486 506.923 57.7314 507.321 57.4971C507.72 57.2627 508.068 56.9521 508.367 56.5654L509.36 57.3389C508.563 58.5635 507.368 59.1758 505.774 59.1758ZM505.572 50.6504C504.916 50.6504 504.365 50.8906 503.92 51.3711C503.475 51.8457 503.199 52.5137 503.094 53.375H507.857V53.252C507.811 52.4258 507.588 51.7871 507.189 51.3359C506.791 50.8789 506.252 50.6504 505.572 50.6504Z" fill="#FEAE17"/>
<path d="M10.6416 146H1.87012V144.26L6.00977 139.848C6.57812 139.227 6.99707 138.685 7.2666 138.222C7.54199 137.759 7.67969 137.319 7.67969 136.903C7.67969 136.335 7.53613 135.89 7.24902 135.567C6.96191 135.239 6.55176 135.075 6.01855 135.075C5.44434 135.075 4.99023 135.274 4.65625 135.673C4.32812 136.065 4.16406 136.584 4.16406 137.229H1.61523C1.61523 136.449 1.7998 135.737 2.16895 135.093C2.54395 134.448 3.07129 133.944 3.75098 133.581C4.43066 133.212 5.20117 133.027 6.0625 133.027C7.38086 133.027 8.40332 133.344 9.12988 133.977C9.8623 134.609 10.2285 135.503 10.2285 136.657C10.2285 137.29 10.0645 137.935 9.73633 138.591C9.4082 139.247 8.8457 140.012 8.04883 140.885L5.13965 143.952H10.6416V146ZM20.5469 136.604C20.5469 137.226 20.3916 137.776 20.0811 138.257C19.7705 138.737 19.3428 139.121 18.7979 139.408C19.4189 139.707 19.9111 140.12 20.2744 140.647C20.6377 141.169 20.8193 141.784 20.8193 142.493C20.8193 143.63 20.4326 144.529 19.6592 145.191C18.8857 145.848 17.834 146.176 16.5039 146.176C15.1738 146.176 14.1191 145.845 13.3398 145.183C12.5605 144.521 12.1709 143.624 12.1709 142.493C12.1709 141.784 12.3525 141.166 12.7158 140.639C13.0791 140.111 13.5684 139.701 14.1836 139.408C13.6387 139.121 13.2109 138.737 12.9004 138.257C12.5957 137.776 12.4434 137.226 12.4434 136.604C12.4434 135.515 12.8066 134.647 13.5332 134.003C14.2598 133.353 15.2471 133.027 16.4951 133.027C17.7373 133.027 18.7217 133.35 19.4482 133.994C20.1807 134.633 20.5469 135.503 20.5469 136.604ZM18.2705 142.309C18.2705 141.752 18.1094 141.307 17.7871 140.973C17.4648 140.639 17.0312 140.472 16.4863 140.472C15.9473 140.472 15.5166 140.639 15.1943 140.973C14.8721 141.301 14.7109 141.746 14.7109 142.309C14.7109 142.854 14.8691 143.293 15.1855 143.627C15.502 143.961 15.9414 144.128 16.5039 144.128C17.0547 144.128 17.4854 143.967 17.7959 143.645C18.1123 143.322 18.2705 142.877 18.2705 142.309ZM18.0068 136.728C18.0068 136.229 17.875 135.831 17.6113 135.532C17.3477 135.228 16.9756 135.075 16.4951 135.075C16.0205 135.075 15.6514 135.222 15.3877 135.515C15.124 135.808 14.9922 136.212 14.9922 136.728C14.9922 137.237 15.124 137.647 15.3877 137.958C15.6514 138.269 16.0234 138.424 16.5039 138.424C16.9844 138.424 17.3535 138.269 17.6113 137.958C17.875 137.647 18.0068 137.237 18.0068 136.728ZM34.0117 141.465H31.0674C31.0967 142.326 31.3252 142.974 31.7529 143.407C32.1865 143.841 32.8574 144.058 33.7656 144.058C34.3809 144.058 34.9375 143.967 35.4355 143.785L35.752 145.912C35.0254 146.082 34.2754 146.167 33.502 146.167C31.9609 146.167 30.7393 145.754 29.8369 144.928C28.9404 144.096 28.4688 142.941 28.4219 141.465H26.9365V140.129H28.4219V139.039H26.9365V137.703H28.4395C28.5391 136.227 29.0518 135.081 29.9775 134.267C30.9092 133.446 32.1426 133.036 33.6777 133.036C34.293 133.036 34.9844 133.127 35.752 133.309L35.4355 135.444C34.8848 135.257 34.3428 135.163 33.8096 135.163C32.1514 135.163 31.2432 136.01 31.085 137.703H34.0117V139.039H31.0674V140.129H34.0117V141.465ZM50.2188 141.351C50.2188 142.798 49.8877 143.964 49.2256 144.849C48.5635 145.733 47.667 146.176 46.5361 146.176C45.3818 146.176 44.4736 145.81 43.8115 145.077V149.656H42.1855V136.49H43.6709L43.75 137.545C44.4121 136.725 45.332 136.314 46.5098 136.314C47.6523 136.314 48.5547 136.745 49.2168 137.606C49.8848 138.468 50.2188 139.666 50.2188 141.201V141.351ZM48.5928 141.166C48.5928 140.094 48.3643 139.247 47.9072 138.626C47.4502 138.005 46.8232 137.694 46.0264 137.694C45.042 137.694 44.3037 138.131 43.8115 139.004V143.548C44.2979 144.415 45.042 144.849 46.0439 144.849C46.8232 144.849 47.4414 144.541 47.8984 143.926C48.3613 143.305 48.5928 142.385 48.5928 141.166ZM58.1641 146C58.0703 145.812 57.9941 145.479 57.9355 144.998C57.1797 145.783 56.2773 146.176 55.2285 146.176C54.291 146.176 53.5205 145.912 52.917 145.385C52.3193 144.852 52.0205 144.178 52.0205 143.363C52.0205 142.373 52.3955 141.605 53.1455 141.061C53.9014 140.51 54.9619 140.234 56.3271 140.234H57.9092V139.487C57.9092 138.919 57.7393 138.468 57.3994 138.134C57.0596 137.794 56.5586 137.624 55.8965 137.624C55.3164 137.624 54.8301 137.771 54.4375 138.063C54.0449 138.356 53.8486 138.711 53.8486 139.127H52.2139C52.2139 138.652 52.3809 138.195 52.7148 137.756C53.0547 137.311 53.5117 136.959 54.0859 136.701C54.666 136.443 55.3018 136.314 55.9932 136.314C57.0889 136.314 57.9473 136.59 58.5684 137.141C59.1895 137.686 59.5117 138.438 59.5352 139.399V143.776C59.5352 144.649 59.6465 145.344 59.8691 145.859V146H58.1641ZM55.4658 144.761C55.9756 144.761 56.459 144.629 56.916 144.365C57.373 144.102 57.7041 143.759 57.9092 143.337V141.386H56.6348C54.6426 141.386 53.6465 141.969 53.6465 143.135C53.6465 143.645 53.8164 144.043 54.1562 144.33C54.4961 144.617 54.9326 144.761 55.4658 144.761ZM66.6807 137.949C66.4346 137.908 66.168 137.888 65.8809 137.888C64.8145 137.888 64.0908 138.342 63.71 139.25V146H62.084V136.49H63.666L63.6924 137.589C64.2256 136.739 64.9814 136.314 65.96 136.314C66.2764 136.314 66.5166 136.355 66.6807 136.438V137.949ZM80.6816 141.351C80.6816 142.798 80.3506 143.964 79.6885 144.849C79.0264 145.733 78.1299 146.176 76.999 146.176C75.8447 146.176 74.9365 145.81 74.2744 145.077V149.656H72.6484V136.49H74.1338L74.2129 137.545C74.875 136.725 75.7949 136.314 76.9727 136.314C78.1152 136.314 79.0176 136.745 79.6797 137.606C80.3477 138.468 80.6816 139.666 80.6816 141.201V141.351ZM79.0557 141.166C79.0557 140.094 78.8271 139.247 78.3701 138.626C77.9131 138.005 77.2861 137.694 76.4893 137.694C75.5049 137.694 74.7666 138.131 74.2744 139.004V143.548C74.7607 144.415 75.5049 144.849 76.5068 144.849C77.2861 144.849 77.9043 144.541 78.3613 143.926C78.8242 143.305 79.0557 142.385 79.0557 141.166ZM86.7021 146.176C85.4131 146.176 84.3643 145.754 83.5557 144.91C82.7471 144.061 82.3428 142.927 82.3428 141.509V141.21C82.3428 140.267 82.5215 139.426 82.8789 138.688C83.2422 137.943 83.7461 137.363 84.3906 136.947C85.041 136.525 85.7441 136.314 86.5 136.314C87.7363 136.314 88.6973 136.722 89.3828 137.536C90.0684 138.351 90.4111 139.517 90.4111 141.034V141.711H83.9688C83.9922 142.648 84.2646 143.407 84.7861 143.987C85.3135 144.562 85.9814 144.849 86.79 144.849C87.3643 144.849 87.8506 144.731 88.249 144.497C88.6475 144.263 88.9961 143.952 89.2949 143.565L90.2881 144.339C89.4912 145.563 88.2959 146.176 86.7021 146.176ZM86.5 137.65C85.8438 137.65 85.293 137.891 84.8477 138.371C84.4023 138.846 84.127 139.514 84.0215 140.375H88.7852V140.252C88.7383 139.426 88.5156 138.787 88.1172 138.336C87.7188 137.879 87.1797 137.65 86.5 137.65ZM96.8975 137.949C96.6514 137.908 96.3848 137.888 96.0977 137.888C95.0312 137.888 94.3076 138.342 93.9268 139.25V146H92.3008V136.49H93.8828L93.9092 137.589C94.4424 136.739 95.1982 136.314 96.1768 136.314C96.4932 136.314 96.7334 136.355 96.8975 136.438V137.949ZM103.938 143.478C103.938 143.038 103.771 142.698 103.437 142.458C103.108 142.212 102.531 142.001 101.705 141.825C100.885 141.649 100.231 141.438 99.7451 141.192C99.2646 140.946 98.9072 140.653 98.6729 140.313C98.4443 139.974 98.3301 139.569 98.3301 139.101C98.3301 138.321 98.6582 137.662 99.3145 137.123C99.9766 136.584 100.82 136.314 101.846 136.314C102.924 136.314 103.797 136.593 104.465 137.149C105.139 137.706 105.476 138.418 105.476 139.285H103.841C103.841 138.84 103.65 138.456 103.27 138.134C102.895 137.812 102.42 137.65 101.846 137.65C101.254 137.65 100.791 137.779 100.457 138.037C100.123 138.295 99.9561 138.632 99.9561 139.048C99.9561 139.44 100.111 139.736 100.422 139.936C100.732 140.135 101.292 140.325 102.101 140.507C102.915 140.688 103.574 140.905 104.078 141.157C104.582 141.409 104.954 141.714 105.194 142.071C105.44 142.423 105.563 142.854 105.563 143.363C105.563 144.213 105.224 144.896 104.544 145.411C103.864 145.921 102.982 146.176 101.898 146.176C101.137 146.176 100.463 146.041 99.877 145.771C99.291 145.502 98.8311 145.127 98.4971 144.646C98.1689 144.16 98.0049 143.636 98.0049 143.073H99.6309C99.6602 143.618 99.877 144.052 100.281 144.374C100.691 144.69 101.23 144.849 101.898 144.849C102.514 144.849 103.006 144.726 103.375 144.479C103.75 144.228 103.938 143.894 103.938 143.478ZM107.251 141.157C107.251 140.226 107.433 139.388 107.796 138.644C108.165 137.899 108.675 137.325 109.325 136.921C109.981 136.517 110.729 136.314 111.566 136.314C112.861 136.314 113.907 136.763 114.704 137.659C115.507 138.556 115.908 139.748 115.908 141.236V141.351C115.908 142.276 115.729 143.108 115.372 143.847C115.021 144.579 114.514 145.15 113.852 145.561C113.195 145.971 112.439 146.176 111.584 146.176C110.295 146.176 109.249 145.728 108.446 144.831C107.649 143.935 107.251 142.748 107.251 141.271V141.157ZM108.886 141.351C108.886 142.405 109.129 143.252 109.615 143.891C110.107 144.529 110.764 144.849 111.584 144.849C112.41 144.849 113.066 144.526 113.553 143.882C114.039 143.231 114.282 142.323 114.282 141.157C114.282 140.114 114.033 139.271 113.535 138.626C113.043 137.976 112.387 137.65 111.566 137.65C110.764 137.65 110.116 137.97 109.624 138.608C109.132 139.247 108.886 140.161 108.886 141.351ZM119.485 136.49L119.538 137.686C120.265 136.771 121.214 136.314 122.386 136.314C124.396 136.314 125.409 137.448 125.427 139.716V146H123.801V139.707C123.795 139.021 123.637 138.515 123.326 138.187C123.021 137.858 122.544 137.694 121.894 137.694C121.366 137.694 120.903 137.835 120.505 138.116C120.106 138.397 119.796 138.767 119.573 139.224V146H117.947V136.49H119.485ZM129.417 136.49L129.47 137.686C130.196 136.771 131.146 136.314 132.317 136.314C134.327 136.314 135.341 137.448 135.358 139.716V146H133.732V139.707C133.727 139.021 133.568 138.515 133.258 138.187C132.953 137.858 132.476 137.694 131.825 137.694C131.298 137.694 130.835 137.835 130.437 138.116C130.038 138.397 129.728 138.767 129.505 139.224V146H127.879V136.49H129.417ZM141.757 146.176C140.468 146.176 139.419 145.754 138.61 144.91C137.802 144.061 137.397 142.927 137.397 141.509V141.21C137.397 140.267 137.576 139.426 137.934 138.688C138.297 137.943 138.801 137.363 139.445 136.947C140.096 136.525 140.799 136.314 141.555 136.314C142.791 136.314 143.752 136.722 144.438 137.536C145.123 138.351 145.466 139.517 145.466 141.034V141.711H139.023C139.047 142.648 139.319 143.407 139.841 143.987C140.368 144.562 141.036 144.849 141.845 144.849C142.419 144.849 142.905 144.731 143.304 144.497C143.702 144.263 144.051 143.952 144.35 143.565L145.343 144.339C144.546 145.563 143.351 146.176 141.757 146.176ZM141.555 137.65C140.898 137.65 140.348 137.891 139.902 138.371C139.457 138.846 139.182 139.514 139.076 140.375H143.84V140.252C143.793 139.426 143.57 138.787 143.172 138.336C142.773 137.879 142.234 137.65 141.555 137.65Z" fill="#BAC453"/>
<path d="M374.642 146H365.87V144.26L370.01 139.848C370.578 139.227 370.997 138.685 371.267 138.222C371.542 137.759 371.68 137.319 371.68 136.903C371.68 136.335 371.536 135.89 371.249 135.567C370.962 135.239 370.552 135.075 370.019 135.075C369.444 135.075 368.99 135.274 368.656 135.673C368.328 136.065 368.164 136.584 368.164 137.229H365.615C365.615 136.449 365.8 135.737 366.169 135.093C366.544 134.448 367.071 133.944 367.751 133.581C368.431 133.212 369.201 133.027 370.062 133.027C371.381 133.027 372.403 133.344 373.13 133.977C373.862 134.609 374.229 135.503 374.229 136.657C374.229 137.29 374.064 137.935 373.736 138.591C373.408 139.247 372.846 140.012 372.049 140.885L369.14 143.952H374.642V146ZM376.584 139.707L377.322 133.203H384.494V135.321H379.405L379.089 138.072C379.692 137.75 380.334 137.589 381.014 137.589C382.232 137.589 383.188 137.967 383.879 138.723C384.57 139.479 384.916 140.536 384.916 141.896C384.916 142.722 384.74 143.463 384.389 144.119C384.043 144.77 383.545 145.276 382.895 145.64C382.244 145.997 381.477 146.176 380.592 146.176C379.818 146.176 379.101 146.021 378.438 145.71C377.776 145.394 377.252 144.951 376.865 144.383C376.484 143.814 376.282 143.167 376.259 142.44H378.772C378.825 142.974 379.01 143.39 379.326 143.688C379.648 143.981 380.067 144.128 380.583 144.128C381.157 144.128 381.6 143.923 381.91 143.513C382.221 143.097 382.376 142.511 382.376 141.755C382.376 141.028 382.197 140.472 381.84 140.085C381.482 139.698 380.976 139.505 380.319 139.505C379.716 139.505 379.227 139.663 378.852 139.979L378.605 140.208L376.584 139.707ZM398.012 141.465H395.067C395.097 142.326 395.325 142.974 395.753 143.407C396.187 143.841 396.857 144.058 397.766 144.058C398.381 144.058 398.938 143.967 399.436 143.785L399.752 145.912C399.025 146.082 398.275 146.167 397.502 146.167C395.961 146.167 394.739 145.754 393.837 144.928C392.94 144.096 392.469 142.941 392.422 141.465H390.937V140.129H392.422V139.039H390.937V137.703H392.439C392.539 136.227 393.052 135.081 393.978 134.267C394.909 133.446 396.143 133.036 397.678 133.036C398.293 133.036 398.984 133.127 399.752 133.309L399.436 135.444C398.885 135.257 398.343 135.163 397.81 135.163C396.151 135.163 395.243 136.01 395.085 137.703H398.012V139.039H395.067V140.129H398.012V141.465ZM414.219 141.351C414.219 142.798 413.888 143.964 413.226 144.849C412.563 145.733 411.667 146.176 410.536 146.176C409.382 146.176 408.474 145.81 407.812 145.077V149.656H406.186V136.49H407.671L407.75 137.545C408.412 136.725 409.332 136.314 410.51 136.314C411.652 136.314 412.555 136.745 413.217 137.606C413.885 138.468 414.219 139.666 414.219 141.201V141.351ZM412.593 141.166C412.593 140.094 412.364 139.247 411.907 138.626C411.45 138.005 410.823 137.694 410.026 137.694C409.042 137.694 408.304 138.131 407.812 139.004V143.548C408.298 144.415 409.042 144.849 410.044 144.849C410.823 144.849 411.441 144.541 411.898 143.926C412.361 143.305 412.593 142.385 412.593 141.166ZM422.164 146C422.07 145.812 421.994 145.479 421.936 144.998C421.18 145.783 420.277 146.176 419.229 146.176C418.291 146.176 417.521 145.912 416.917 145.385C416.319 144.852 416.021 144.178 416.021 143.363C416.021 142.373 416.396 141.605 417.146 141.061C417.901 140.51 418.962 140.234 420.327 140.234H421.909V139.487C421.909 138.919 421.739 138.468 421.399 138.134C421.06 137.794 420.559 137.624 419.896 137.624C419.316 137.624 418.83 137.771 418.438 138.063C418.045 138.356 417.849 138.711 417.849 139.127H416.214C416.214 138.652 416.381 138.195 416.715 137.756C417.055 137.311 417.512 136.959 418.086 136.701C418.666 136.443 419.302 136.314 419.993 136.314C421.089 136.314 421.947 136.59 422.568 137.141C423.189 137.686 423.512 138.438 423.535 139.399V143.776C423.535 144.649 423.646 145.344 423.869 145.859V146H422.164ZM419.466 144.761C419.976 144.761 420.459 144.629 420.916 144.365C421.373 144.102 421.704 143.759 421.909 143.337V141.386H420.635C418.643 141.386 417.646 141.969 417.646 143.135C417.646 143.645 417.816 144.043 418.156 144.33C418.496 144.617 418.933 144.761 419.466 144.761ZM430.681 137.949C430.435 137.908 430.168 137.888 429.881 137.888C428.814 137.888 428.091 138.342 427.71 139.25V146H426.084V136.49H427.666L427.692 137.589C428.226 136.739 428.981 136.314 429.96 136.314C430.276 136.314 430.517 136.355 430.681 136.438V137.949ZM444.682 141.351C444.682 142.798 444.351 143.964 443.688 144.849C443.026 145.733 442.13 146.176 440.999 146.176C439.845 146.176 438.937 145.81 438.274 145.077V149.656H436.648V136.49H438.134L438.213 137.545C438.875 136.725 439.795 136.314 440.973 136.314C442.115 136.314 443.018 136.745 443.68 137.606C444.348 138.468 444.682 139.666 444.682 141.201V141.351ZM443.056 141.166C443.056 140.094 442.827 139.247 442.37 138.626C441.913 138.005 441.286 137.694 440.489 137.694C439.505 137.694 438.767 138.131 438.274 139.004V143.548C438.761 144.415 439.505 144.849 440.507 144.849C441.286 144.849 441.904 144.541 442.361 143.926C442.824 143.305 443.056 142.385 443.056 141.166ZM450.702 146.176C449.413 146.176 448.364 145.754 447.556 144.91C446.747 144.061 446.343 142.927 446.343 141.509V141.21C446.343 140.267 446.521 139.426 446.879 138.688C447.242 137.943 447.746 137.363 448.391 136.947C449.041 136.525 449.744 136.314 450.5 136.314C451.736 136.314 452.697 136.722 453.383 137.536C454.068 138.351 454.411 139.517 454.411 141.034V141.711H447.969C447.992 142.648 448.265 143.407 448.786 143.987C449.313 144.562 449.981 144.849 450.79 144.849C451.364 144.849 451.851 144.731 452.249 144.497C452.647 144.263 452.996 143.952 453.295 143.565L454.288 144.339C453.491 145.563 452.296 146.176 450.702 146.176ZM450.5 137.65C449.844 137.65 449.293 137.891 448.848 138.371C448.402 138.846 448.127 139.514 448.021 140.375H452.785V140.252C452.738 139.426 452.516 138.787 452.117 138.336C451.719 137.879 451.18 137.65 450.5 137.65ZM460.897 137.949C460.651 137.908 460.385 137.888 460.098 137.888C459.031 137.888 458.308 138.342 457.927 139.25V146H456.301V136.49H457.883L457.909 137.589C458.442 136.739 459.198 136.314 460.177 136.314C460.493 136.314 460.733 136.355 460.897 136.438V137.949ZM467.938 143.478C467.938 143.038 467.771 142.698 467.437 142.458C467.108 142.212 466.531 142.001 465.705 141.825C464.885 141.649 464.231 141.438 463.745 141.192C463.265 140.946 462.907 140.653 462.673 140.313C462.444 139.974 462.33 139.569 462.33 139.101C462.33 138.321 462.658 137.662 463.314 137.123C463.977 136.584 464.82 136.314 465.846 136.314C466.924 136.314 467.797 136.593 468.465 137.149C469.139 137.706 469.476 138.418 469.476 139.285H467.841C467.841 138.84 467.65 138.456 467.27 138.134C466.895 137.812 466.42 137.65 465.846 137.65C465.254 137.65 464.791 137.779 464.457 138.037C464.123 138.295 463.956 138.632 463.956 139.048C463.956 139.44 464.111 139.736 464.422 139.936C464.732 140.135 465.292 140.325 466.101 140.507C466.915 140.688 467.574 140.905 468.078 141.157C468.582 141.409 468.954 141.714 469.194 142.071C469.44 142.423 469.563 142.854 469.563 143.363C469.563 144.213 469.224 144.896 468.544 145.411C467.864 145.921 466.982 146.176 465.898 146.176C465.137 146.176 464.463 146.041 463.877 145.771C463.291 145.502 462.831 145.127 462.497 144.646C462.169 144.16 462.005 143.636 462.005 143.073H463.631C463.66 143.618 463.877 144.052 464.281 144.374C464.691 144.69 465.23 144.849 465.898 144.849C466.514 144.849 467.006 144.726 467.375 144.479C467.75 144.228 467.938 143.894 467.938 143.478ZM471.251 141.157C471.251 140.226 471.433 139.388 471.796 138.644C472.165 137.899 472.675 137.325 473.325 136.921C473.981 136.517 474.729 136.314 475.566 136.314C476.861 136.314 477.907 136.763 478.704 137.659C479.507 138.556 479.908 139.748 479.908 141.236V141.351C479.908 142.276 479.729 143.108 479.372 143.847C479.021 144.579 478.514 145.15 477.852 145.561C477.195 145.971 476.439 146.176 475.584 146.176C474.295 146.176 473.249 145.728 472.446 144.831C471.649 143.935 471.251 142.748 471.251 141.271V141.157ZM472.886 141.351C472.886 142.405 473.129 143.252 473.615 143.891C474.107 144.529 474.764 144.849 475.584 144.849C476.41 144.849 477.066 144.526 477.553 143.882C478.039 143.231 478.282 142.323 478.282 141.157C478.282 140.114 478.033 139.271 477.535 138.626C477.043 137.976 476.387 137.65 475.566 137.65C474.764 137.65 474.116 137.97 473.624 138.608C473.132 139.247 472.886 140.161 472.886 141.351ZM483.485 136.49L483.538 137.686C484.265 136.771 485.214 136.314 486.386 136.314C488.396 136.314 489.409 137.448 489.427 139.716V146H487.801V139.707C487.795 139.021 487.637 138.515 487.326 138.187C487.021 137.858 486.544 137.694 485.894 137.694C485.366 137.694 484.903 137.835 484.505 138.116C484.106 138.397 483.796 138.767 483.573 139.224V146H481.947V136.49H483.485ZM493.417 136.49L493.47 137.686C494.196 136.771 495.146 136.314 496.317 136.314C498.327 136.314 499.341 137.448 499.358 139.716V146H497.732V139.707C497.727 139.021 497.568 138.515 497.258 138.187C496.953 137.858 496.476 137.694 495.825 137.694C495.298 137.694 494.835 137.835 494.437 138.116C494.038 138.397 493.728 138.767 493.505 139.224V146H491.879V136.49H493.417ZM505.757 146.176C504.468 146.176 503.419 145.754 502.61 144.91C501.802 144.061 501.397 142.927 501.397 141.509V141.21C501.397 140.267 501.576 139.426 501.934 138.688C502.297 137.943 502.801 137.363 503.445 136.947C504.096 136.525 504.799 136.314 505.555 136.314C506.791 136.314 507.752 136.722 508.438 137.536C509.123 138.351 509.466 139.517 509.466 141.034V141.711H503.023C503.047 142.648 503.319 143.407 503.841 143.987C504.368 144.562 505.036 144.849 505.845 144.849C506.419 144.849 506.905 144.731 507.304 144.497C507.702 144.263 508.051 143.952 508.35 143.565L509.343 144.339C508.546 145.563 507.351 146.176 505.757 146.176ZM505.555 137.65C504.898 137.65 504.348 137.891 503.902 138.371C503.457 138.846 503.182 139.514 503.076 140.375H507.84V140.252C507.793 139.426 507.57 138.787 507.172 138.336C506.773 137.879 506.234 137.65 505.555 137.65Z" fill="#5CF339"/>
<path d="M263.119 123.684C297.481 122.463 324.558 92.1073 320.284 56.6145C317.02 29.4581 295.06 7.71195 267.878 4.63844C231.874 0.596561 201.26 28.7845 201.26 63.9825C201.26 79.8974 207.45 94.865 218.672 106.149C219.515 106.991 219.494 108.338 218.672 109.159C217.83 109.98 216.483 109.98 215.662 109.159C203.408 96.8649 196.754 80.4658 197.007 63.0773C197.449 29.8791 223.999 2.07016 257.161 0.112378C294.176 -2.05592 325 27.4372 325 64.0036C325 99.3069 296.26 128.021 260.951 128C259.793 128 258.845 127.032 258.845 125.874V125.705C258.845 124.611 259.73 123.727 260.825 123.727L263.119 123.684Z" fill="#FF0000"/>
<path d="M272.952 72.361C272.089 71.8347 265.246 67.877 265.246 67.877C265.246 67.877 267.899 61.2248 269.078 57.8565C269.331 57.8355 280.153 54.1094 285.08 52.4042C288.449 51.2464 286.575 46.0677 283.185 47.2255C278.279 48.9097 273.394 50.5938 268.488 52.2989C267.141 51.0359 264.951 50.5938 263.119 51.2674C259.814 47.5624 256.761 44.131 253.455 40.4259C251.055 37.7524 246.886 41.3943 249.265 44.0468C252.571 47.7518 259.624 55.583 259.835 55.7303C258.572 59.3091 255.455 67.2034 255.434 67.2034C255.645 67.2665 249.96 70.3611 245.602 72.6347C244.486 73.2241 243.749 74.6977 244.612 76.8239C246.023 80.2763 247.56 83.6656 249.013 87.118C249.602 88.5074 250.823 89.4969 252.424 89.0548C253.75 88.6969 254.95 87.0338 254.361 85.6444C253.224 82.9499 251.118 78.0028 250.444 76.445C250.339 76.1713 250.444 75.8555 250.697 75.7292C252.129 74.9924 256.34 72.8452 256.887 72.5504C257.877 72.0663 259.519 71.3084 261.961 72.4662C262.551 72.7399 267.12 75.2029 268.636 76.0029C268.952 76.1713 269.141 76.4871 269.162 76.8239C269.268 78.5501 269.604 83.9182 269.794 86.8444C270.047 90.381 275.584 90.1284 275.331 86.5497C275.058 82.592 274.847 79.6027 274.637 75.624C274.658 74.8661 274.721 73.4136 272.952 72.361Z" fill="#FF0000"/>
<path d="M272.026 45.7519C272.026 48.2781 269.983 50.3201 267.436 50.3201C264.909 50.3201 262.867 48.2781 262.867 45.7519C262.867 43.2258 264.909 41.1627 267.436 41.1627C269.962 41.1838 272.026 43.2258 272.026 45.7519Z" fill="#FF0000"/>
<path d="M304.766 52.4674C304.766 54.5725 303.061 56.2777 300.955 56.2777C298.85 56.2777 297.144 54.5725 297.144 52.4674C297.144 50.3622 298.85 48.657 300.955 48.657C303.04 48.636 304.766 50.3622 304.766 52.4674Z" fill="#FF0000"/>
<path d="M308.493 64.3404C308.219 62.4457 308.156 60.5301 307.651 58.6775C306.977 56.2145 303.419 56.9724 303.398 59.2038C303.355 59.1617 303.292 59.0986 303.25 59.0565C302.892 58.6354 302.492 58.446 302.071 58.3828C301.313 56.9724 299.797 56.0672 298.092 56.2145C297.671 56.2356 297.292 56.3408 296.913 56.4882C295.397 53.6252 294.386 50.5727 293.776 47.3308C293.27 44.5941 289.101 45.7519 289.607 48.4676C290.428 52.7831 291.965 56.9092 294.302 60.6353V60.6564C294.512 63.1615 294.26 67.2876 294.091 69.2243C294.028 69.3296 293.944 69.4559 293.881 69.6032C291.628 74.9503 290.765 81.0763 290.322 86.8444C290.112 89.6232 294.428 89.6021 294.639 86.8444C294.955 82.6131 295.586 78.1922 296.85 74.0662C297.123 74.1504 297.418 74.2135 297.713 74.2556C298.071 78.5922 298.365 82.9288 298.997 87.2233C299.397 89.9811 303.545 88.8022 303.166 86.0865C302.513 81.5815 302.303 77.0344 301.903 72.5083C301.882 72.3399 301.861 72.1715 301.818 72.0242C302.05 71.5821 302.197 71.0769 302.24 70.5295C302.261 70.3611 302.513 67.5613 302.598 64.5298C303.334 65.1824 304.092 65.814 304.829 66.4876C306.619 67.9612 308.788 66.4455 308.493 64.3404Z" fill="#FF0000"/>
<path d="M243.833 49.6254L240.612 40.0891C240.254 39.0365 239.117 38.4681 238.043 38.826C236.99 39.1839 236.422 40.3207 236.78 41.3943L239.096 48.215H218.525L220.841 41.3522C221.199 40.2996 220.631 39.1418 219.578 38.7839C218.525 38.426 217.367 38.9944 217.009 40.047L213.788 49.5833C213.577 50.1938 213.682 50.8885 214.061 51.4148C214.44 51.9411 215.051 52.2568 215.704 52.2568H223.515V62.7194L215.262 64.8877C214.588 65.0561 214.04 65.5193 213.725 66.1087C213.409 66.7192 213.367 67.4349 213.619 68.0665L216.904 76.7818C217.262 77.7502 218.188 78.3606 219.178 78.3396C219.452 78.3396 219.746 78.2975 220.041 78.1922C221.283 77.7291 221.915 76.3187 221.452 75.0766L219.115 68.8664L224.084 67.5613H229.579L232.042 74.6766L229.495 86.4865C229.221 87.7917 230.042 89.0759 231.348 89.3706C231.516 89.4127 231.684 89.4337 231.853 89.4337C232.969 89.4337 233.979 88.6548 234.211 87.518L236.885 75.0556C236.969 74.6345 236.948 74.1714 236.801 73.7504L234.211 66.235V52.2779H241.917C242.57 52.2779 243.18 51.9621 243.559 51.4358C243.938 50.9095 244.044 50.2359 243.833 49.6254Z" fill="#FF0000"/>
<path d="M233.095 42.7416C233.095 45.0572 231.221 46.9308 228.905 46.9308C226.589 46.9308 224.715 45.0572 224.715 42.7416C224.715 40.4259 226.589 38.5523 228.905 38.5523C231.221 38.5523 233.095 40.4259 233.095 42.7416Z" fill="#FF0000"/>
</svg>
