<svg width="40" height="39" viewBox="0 0 40 39" fill="none" xmlns="http://www.w3.org/2000/svg">
<path d="M31.8598 30.6132H34.9324V29.3732H31.8598V28.7518H30.6197V29.3732H29.5173L25.1112 27.517H19.6589L20.8217 23.6136C23.2018 23.1003 25.2807 21.5255 26.4519 19.2897L35.2636 21.8944L37.4926 15.7458L26.4065 14.085C23.9569 12.0333 16.8162 7.13272 15.9089 6.51162L13.0094 2.66539C11.5975 0.79241 8.9283 0.375421 7.05938 1.73601C6.62271 2.05388 5.89505 2.70565 5.56304 3.00739C3.8788 3.09048 2.5932 4.0168 2.5932 5.18443C2.5932 6.38431 3.95081 7.32931 5.70342 7.36652C5.83428 7.44489 6.08387 7.64677 6.15901 7.74639L6.39214 8.06235C8.09895 10.3751 9.27386 13.0539 9.8843 16.0242C9.97119 16.4472 10.0839 16.864 10.2192 17.263L11.3935 16.8648C11.2747 16.5142 11.1755 16.1475 11.099 15.7747C10.4521 12.627 9.20417 9.78446 7.38989 7.32601L7.15296 7.00492C7.08426 6.91381 6.88254 6.7011 6.63486 6.5079L6.45001 3.87709C6.78475 3.57393 7.42346 3.00475 7.78919 2.73847C9.11448 1.77371 11.012 2.07578 12.0192 3.41174L15.041 7.42042L15.1251 7.47787C15.2026 7.53086 22.4653 12.4984 25.2753 14.761C24.9549 15.131 24.4343 15.6692 23.7763 16.1337L20.4851 13.7593L19.7596 14.765L22.5715 16.7936C22.1288 16.9663 21.6543 17.0749 21.1576 17.0748C21.1025 17.0748 21.0469 17.0735 20.9912 17.0708C17.3013 16.8909 14.7242 14.3259 14.7242 10.8333C14.7242 10.0311 14.8743 9.25041 15.1702 8.51299L14.0193 8.05119C13.6642 8.93618 13.4842 9.87217 13.4842 10.8333C13.4842 12.8403 14.2218 14.6906 15.5614 16.0434C16.906 17.4014 18.8129 18.2062 20.9308 18.3094C21.0073 18.3131 21.0832 18.315 21.1586 18.315C23.7545 18.3149 25.7443 16.1614 26.4093 15.3393L35.8104 16.7477L35.3196 18.1014L31.3938 17.0943L31.0856 18.2954L34.895 19.2727L34.4956 20.3744L25.7782 17.7975L25.5571 18.2937C24.4035 20.8821 21.8795 22.5545 19.1268 22.5545C17.8351 22.5545 16.4358 22.1619 15.1869 21.449C13.7638 20.6366 12.6234 19.4555 11.8891 18.0332L10.7872 18.6021C12.0945 21.1342 14.3082 22.6776 16.488 23.3672L15.2531 27.5124L15.2684 27.517H14.9832C13.6427 27.517 12.5487 28.5891 12.5117 29.9208L10.3251 28.5504C9.16755 27.8248 7.6355 28.1764 6.91007 29.334C6.72621 29.6272 6.61031 29.9516 6.56104 30.2845L3.79415 28.5504C2.63652 27.8249 1.10463 28.1765 0.37912 29.3341C0.0276889 29.8948 -0.0843293 30.5588 0.0636505 31.2038C0.21163 31.8488 0.601999 32.3976 1.16267 32.749L6.5903 36.1507L10.0611 36.7069L10.2572 35.4823L7.03524 34.9662L1.82122 31.6982C1.54113 31.5227 1.3462 31.2486 1.27229 30.9264C1.1983 30.6042 1.25435 30.2725 1.42986 29.9925C1.7922 29.4143 2.55748 29.2388 3.1356 29.6011L7.70255 32.4634H14.9829V32.4542H19.436L20.4902 33.8793L21.4872 33.1418L20.0612 31.2142H14.839C14.2268 31.1425 13.75 30.6213 13.75 29.9901C13.75 29.3102 14.3031 28.757 14.9832 28.757H24.8606L29.2667 30.6131H30.6197V36.8121H18.5579L11.5025 35.6817L11.3063 36.9062L18.4591 38.0522H30.6197V38.6722H31.8597V38.0522H39.9201V36.8121H31.8597V30.6132H31.8598ZM3.83317 5.18443C3.83317 4.82705 4.41343 4.42221 5.23575 4.28771L5.36306 6.09951C4.47403 5.98782 3.83317 5.56001 3.83317 5.18443ZM7.96081 29.9925C8.32316 29.4144 9.08844 29.2389 9.66655 29.6012L12.255 31.2234H8.05911L7.85574 31.0959C7.71652 30.7347 7.75314 30.3239 7.96081 29.9925ZM17.6934 23.6643C18.1861 23.7512 18.6679 23.7946 19.1268 23.7946C19.2437 23.7946 19.3602 23.7912 19.4765 23.7861L18.3664 27.5124L18.3816 27.517H16.5456L17.6934 23.6643Z" fill="white"/>
</svg>
