<svg width="69" height="69" viewBox="0 0 69 69" fill="none" xmlns="http://www.w3.org/2000/svg">
<g clip-path="url(#clip0)">
<path d="M51.247 21.9079L49.0868 20.1553L48.0807 22.7509C48.0614 22.8004 46.1289 27.6868 43.1613 26.7966C42.5043 26.5995 42.0635 26.2193 41.7745 25.5999C41.0376 24.0213 41.3511 21.1638 42.5732 18.3202C44.2629 14.3882 43.523 10.268 40.4333 6.4049C38.2599 3.68766 35.6487 2.04268 35.5385 1.9739L32.3746 0L32.4451 3.72866C32.4464 3.79528 32.5145 10.4197 27.6096 12.8489C24.6044 14.3372 22.4532 16.7987 21.5519 19.7802C20.7089 22.5693 21.0629 25.6188 22.5233 28.1467C23.1211 29.1814 23.3022 30.0591 23.0619 30.7552C22.7184 31.7498 21.6088 32.2618 21.2768 32.3951C17.7703 33.8034 15.4749 29.1017 15.3821 28.9077L13.7825 25.4936L11.8224 28.7142C9.30516 32.8497 7.97479 37.6089 7.97479 42.4774C7.97479 56.9956 19.7018 68.8245 34.1814 68.9961C34.2871 68.9988 34.3931 69.0001 34.4995 69.0001H34.4997H34.5001C49.1261 69.0001 61.0252 57.102 61.0252 42.4774C61.0252 34.469 57.4614 26.9718 51.247 21.9079ZM26.2042 56.6595L26.2041 56.6346C26.1843 55.0245 26.4909 53.2979 27.1177 51.4838L32.1035 52.9411L32.1538 50.2956C32.2307 46.2438 34.5156 43.7565 36.3424 42.4109C36.8107 44.4489 37.541 46.2661 38.5494 47.9143C39.6994 49.7906 40.7883 51.3811 41.7928 52.8186C42.438 53.7442 42.804 55.1414 42.7968 56.6519V56.6617C42.7968 58.8766 41.9337 60.9594 40.3665 62.5266C38.8008 64.0921 36.7173 64.9544 34.4997 64.9544C34.4994 64.9544 34.4993 64.9544 34.499 64.9544C29.9268 64.954 26.2058 61.2345 26.2042 56.6595ZM45.6337 61.9982C46.4235 60.3547 46.8419 58.5426 46.8425 56.6658C46.8529 54.3084 46.2382 52.1203 45.1102 50.5029C43.99 48.8993 43.0322 47.4859 41.9996 45.8011C40.8483 43.9197 40.156 41.7024 39.8834 39.0226L39.6168 36.4033L37.1546 37.3357C36.9237 37.4231 34.8379 38.2456 32.7 40.185C30.4328 42.2415 28.9693 44.7847 28.3892 47.6404L24.7731 46.5835L24.0593 48.2115C22.7671 51.1586 22.1276 54.0048 22.1585 56.672C22.1604 58.5809 22.5981 60.3898 23.3772 62.0043C16.5989 58.129 12.0204 50.8279 12.0204 42.4771C12.0204 39.4393 12.631 36.4524 13.8036 33.6909C13.9833 33.8897 14.1746 34.0882 14.3773 34.2835C16.8551 36.6686 19.8407 37.3311 22.784 36.1494C24.7723 35.3512 26.2673 33.8664 26.8858 32.0759C27.3261 30.8011 27.5345 28.7334 26.0262 26.1227C25.1096 24.536 24.8958 22.6991 25.4243 20.9506C25.9987 19.0507 27.4123 17.461 29.4049 16.4741C33.5984 14.3972 35.3127 10.4982 36.012 7.54053C36.4532 7.9745 36.9066 8.46605 37.3328 9.00656C39.4113 11.6419 39.9238 14.2381 38.856 16.7229C37.1481 20.6972 36.8686 24.6554 38.1083 27.3112C38.8871 28.98 40.2325 30.1419 41.9985 30.6717C44.7747 31.5048 47.4898 30.5351 49.644 27.9418C49.9813 27.5359 50.279 27.1226 50.5382 26.7254C54.6585 30.9122 56.9794 36.5285 56.9794 42.4771C56.9795 50.8236 52.4061 58.1213 45.6337 61.9982Z" fill="white"/>
</g>
<defs>
<clipPath id="clip0">
<rect width="69" height="69" fill="white"/>
</clipPath>
</defs>
</svg>
