<svg width="72" height="51" viewBox="0 0 72 51" fill="none" xmlns="http://www.w3.org/2000/svg">
<path d="M64.6899 6.51769C59.7254 2.71553 52.4896 0.705882 43.7647 0.705882C34.5637 0.705882 22.876 2.98306 13.8936 6.94447L8.84315 0H0V42.3529H9.54904L14.4299 35.6417C17.6108 37.0048 21.1101 38.16 24.706 39.0822V41.2333C24.7059 46.5213 29.0081 50.8235 34.2961 50.8235H54.3529V40.497C58.4188 39.5301 61.9105 37.9638 64.6899 35.8351C69.4038 32.2248 72 27.0189 72 21.1765C72 15.334 69.4038 10.1281 64.6899 6.51769ZM62.8595 23.6218C58.4424 24.7928 51.8394 25.4118 43.7647 25.4118C35.7887 25.4118 26.3296 24.8139 18.4615 23.8124C11.3396 22.9059 7.35854 21.901 5.42555 21.1765C7.35854 20.452 11.3397 19.4471 18.4615 18.5406C26.3296 17.5391 35.7887 16.9412 43.7647 16.9412C51.8394 16.9412 58.4424 17.5601 62.8595 18.7312C66.912 19.8055 67.7647 20.9881 67.7647 21.1765C67.7647 21.3648 66.912 22.5474 62.8595 23.6218ZM43.7647 4.94118C55.523 4.94118 63.7429 8.86631 66.6275 15.4993C65.8227 15.1858 64.9288 14.8982 63.9448 14.6373C59.1788 13.3738 52.2006 12.7059 43.7647 12.7059C34.9766 12.7059 24.3644 13.4266 16.0691 14.5871C12.3232 15.1111 9.21402 15.6953 6.79624 16.3276C8.99887 14.1623 12.5473 12.0247 17.1559 10.1624C25.1257 6.94179 35.3215 4.94118 43.7647 4.94118ZM6.68626 4.23529L10.0392 8.84555C7.79633 10.0866 5.82452 11.4517 4.23529 12.9278V4.23529H6.68626ZM7.39214 38.1176H4.23529V29.4251C5.94282 31.0111 8.09238 32.4689 10.5449 33.7827L7.39214 38.1176ZM28.9412 41.2333V40.0526C33.5475 40.9854 38.1688 41.528 42.3529 41.6293V46.5882H34.2961C31.3434 46.5882 28.9412 44.186 28.9412 41.2333ZM50.1176 46.5882H46.5882V41.5729C47.7981 41.5096 48.9757 41.4056 50.1176 41.2602V46.5882ZM43.7647 37.4118C35.3215 37.4118 25.1257 35.4112 17.1559 32.1906C12.5473 30.3282 8.99873 28.1908 6.79624 26.0255C9.21402 26.6578 12.3232 27.242 16.0691 27.766C24.3644 28.9263 34.9766 29.6471 43.7647 29.6471C52.2006 29.6471 59.1788 28.9792 63.9448 27.7156C64.9288 27.4547 65.8227 27.1672 66.6275 26.8536C63.7429 33.4866 55.523 37.4118 43.7647 37.4118Z" fill="white"/>
</svg>
