<svg width="44" height="44" viewBox="0 0 44 44" fill="none" xmlns="http://www.w3.org/2000/svg">
<path d="M14.1584 25.4056V22.877H6.12425V28.2972H8.08285C7.98059 28.0488 7.92206 27.7784 7.92206 27.4958C7.92206 26.9209 8.15839 26.3971 8.53591 26.0195C8.91593 25.6395 9.43731 25.4056 10.0122 25.4056H14.1584ZM22.877 29.844V37.8782H28.2972V35.9171C28.0488 36.0219 27.7784 36.0779 27.4958 36.0779C26.9209 36.0779 26.3972 35.8441 26.0196 35.4641C25.6395 35.0865 25.4057 34.5627 25.4057 33.9878V29.844H22.877ZM21.5883 37.8782V29.844H20.9379C20.5384 29.844 20.0925 29.7832 19.6516 29.5737C19.2034 29.3642 18.7795 29.011 18.4434 28.4384C18.1316 27.9049 17.6809 27.4664 17.1401 27.1619C16.6139 26.8623 15.9999 26.6943 15.3471 26.6943H10.0122C9.79301 26.6943 9.5932 26.7844 9.44702 26.9306C9.30334 27.0768 9.2131 27.2765 9.2131 27.4958C9.2131 27.715 9.30325 27.9147 9.44702 28.0609C9.5932 28.2071 9.79292 28.2972 10.0122 28.2972H14.7089C15.0646 28.2972 15.352 28.5846 15.352 28.9403C15.352 29.2984 15.0645 29.5859 14.7089 29.5859C11.6322 29.5859 8.55534 29.5859 5.47869 29.5859H4.01706C3.79784 29.5859 3.59812 29.676 3.45185 29.8222C3.30816 29.9684 3.21561 30.1681 3.21561 30.3873C3.21561 30.6066 3.30816 30.8064 3.45185 30.9525C3.59803 31.0987 3.80995 31.1913 4.01706 31.1889H11.1936C11.5517 31.1889 11.8392 31.4763 11.8392 31.8319C11.8392 32.1875 11.5517 32.4775 11.1936 32.4775C8.16071 32.4775 5.1254 32.4775 2.09009 32.4775C1.87086 32.4775 1.67105 32.5676 1.52487 32.7138C1.3787 32.8576 1.28855 33.0597 1.28855 33.279C1.28855 33.4984 1.3787 33.698 1.52487 33.8442C1.67105 33.9879 1.87077 34.0805 2.09009 34.0805H11.1936C11.5517 34.0805 11.8392 34.368 11.8392 34.7236C11.8392 35.0793 11.5517 35.3691 11.1936 35.3691H3.07673C2.85751 35.3691 2.65779 35.4593 2.51161 35.603C2.36543 35.7491 2.27528 35.9489 2.27528 36.1705C2.27528 36.3897 2.36543 36.5895 2.51161 36.7357C2.65779 36.8794 2.85751 36.9695 3.07673 36.9695H6.46044H11.1937C11.5518 36.9695 11.8393 37.2594 11.8393 37.6151C11.8393 37.9708 11.5518 38.2607 11.1937 38.2607H6.46044C6.24121 38.2607 6.04149 38.3508 5.89531 38.4946C5.74913 38.6408 5.65898 38.8405 5.65898 39.0598C5.65898 39.2791 5.74913 39.4812 5.89531 39.6249C6.04149 39.7711 6.24121 39.8612 6.46044 39.8612H10.0268C10.3825 39.8612 10.6724 40.1511 10.6724 40.5068C10.6724 40.8625 10.3825 41.1499 10.0268 41.1499H6.46044C5.8856 41.1499 5.36173 40.916 4.9842 40.5384C4.60659 40.1584 4.37035 39.6371 4.37035 39.0598C4.37035 38.7771 4.42879 38.5068 4.53114 38.2607H3.07673C2.5019 38.2607 1.97811 38.0245 1.6005 37.6469C1.22048 37.2669 0.986562 36.7456 0.986562 36.1707C0.986562 35.8126 1.07671 35.4789 1.23509 35.1841C1.00117 35.0793 0.791742 34.9332 0.613852 34.7553C0.236328 34.3751 0 33.8539 0 33.279C0 32.7016 0.236328 32.1803 0.613937 31.8027C0.991547 31.4227 1.51284 31.1889 2.08777 31.1889C1.9855 30.9403 1.92698 30.67 1.92698 30.3873C1.92698 29.8124 2.1633 29.2887 2.54083 28.9111C2.92084 28.5311 3.44214 28.2972 4.01706 28.2972H4.83313V20.8259C4.83313 20.5458 4.76979 20.2924 4.64802 20.0513C4.51894 19.7905 4.31913 19.5372 4.06828 19.2839C3.70047 18.9111 3.3886 18.4727 3.17178 17.9879C2.96716 17.5276 2.8502 17.0306 2.8502 16.5116V12.9477C2.8502 12.5896 3.14016 12.3021 3.49577 12.3021C3.85146 12.3021 4.13892 12.5896 4.13892 12.9477V16.5116C4.13892 16.8479 4.21438 17.1694 4.34595 17.4641C4.49453 17.7954 4.71625 18.1048 4.9842 18.3752C5.3277 18.7236 5.60545 19.0841 5.80276 19.4788C6.00987 19.8953 6.12434 20.3387 6.12434 20.8259V21.5884H14.1585V20.9381C14.1585 20.5385 14.2193 20.0927 14.4264 19.6518C14.6359 19.2036 14.9891 18.7797 15.5641 18.4436C16.0951 18.1318 16.536 17.681 16.8406 17.1402C17.1377 16.6141 17.3058 16.0001 17.3058 15.3473V14.8016V10.0124C17.3058 9.79318 17.2157 9.59338 17.0695 9.4472C16.9257 9.30351 16.726 9.21336 16.5043 9.21336C16.2851 9.21336 16.0853 9.30351 15.9392 9.4472C15.7955 9.59338 15.7053 9.79309 15.7053 10.0124V14.7091C15.7053 15.0648 15.4154 15.3521 15.0598 15.3521C14.7041 15.3521 14.4142 15.0647 14.4142 14.7091C14.4142 11.6323 14.4142 8.55559 14.4142 5.47886V4.01706C14.4142 3.79784 14.3241 3.59812 14.1804 3.45185C14.0342 3.30816 13.8345 3.21552 13.6153 3.21552C13.3935 3.21552 13.1938 3.30808 13.05 3.45185C12.9039 3.59803 12.8137 3.79775 12.8137 4.01706V11.1937C12.8137 11.5518 12.5238 11.8393 12.1681 11.8393C11.8125 11.8393 11.5251 11.5518 11.5251 11.1937C11.5251 8.1608 11.5251 5.12548 11.5251 2.09017C11.5251 1.87095 11.4325 1.67114 11.2888 1.52496C11.1427 1.37878 10.9429 1.28863 10.7236 1.28863C10.5044 1.28863 10.3022 1.37878 10.1585 1.52496C10.0123 1.67114 9.92226 1.87095 9.92226 2.09017V11.1937C9.92226 11.5518 9.6323 11.8393 9.27661 11.8393C8.921 11.8393 8.63354 11.5518 8.63354 11.1937V3.07673C8.63354 2.85751 8.54339 2.65779 8.3973 2.51161C8.25112 2.36543 8.0514 2.27528 7.83217 2.27528C7.61295 2.27528 7.41314 2.36534 7.26696 2.51161C7.12078 2.65779 7.03063 2.85751 7.03063 3.07673V6.46044V11.1937C7.03063 11.5518 6.74317 11.8393 6.38507 11.8393C6.02938 11.8393 5.742 11.5518 5.742 11.1937V6.46044C5.742 6.24121 5.65185 6.04141 5.50567 5.89531C5.35949 5.74913 5.15977 5.65907 4.94046 5.65907C4.72123 5.65907 4.52152 5.74922 4.37534 5.89531C4.22916 6.04149 4.13901 6.24121 4.13901 6.46044V10.0268C4.13901 10.3825 3.85155 10.6724 3.49585 10.6724C3.14024 10.6724 2.85029 10.3825 2.85029 10.0268V6.46044C2.85029 5.8856 3.08653 5.36173 3.46423 4.9842C3.84184 4.60659 4.36554 4.37035 4.94046 4.37035C5.22302 4.37035 5.49588 4.42879 5.742 4.53114V3.07673C5.742 2.50181 5.97584 1.97811 6.35585 1.6005C6.73346 1.22048 7.25716 0.986648 7.83209 0.986648C8.1877 0.986648 8.52388 1.0768 8.81624 1.23518C8.921 1.00134 9.06718 0.791828 9.24748 0.614023C9.62483 0.236328 10.1486 0 10.7235 0C11.2985 0 11.8222 0.236328 12.1998 0.613937C12.5774 0.991461 12.8112 1.51284 12.8136 2.08777C13.0598 1.98541 13.3301 1.92698 13.6152 1.92698C14.19 1.92698 14.7114 2.1633 15.0914 2.54083C15.469 2.92084 15.7053 3.44214 15.7053 4.01706V4.83313H23.1742C23.4544 4.83313 23.7102 4.76979 23.949 4.64802C24.2096 4.51894 24.463 4.31913 24.7188 4.06828C25.0915 3.70047 25.5276 3.3886 26.0147 3.17178C26.4752 2.96716 26.9697 2.8502 27.4886 2.8502H31.055C31.4107 2.8502 31.6981 3.14007 31.6981 3.49577C31.6981 3.85146 31.4107 4.13884 31.055 4.13884H27.4886C27.1524 4.13884 26.8333 4.21438 26.5385 4.34595C26.2048 4.49453 25.8955 4.71625 25.625 4.9842C25.2791 5.3277 24.9185 5.60545 24.524 5.80276C24.1074 6.00987 23.664 6.12434 23.1743 6.12434H22.4118V14.1585H23.0622C23.4617 14.1585 23.9075 14.2193 24.3509 14.4264C24.7967 14.6359 25.2206 14.9891 25.5567 15.5641C25.8685 16.0951 26.3216 16.5361 26.86 16.8406C27.3861 17.1377 28.0026 17.3058 28.6529 17.3058H29.1986H33.9879C34.2072 17.3058 34.407 17.2157 34.5531 17.0696C34.6992 16.9259 34.7894 16.7261 34.7894 16.5044C34.7894 16.2852 34.6992 16.0854 34.5531 15.9393C34.4069 15.7956 34.2072 15.7054 33.9879 15.7054H29.2935C28.9354 15.7054 28.648 15.4155 28.648 15.0599C28.648 14.7043 28.9354 14.4143 29.2935 14.4143H38.5237H39.9829C40.2022 14.4143 40.4019 14.3241 40.5481 14.1805C40.6943 14.0343 40.7845 13.8346 40.7845 13.6153C40.7845 13.3936 40.6943 13.1939 40.5481 13.0501C40.402 12.9039 40.19 12.8089 39.9829 12.8138H32.8064C32.4507 12.8138 32.1608 12.5239 32.1608 12.1682C32.1608 11.8125 32.4508 11.5252 32.8064 11.5252H41.9099C42.1291 11.5252 42.3314 11.4326 42.4751 11.2888C42.6213 11.1427 42.7114 10.9429 42.7114 10.7236C42.7114 10.5044 42.6212 10.3022 42.4751 10.1585C42.3314 10.0123 42.1292 9.92217 41.9099 9.92217C38.877 9.92217 35.8417 9.92217 32.8064 9.92217C32.4507 9.92217 32.1608 9.6323 32.1608 9.27661C32.1608 8.92091 32.4508 8.63345 32.8064 8.63345H40.9258C41.145 8.63345 41.3447 8.5433 41.4909 8.39713C41.6347 8.25095 41.7248 8.05123 41.7248 7.832C41.7248 7.61277 41.6347 7.41297 41.4909 7.26679C41.3447 7.12061 41.145 7.03055 40.9258 7.03055H37.5396H32.8064C32.4507 7.03055 32.1608 6.74309 32.1608 6.38498C32.1608 6.02929 32.4508 5.74191 32.8064 5.74191H37.5396C37.7589 5.74191 37.9611 5.65177 38.1048 5.50559C38.251 5.35941 38.3411 5.15969 38.3411 4.94037C38.3411 4.72115 38.251 4.52143 38.1048 4.37525C37.9611 4.22907 37.7589 4.13892 37.5396 4.13892H33.9732C33.6175 4.13892 33.3302 3.85146 33.3302 3.49585C33.3302 3.14016 33.6176 2.85029 33.9732 2.85029H37.5396C38.117 2.85029 38.6383 3.08662 39.0159 3.46423C39.3959 3.84184 39.6298 4.36554 39.6298 4.94046C39.6298 5.22302 39.5738 5.49588 39.4714 5.742H40.9258C41.5006 5.742 42.022 5.97584 42.402 6.35585C42.7796 6.73346 43.0159 7.25716 43.0159 7.83209C43.0159 8.1877 42.9258 8.52388 42.7674 8.81624C42.9988 8.921 43.2083 9.06718 43.3886 9.24748C43.7661 9.62509 44 10.1488 44 10.7237C44 11.2986 43.7661 11.8223 43.3886 12.1999C43.0085 12.5776 42.4872 12.8114 41.9123 12.8138C42.0171 13.0599 42.0731 13.3303 42.0731 13.6153C42.0731 14.1902 41.8393 14.7116 41.4593 15.0916C41.0816 15.4692 40.5579 15.7055 39.983 15.7055H39.167V21.7688V23.1744C39.167 23.4546 39.2328 23.7104 39.3522 23.9491C39.4836 24.2098 39.681 24.4631 39.9319 24.719C40.3022 25.0917 40.6116 25.5277 40.8284 26.0149C41.033 26.4754 41.15 26.9699 41.15 27.4887V31.0551C41.15 31.4108 40.8625 31.6982 40.5069 31.6982C40.1512 31.6982 39.8613 31.4108 39.8613 31.0551V27.4887C39.8613 27.1525 39.7859 26.8334 39.6543 26.5386C39.5081 26.2048 39.284 25.8955 39.0161 25.6251C38.675 25.2792 38.3972 24.9186 38.2 24.524C37.9905 24.1074 37.8784 23.6641 37.8784 23.1744V22.4119H29.8443V23.0623C29.8443 23.4618 29.7834 23.9076 29.5739 24.351C29.3644 24.7967 29.0112 25.2207 28.4388 25.5568C27.9053 25.8686 27.4667 26.3217 27.1623 26.8601C26.8626 27.3862 26.6945 28.0026 26.6945 28.653V29.1987V33.9879C26.6945 34.2072 26.7847 34.407 26.9307 34.5531C27.0769 34.6993 27.2766 34.7895 27.496 34.7895C27.7153 34.7895 27.915 34.6993 28.0612 34.5531C28.2074 34.407 28.2974 34.2072 28.2974 33.9879V29.2935C28.2974 28.9354 28.5849 28.648 28.9405 28.648C29.2986 28.648 29.586 28.9354 29.586 29.2935V38.5237V39.9829C29.586 40.2022 29.6762 40.402 29.8223 40.5481C29.9685 40.6943 30.1682 40.7845 30.3874 40.7845C30.6066 40.7845 30.8064 40.6943 30.9526 40.5481C31.0988 40.402 31.1914 40.19 31.1889 39.9829V32.8064C31.1889 32.4507 31.4763 32.1608 31.832 32.1608C32.1877 32.1608 32.4776 32.4508 32.4776 32.8064V41.9099C32.4776 42.1291 32.5677 42.3314 32.7139 42.475C32.8576 42.6212 33.0598 42.7114 33.279 42.7114C33.4983 42.7114 33.698 42.6212 33.8442 42.475C33.9879 42.3314 34.0805 42.1291 34.0805 41.9099C34.0805 38.877 34.0805 35.8417 34.0805 32.8064C34.0805 32.4507 34.368 32.1608 34.7236 32.1608C35.0793 32.1608 35.3691 32.4508 35.3691 32.8064V40.9257C35.3691 41.1449 35.4593 41.3446 35.603 41.4908C35.7491 41.6346 35.9489 41.7247 36.1706 41.7247C36.3898 41.7247 36.5895 41.6346 36.7357 41.4908C36.8794 41.3446 36.9695 41.1449 36.9695 40.9257V37.5396V32.8063C36.9695 32.4506 37.2595 32.1607 37.6151 32.1607C37.9708 32.1607 38.2607 32.4507 38.2607 32.8063V37.5396C38.2607 37.7588 38.3507 37.961 38.4945 38.1048C38.6407 38.2509 38.8405 38.341 39.0597 38.341C39.2789 38.341 39.4811 38.2509 39.6248 38.1048C39.771 37.961 39.8612 37.7588 39.8612 37.5396V33.9732C39.8612 33.6175 40.1511 33.3301 40.5067 33.3301C40.8623 33.3301 41.1498 33.6175 41.1498 33.9732V37.5396C41.1498 38.1169 40.916 38.6383 40.5384 39.0158C40.1583 39.3958 39.637 39.6296 39.0596 39.6296C38.7771 39.6296 38.5066 39.5736 38.2606 39.4714V40.9257C38.2606 41.5006 38.0243 42.0219 37.6467 42.4019C37.2667 42.7796 36.7454 43.0158 36.1705 43.0158C35.8124 43.0158 35.4786 42.9257 35.1839 42.7674C35.0792 42.9988 34.933 43.2083 34.7551 43.3886C34.3751 43.7661 33.8538 44 33.2789 44C32.7015 44 32.1802 43.7661 31.8026 43.3886C31.4226 43.0085 31.1887 42.4872 31.1887 41.9123C30.9402 42.0171 30.6698 42.0731 30.3872 42.0731C29.8123 42.0731 29.2886 41.8392 28.911 41.4593C28.531 41.0816 28.2971 40.5579 28.2971 39.983V39.167H22.2337H20.8258C20.5456 39.167 20.2922 39.2328 20.051 39.3521C19.7904 39.4836 19.537 39.681 19.2837 39.9319C18.911 40.3022 18.4725 40.6116 17.9877 40.8284C17.5274 41.033 17.0304 41.15 16.5115 41.15H12.9475C12.5894 41.15 12.302 40.8625 12.302 40.5069C12.302 40.1512 12.5894 39.8613 12.9475 39.8613H16.5115C16.8477 39.8613 17.1693 39.7858 17.464 39.6542C17.7952 39.508 18.1046 39.2839 18.3751 39.016C18.7235 38.6749 19.084 38.3972 19.4786 38.1999C19.8951 37.9904 20.3386 37.8783 20.8258 37.8783H21.5883V37.8782ZM21.123 14.1584V6.12425H15.7052V8.08277C15.9513 7.9805 16.2216 7.92198 16.5042 7.92198C17.0816 7.92198 17.6029 8.15822 17.9829 8.53583C18.3605 8.91584 18.5944 9.43723 18.5944 10.0121V14.1583H21.123V14.1584ZM29.844 21.123H37.8782V15.7052H35.9171C36.0219 15.9513 36.0779 16.2216 36.0779 16.5042C36.0779 17.0816 35.844 17.6029 35.4641 17.9829C35.0865 18.3605 34.5627 18.5944 33.9879 18.5944H29.8441V21.123H29.844ZM25.4056 28.5554C25.4226 27.7174 25.6517 26.9232 26.0439 26.2314C26.4604 25.4933 27.0597 24.8769 27.7881 24.4507C28.112 24.2607 28.3021 24.0365 28.4117 23.8051C28.5213 23.5712 28.5554 23.3081 28.5554 23.0621V18.5944C27.7174 18.5774 26.9232 18.3483 26.2314 17.9586C25.4933 17.5421 24.8769 16.9403 24.4507 16.2144C24.2607 15.8904 24.0365 15.6979 23.8051 15.5908C23.5712 15.4787 23.3081 15.4471 23.0621 15.4471H21.7686H18.5944C18.5774 16.2827 18.3483 17.0768 17.9586 17.7711C17.5421 18.5068 16.9403 19.1256 16.2144 19.5518C15.8904 19.7418 15.698 19.9659 15.5908 20.1949C15.4787 20.4312 15.4471 20.6919 15.4471 20.9379V22.2338V25.4056C16.2827 25.4226 17.0768 25.6517 17.7711 26.0439C18.5068 26.4604 19.1256 27.0597 19.5518 27.7881C19.7418 28.112 19.9659 28.3021 20.195 28.4117C20.4313 28.5213 20.6919 28.5554 20.938 28.5554H22.2339H25.4056Z" fill="#FF0000"/>
</svg>
