<svg width="44" height="44" viewBox="0 0 44 44" fill="none" xmlns="http://www.w3.org/2000/svg">
<g clip-path="url(#clip0)">
<path d="M7.8149 16.7663C7.8149 15.9478 8.14868 15.2024 8.68948 14.664C9.22788 14.1232 9.9733 13.7895 10.7918 13.7895C11.6127 13.7895 12.3557 14.1232 12.8966 14.664C13.435 15.2024 13.7711 15.9477 13.7711 16.7663C13.7711 17.5604 13.8125 18.3034 13.8831 19.0074H15.4032C15.866 19.0074 16.285 18.8198 16.5895 18.5153C16.894 18.2109 17.084 17.7894 17.084 17.329V14.9076C17.084 14.5519 17.3715 14.262 17.7296 14.262H20.1511C20.6114 14.262 21.0329 14.0744 21.3374 13.7676C21.6419 13.4631 21.8319 13.044 21.8319 12.5837C21.8319 12.1208 21.6419 11.7019 21.3374 11.3973C21.0329 11.0927 20.6115 10.9028 20.1511 10.9028H17.7296C17.3715 10.9028 17.084 10.6154 17.084 10.2598V7.8358C17.084 7.37535 16.894 6.9564 16.5895 6.65184C16.285 6.34736 15.866 6.15736 15.4032 6.15736H12.9818C12.6261 6.15736 12.3386 5.86749 12.3386 5.51179V3.09033C12.3386 2.62747 12.1486 2.20853 11.8442 1.90397C11.5396 1.59949 11.1182 1.40948 10.6578 1.40948C10.1973 1.40948 9.7784 1.59949 9.47143 1.90397C9.16687 2.20844 8.97927 2.62747 8.97927 3.09033V5.51179C8.97927 5.86749 8.6894 6.15736 8.3337 6.15736H5.91233C5.45187 6.15736 5.03044 6.34736 4.72596 6.65184C4.42148 6.9564 4.23148 7.37535 4.23148 7.8358V17.329C4.23148 17.7894 4.42148 18.2109 4.72596 18.5153C5.03044 18.8198 5.45187 19.0074 5.91233 19.0074H7.8149V16.7663ZM36.1852 23.7722C36.1852 24.1279 35.8977 24.4153 35.5421 24.4153C35.1865 24.4153 34.8966 24.1278 34.8966 23.7722V19.6529V16.7663C34.8966 16.3034 34.7065 15.8796 34.3996 15.5751C34.0951 15.2681 33.6712 15.0781 33.2084 15.0781C32.7455 15.0781 32.3216 15.2681 32.0171 15.5751C31.7102 15.8796 31.5202 16.3035 31.5202 16.7663C31.5202 18.7906 31.2474 20.564 30.8966 22.5469C30.6432 23.9842 30.4069 25.3313 30.4069 26.7466C30.4069 28.4933 30.8991 31.6625 32.5506 32.7733C32.7309 32.8927 32.8356 33.0924 32.8356 33.3067L32.838 35.012H39.3861C39.7418 33.6137 40.2411 32.4785 40.7504 31.319C41.7126 29.1315 42.7114 26.8587 42.7114 22.5176C42.7114 19.9964 42.363 17.6505 41.7612 15.6748C41.3861 14.4398 40.9136 13.3533 40.3703 12.4641V17.3289C40.3703 18.1449 40.0365 18.888 39.4982 19.4264C38.9598 19.9647 38.2192 20.2985 37.4008 20.2985H36.1852V23.7722ZM36.1852 16.7663V19.0074H37.4008C37.8636 19.0074 38.2827 18.8198 38.5871 18.5153C38.8917 18.2109 39.0817 17.7894 39.0817 17.329V7.8358C39.0817 7.37535 38.8917 6.9564 38.5871 6.65184C38.2827 6.34736 37.8636 6.15736 37.4008 6.15736H34.9794C34.6237 6.15736 34.3337 5.86749 34.3337 5.51179V3.09033C34.3337 2.62747 34.1462 2.20853 33.8417 1.90397C33.5372 1.59949 33.1157 1.40948 32.6552 1.40948C32.1949 1.40948 31.7734 1.59949 31.4689 1.90397C31.1644 2.20844 30.9744 2.62747 30.9744 3.09033V5.51179C30.9744 5.86749 30.6869 6.15736 30.3313 6.15736H27.9099C27.447 6.15736 27.028 6.34736 26.7236 6.65184C26.419 6.9564 26.229 7.37535 26.229 7.8358V9.61411H28.0073C28.8258 9.61411 29.5664 9.9478 30.1047 10.4862C30.6431 11.0246 30.9768 11.7651 30.9768 12.5836C30.9768 13.3997 30.643 14.1427 30.1047 14.681C29.5663 15.2169 28.8258 15.5507 28.0073 15.5507H26.229V17.329C26.229 17.7894 26.419 18.2109 26.7236 18.5153C27.028 18.8198 27.447 19.0074 27.9099 19.0074H30.1194C30.1876 18.3034 30.2315 17.5604 30.2315 16.7663C30.2315 15.9478 30.5652 15.2024 31.106 14.664C31.6444 14.1232 32.3898 13.7895 33.2084 13.7895C34.0294 13.7895 34.7723 14.1232 35.3131 14.664C35.8514 15.2023 36.1852 15.9477 36.1852 16.7663ZM7.8149 20.2985H5.91233C5.09377 20.2985 4.35325 19.9647 3.81485 19.4264C3.27645 18.888 2.94276 18.1449 2.94276 17.3289V13.7065C2.59196 14.469 2.28748 15.3289 2.03895 16.2668C1.55659 18.0962 1.28863 20.2204 1.28863 22.5176C1.28863 26.8587 2.28748 29.1315 3.24964 31.319C3.75873 32.4785 4.25812 33.6137 4.61381 35.012H11.1619V33.3068C11.1619 33.0998 11.2642 32.8976 11.4494 32.7734C13.1034 31.6626 13.5956 28.4933 13.5956 26.7467C13.5956 25.3314 13.3568 23.9842 13.1035 22.547C12.7551 20.5641 12.4823 18.7907 12.4823 16.7663C12.4823 16.3035 12.2922 15.8796 11.9853 15.5752C11.6783 15.2682 11.2569 15.0782 10.7916 15.0782C10.3287 15.0782 9.9073 15.2682 9.60042 15.5752C9.29345 15.8797 9.10336 16.3036 9.10336 16.7663V19.653V23.7723C9.10336 24.128 8.8159 24.4154 8.46029 24.4154C8.10219 24.4154 7.81473 24.1279 7.81473 23.7723V20.2985H7.8149ZM34.5847 42.5881C34.9404 42.5881 35.2303 42.878 35.2303 43.2336C35.2303 43.5892 34.9404 43.8792 34.5847 43.8792H29.9391C29.5834 43.8792 29.2935 43.5892 29.2935 43.2336V37.9109C29.2935 37.1143 29.62 36.3884 30.1462 35.8623C30.5262 35.4822 31.0085 35.207 31.5493 35.0851V33.626C29.715 32.1083 29.1181 28.9537 29.1181 26.7466C29.1181 25.2241 29.3642 23.8209 29.6273 22.3277C29.7442 21.6748 29.8611 21.0025 29.9634 20.2985H27.9099C27.0914 20.2985 26.3508 19.9648 25.8125 19.4264C25.274 18.8881 24.9404 18.145 24.9404 17.329V14.9076C24.9404 14.5519 25.2279 14.262 25.586 14.262H28.0075C28.4678 14.262 28.8894 14.0744 29.1938 13.7676C29.4983 13.4631 29.6883 13.044 29.6883 12.5837C29.6883 12.1208 29.4983 11.7019 29.1938 11.3973C28.8894 11.0927 28.4679 10.9028 28.0075 10.9028H25.586C25.2279 10.9028 24.9404 10.6154 24.9404 10.2598V7.8358C24.9404 7.01974 25.2741 6.27672 25.8125 5.74082C26.3508 5.20251 27.0914 4.86872 27.9099 4.86872H29.6858V3.09033C29.6858 2.27187 30.0195 1.53126 30.5578 0.992943C31.0962 0.454545 31.8392 0.12085 32.6552 0.12085C33.4714 0.12085 34.2144 0.454545 34.7527 0.992943C35.2911 1.53134 35.6248 2.27187 35.6248 3.09033V4.86864H37.4006C38.2191 4.86864 38.9597 5.20233 39.498 5.74073C40.0364 6.27664 40.3702 7.01965 40.3702 7.83572V10.3302C41.4494 11.4922 42.3556 13.2169 42.9914 15.3021C43.6297 17.4044 44 19.8794 44 22.5176C44 27.1242 42.9452 29.5261 41.9293 31.8379C41.469 32.8854 41.0158 33.911 40.6893 35.1216C41.1693 35.2605 41.6005 35.5188 41.9439 35.8623C42.4701 36.3884 42.7966 37.1144 42.7966 37.9109V43.2336C42.7966 43.5892 42.5067 43.8792 42.1511 43.8792H37.5054C37.1497 43.8792 36.8598 43.5892 36.8598 43.2336C36.8598 42.8779 37.1497 42.5881 37.5054 42.5881H41.5078V37.9109C41.5078 37.47 41.3251 37.0656 41.0328 36.7733C40.7406 36.4833 40.3385 36.3006 39.8976 36.3006H32.1948C31.7514 36.3006 31.3495 36.4809 31.0572 36.7733C30.7649 37.0656 30.5846 37.47 30.5846 37.9109V42.5881H34.5847ZM9.4154 43.8792C9.0597 43.8792 8.77224 43.5892 8.77224 43.2336C8.77224 42.8779 9.0597 42.5881 9.4154 42.5881H13.4179V37.9109C13.4179 37.47 13.2351 37.0656 12.9428 36.7733C12.6504 36.4809 12.2485 36.3006 11.8076 36.3006H4.1048C3.67606 36.3006 3.26923 36.4711 2.96716 36.7733C2.6748 37.0656 2.49451 37.47 2.49451 37.9109V42.5881H6.49696C6.85266 42.5881 7.14012 42.878 7.14012 43.2336C7.14012 43.5892 6.85266 43.8792 6.49696 43.8792H1.84903C1.49334 43.8792 1.20587 43.5892 1.20587 43.2336V37.9109C1.20587 37.1143 1.53227 36.3884 2.05614 35.8623C2.40204 35.5188 2.83078 35.2606 3.31066 35.1216C2.98427 33.911 2.53361 32.8854 2.07316 31.8379C1.0548 29.5262 0 27.1242 0 22.5176C0 20.1133 0.282648 17.8795 0.796555 15.938C1.30084 14.0281 2.03405 12.396 2.94276 11.1683V7.8358C2.94276 7.01974 3.27645 6.27672 3.81485 5.74082C4.35325 5.20251 5.09377 4.86872 5.91233 4.86872H7.69063V3.09033C7.69063 2.27187 8.02433 1.53126 8.56032 0.992943C9.09863 0.454545 9.84173 0.12085 10.6578 0.12085C11.4763 0.12085 12.2169 0.454545 12.7552 0.992943C13.2936 1.53134 13.6273 2.27187 13.6273 3.09033V4.86864H15.4032C16.2216 4.86864 16.9648 5.20233 17.5007 5.74073C18.0391 6.27664 18.3728 7.01965 18.3728 7.83572V9.61402H20.1511C20.9672 9.61402 21.7102 9.94772 22.2485 10.4861C22.7869 11.0245 23.1205 11.765 23.1205 12.5835C23.1205 13.3996 22.7868 14.1426 22.2485 14.6809C21.7101 15.2168 20.9671 15.5506 20.1511 15.5506H18.3728V17.3289C18.3728 18.1449 18.0391 18.888 17.5007 19.4264C16.9648 19.9647 16.2217 20.2985 15.4032 20.2985H14.039C14.1389 21.0025 14.2582 21.6748 14.3727 22.3276C14.6358 23.8209 14.8843 25.2241 14.8843 26.7465C14.8843 28.9536 14.285 32.1082 12.4506 33.6259V35.085C12.9914 35.2068 13.4762 35.4821 13.8562 35.8622C14.3799 36.3883 14.7064 37.1143 14.7064 37.9108V43.2335C14.7064 43.5891 14.4189 43.8791 14.0633 43.8791H9.4154V43.8792Z" fill="#FF0000"/>
</g>
<defs>
<clipPath id="clip0">
<rect width="44" height="44" fill="white"/>
</clipPath>
</defs>
</svg>
