<svg width="44" height="44" viewBox="0 0 44 44" fill="none" xmlns="http://www.w3.org/2000/svg">
<g clip-path="url(#clip0)">
<circle cx="22" cy="22" r="36.5" stroke="#FF0000"/>
<path d="M1.30017 32.0754H5.47046V42.5332H1.30017V32.0754ZM2.44992 12.4045C2.53277 12.4873 2.61802 12.5676 2.70817 12.6432C2.49865 12.8113 2.30864 13.0062 2.14545 13.223C1.75572 13.737 1.50719 14.3777 1.43655 15.0646L0.013855 28.8769C-0.0567017 29.5614 0.143021 30.2337 0.561966 30.7916C0.250183 30.8379 0.00895691 31.1058 0.00895691 31.4298V43.1788C0.00895691 43.5344 0.298912 43.8218 0.654518 43.8218H6.11602C6.47171 43.8218 6.75909 43.5344 6.75909 43.1788V32.0754H10.1913L8.04042 40.0826C7.82368 40.889 7.92105 41.6028 8.21831 42.1898C8.55441 42.8573 9.14635 43.342 9.82354 43.6027C10.5738 43.8902 11.4191 43.9048 12.1622 43.5856C13.005 43.2251 13.5555 42.4967 13.7895 41.6246L16.9464 29.8683C17.1949 28.9475 17.0195 28.0048 16.4081 27.2569C15.7966 26.5139 14.8685 26.1193 13.9161 26.1193H8.43264L8.95874 21.0183C9.2096 21.3886 9.48984 21.659 9.89899 21.8539V24.056C9.89899 24.4117 10.1865 24.6991 10.5421 24.6991H18.8856V43.1788C18.8856 43.5345 19.1729 43.8219 19.5285 43.8219H24.4712C24.8268 43.8219 25.1167 43.5345 25.1167 43.1788V35.0766C25.1167 34.721 24.8268 34.431 24.4712 34.431C24.1155 34.431 23.8281 34.721 23.8281 35.0766V42.5332H20.1741V24.6991H23.8281V32.1558C23.8281 32.5139 24.1155 32.8014 24.4712 32.8014C24.8268 32.8014 25.1167 32.5139 25.1167 32.1558V24.6991H33.4576C33.8132 24.6991 34.103 24.4116 34.103 24.056V21.8539C34.5099 21.6615 34.79 21.3886 35.0433 21.0183L35.5671 26.1193H30.0861C29.1434 26.1193 28.2153 26.5042 27.6014 27.2326C26.9681 27.9854 26.8025 28.933 27.0533 29.8684L30.2103 41.6247C30.4442 42.4968 30.9972 43.2252 31.8375 43.5857C32.583 43.9048 33.4258 43.8902 34.1761 43.6028C34.8533 43.3421 35.4453 42.8574 35.7814 42.1899C36.0786 41.6028 36.176 40.889 35.9592 40.0827L33.8083 32.0731H37.2406V43.1789C37.2406 43.5345 37.5305 43.822 37.8862 43.822H43.3452C43.7033 43.822 43.9907 43.5345 43.9907 43.1789V31.4298C43.9907 31.1058 43.752 30.8379 43.4402 30.7916C43.8592 30.2337 44.0566 29.5711 43.9859 28.8769L43.1894 21.1279C43.1529 20.7747 42.8362 20.5164 42.4829 20.553C42.1297 20.5895 41.8739 20.9062 41.9105 21.2595L42.3465 25.4932L36.8534 26.0584L36.1665 19.3715L37.9422 16.7625C38.1444 16.4677 38.0689 16.0682 37.7741 15.8685C37.4818 15.6688 37.0798 15.7442 36.8801 16.0366L33.9374 20.3581C33.8449 20.4945 33.7207 20.5993 33.5842 20.6724C33.46 20.7382 33.3285 20.7772 33.1969 20.7869H26.9754C26.705 20.7845 26.4614 20.6773 26.286 20.4994C26.1082 20.3216 25.9985 20.078 25.9985 19.8076C25.9985 19.5373 26.1081 19.2911 26.286 19.1133C26.4638 18.9379 26.7074 18.8283 26.9778 18.8283H32.2737C32.4783 18.8259 32.6805 18.7284 32.8048 18.5457L36.0982 13.7127C36.2517 13.4886 36.4832 13.3424 36.7535 13.2985C37.2894 13.5373 37.8814 13.6713 38.505 13.6713C39.0409 13.6713 39.5573 13.5714 40.0348 13.3911C40.3613 13.5129 40.6414 13.737 40.8532 14.0294C41.0872 14.3533 41.2406 14.7578 41.2845 15.1962L41.6109 18.3533C41.6474 18.7065 41.9617 18.9648 42.3148 18.9282C42.668 18.8917 42.9262 18.575 42.8897 18.2218L42.5633 15.0647C42.4951 14.4021 42.2588 13.7809 41.891 13.2742C41.718 13.038 41.5159 12.826 41.2894 12.6458C42.2564 11.8248 42.8192 10.6287 42.8192 9.35711V5.4253C42.8192 4.68228 42.5146 4.0075 42.025 3.51791C41.5378 3.03074 40.863 2.72617 40.12 2.72617H36.8875C36.147 2.72617 35.4722 3.03065 34.9825 3.51791C34.4928 4.0075 34.1909 4.68228 34.1909 5.4253V9.35702C34.1909 10.5361 34.6731 11.6566 35.5233 12.4703C35.3382 12.614 35.1726 12.787 35.0361 12.9867L31.9352 17.5372H26.978C26.3519 17.5372 25.7844 17.793 25.3751 18.2021C24.9635 18.6139 24.7101 19.1815 24.7101 19.8075C24.7101 20.1583 24.7905 20.4896 24.9318 20.7868H19.0683C19.212 20.4896 19.2924 20.1583 19.2924 19.8075C19.2924 19.1815 19.0366 18.6139 18.6274 18.2021C18.2158 17.7929 17.6481 17.5372 17.0221 17.5372H12.0649L8.96622 12.9867C8.82735 12.7845 8.66175 12.6116 8.47664 12.4703C8.50105 12.4484 8.52296 12.4265 8.54487 12.4045C9.32682 11.6225 9.8115 10.5433 9.8115 9.35694V5.4253C9.8115 4.68228 9.50703 4.0075 9.01976 3.51791C8.53026 3.03074 7.8554 2.72617 7.11246 2.72617H3.88233C3.1394 2.72617 2.46462 3.03065 1.97504 3.51791C1.48545 4.0075 1.18329 4.68228 1.18329 5.4253V9.35702C1.18312 10.5044 1.63868 11.5933 2.44992 12.4045ZM2.63744 10.3388C2.85418 10.3753 3.06137 10.3972 3.2586 10.4069C4.25487 10.4581 5.0076 10.195 5.57521 9.73704C6.13553 9.28638 6.48864 8.66033 6.70065 7.97094C6.75909 7.78093 6.80782 7.58362 6.84434 7.3839C7.28769 7.57391 7.8627 7.72009 8.52279 7.65675V9.35711C8.52279 10.1878 8.1817 10.9454 7.63359 11.4935C7.08308 12.0416 6.32794 12.3827 5.49727 12.3827C4.66651 12.3827 3.90897 12.0416 3.36095 11.4935C3.03946 11.1719 2.78852 10.7772 2.63744 10.3388ZM8.52287 6.36313C7.59475 6.50931 6.91266 5.97581 6.78109 5.86375C6.64952 5.75169 6.53505 5.68345 6.35475 5.67615C5.99906 5.65913 5.69948 5.93439 5.68246 6.28759C5.66047 6.73335 5.59722 7.18401 5.47046 7.59324C5.32926 8.0561 5.10746 8.46293 4.76895 8.7357C4.43766 9.00365 3.9675 9.15473 3.31721 9.12302C3.06387 9.11081 2.7813 9.06948 2.47184 8.99634V5.4253C2.47184 5.03798 2.63022 4.68469 2.88597 4.42894C3.14181 4.1731 3.49493 4.01481 3.88224 4.01481H7.11238C7.49979 4.01481 7.8505 4.1731 8.10625 4.42894C8.36208 4.68469 8.52287 5.03789 8.52287 5.4253V6.36313ZM41.5279 8.99652C41.2186 9.06965 40.9384 9.11098 40.6826 9.12319C40.0322 9.1549 39.5644 9.00382 39.2307 8.73587C38.8946 8.46302 38.6704 8.05627 38.5292 7.59341C38.4025 7.18418 38.3416 6.73352 38.3196 6.28777C38.3026 5.93456 38.0006 5.65931 37.6474 5.67632C37.4622 5.68363 37.3501 5.75427 37.2186 5.86392C37.0797 5.98329 36.4001 6.50699 35.4793 6.36331V5.4253C35.4793 5.03798 35.6377 4.68469 35.8935 4.42894C36.1493 4.1731 36.5025 4.01481 36.8873 4.01481H40.1199C40.5073 4.01481 40.8581 4.1731 41.1138 4.42894C41.3696 4.68469 41.5279 5.03789 41.5279 5.4253V8.99652ZM35.4794 7.65666C36.1396 7.72 36.712 7.57382 37.1554 7.38381C37.1944 7.58353 37.2406 7.78084 37.3015 7.97085C37.5135 8.66024 37.8667 9.2863 38.427 9.73695C38.9922 10.1949 39.7472 10.4581 40.7436 10.4068C40.9409 10.3971 41.148 10.3751 41.3648 10.3387C41.2114 10.7771 40.9629 11.1718 40.6389 11.4933C40.0908 12.0415 39.3356 12.3825 38.505 12.3825C37.6718 12.3825 36.9167 12.0415 36.3687 11.4933C35.8206 10.9452 35.4795 10.1876 35.4795 9.35694V7.65666H35.4794ZM3.9699 13.3911C4.44488 13.5714 4.95896 13.6713 5.49727 13.6713C6.12092 13.6713 6.71286 13.5373 7.24876 13.2985C7.51672 13.34 7.75055 13.491 7.90404 13.7127L11.195 18.5457C11.3144 18.7211 11.5142 18.8259 11.7261 18.8283H17.0219C17.2923 18.8283 17.5384 18.9379 17.7162 19.1133C17.8916 19.2911 18.0012 19.5372 18.0012 19.8076C18.0012 20.0781 17.8916 20.3216 17.7162 20.4994C17.5384 20.6772 17.2948 20.7844 17.0268 20.7869H10.8053C10.6713 20.7772 10.5397 20.7382 10.418 20.6724C10.2791 20.5993 10.1573 20.4946 10.0648 20.3581L7.11968 16.0366C6.91996 15.7442 6.52044 15.6688 6.22576 15.8685C5.9334 16.0683 5.85786 16.4677 6.05767 16.7625L7.83589 19.3715L7.14658 26.0584L1.65578 25.4932L2.71547 15.1961C2.76179 14.7455 2.9225 14.3289 3.17344 14.0001C3.38046 13.7248 3.65314 13.5105 3.9699 13.3911ZM25.7038 5.14514C25.9717 4.91371 26.0033 4.50688 25.7744 4.23893C25.543 3.96857 25.1361 3.93686 24.8682 4.16829L21.9303 6.675L19.2824 5.13302C18.9756 4.95522 18.5809 5.05998 18.4031 5.36686C18.2253 5.67383 18.33 6.06605 18.6369 6.24385L21.6772 8.01726C21.9085 8.15124 22.2057 8.13173 22.4177 7.94902L25.7038 5.14514ZM23.3068 12.7943C22.9609 12.8746 22.7441 13.2181 22.8244 13.5641C22.9024 13.9124 23.2483 14.1268 23.5942 14.0489C25.1678 13.6835 26.5368 12.7919 27.5064 11.569C28.4589 10.368 29.0264 8.85283 29.0264 7.20601C29.0264 5.26451 28.2397 3.50812 26.9681 2.2365C25.6965 0.964883 23.9401 0.17804 22.0011 0.17804C20.0596 0.17804 18.3033 0.964883 17.0317 2.2365C15.7601 3.50812 14.9733 5.26442 14.9733 7.20601C14.9733 8.85274 15.5434 10.3679 16.4934 11.569C17.4629 12.7919 18.8343 13.6835 20.4055 14.0489C20.7513 14.1268 21.0973 13.9124 21.1777 13.5641C21.2556 13.2182 21.0388 12.8747 20.6929 12.7943C19.4116 12.4971 18.2935 11.7687 17.5017 10.7674C16.7271 9.79058 16.2618 8.55308 16.2618 7.20601C16.2618 5.62012 16.9049 4.18531 17.9427 3.14761C18.9804 2.10983 20.4152 1.46676 22.0011 1.46676C23.5845 1.46676 25.0193 2.10983 26.057 3.14761C27.0947 4.18531 27.7378 5.62012 27.7378 7.20601C27.7378 8.55308 27.275 9.79066 26.5003 10.7674C25.7062 11.7687 24.5881 12.4971 23.3068 12.7943ZM42.7021 32.0754V42.5332H38.5292V32.0754C39.9202 32.0754 41.3111 32.0754 42.7021 32.0754ZM40.8361 30.7843C38.2296 30.7843 35.6231 30.7867 33.0191 30.7867C32.9485 30.7818 32.8754 30.7891 32.8048 30.8086C32.4613 30.8987 32.2567 31.2519 32.3492 31.5954L34.717 40.4139C34.8436 40.8889 34.7949 41.2933 34.6341 41.61C34.4465 41.9803 34.1103 42.253 33.7182 42.4041C33.287 42.5698 32.7731 42.5868 32.3467 42.4017C31.862 42.1947 31.5867 41.7855 31.4551 41.2934L28.2981 29.5347C28.1592 29.0158 28.2275 28.4799 28.5856 28.0585C28.951 27.6224 29.5258 27.4105 30.0861 27.4105H36.2809L42.478 26.7723L42.707 29.0085C42.7533 29.4641 42.556 29.905 42.2344 30.2217C41.8568 30.5943 41.3623 30.7843 40.8361 30.7843ZM7.65559 27.4055H7.66788H7.6702H7.67269L7.68489 27.4079H7.6873H7.6897H7.70191H7.70432H7.70672H7.71893V27.4103H13.9161C14.4836 27.4103 15.0487 27.6272 15.4166 28.0729C15.7576 28.492 15.8405 29.023 15.7016 29.5345L12.547 41.2932C12.413 41.7853 12.1377 42.1945 11.653 42.4015C11.2267 42.5867 10.7127 42.5696 10.2815 42.4039C9.89177 42.253 9.55309 41.9801 9.36557 41.6098C9.20478 41.2931 9.15606 40.8887 9.28522 40.4137L11.6531 31.5953C11.7602 31.1909 11.4508 30.7842 11.0319 30.7842H3.14181C2.63022 30.7842 2.13333 30.5795 1.76793 30.2214C1.43664 29.8975 1.24663 29.4662 1.29287 29.0083L1.52429 26.772L7.65559 27.4055ZM32.8145 22.0755V23.4105H11.1878V22.0755C18.3958 22.0755 25.6039 22.0755 32.8145 22.0755Z" fill="#FF0000"/>
</g>
<defs>
<clipPath id="clip0">
<rect width="44" height="44" fill="white" transform="matrix(-1 0 0 1 44 0)"/>
</clipPath>
</defs>
</svg>
