<svg width="48" height="48" viewBox="0 0 48 48" fill="none" xmlns="http://www.w3.org/2000/svg">
<g clip-path="url(#clip0)">
<path d="M42.0224 35.8133V34.9502C42.0224 30.7371 38.5949 27.3096 34.3818 27.3096H32.3198C32.1838 25.4635 31.1405 23.844 29.5611 22.9544C30.8404 21.5889 31.626 19.7555 31.626 17.7412V17.4275H32.4382C33.8154 17.4275 34.9359 16.307 34.9359 14.9298C34.9359 13.5525 33.8154 12.432 32.4382 12.432H31.6238C31.6225 12.339 31.6196 12.2457 31.6147 12.1521H31.7986H35.4316V10.7232H31.9256L32.8782 -1.52588e-05H15.1218L16.0745 10.7232H12.5803V12.1521H16.2015H16.3709C16.3661 12.2457 16.3631 12.339 16.3618 12.432H15.5886C14.2114 12.432 13.0909 13.5525 13.0909 14.9298C13.0909 16.307 14.2114 17.4275 15.5886 17.4275H16.3596V17.7412C16.3596 19.7605 17.1492 21.5979 18.4341 22.9644C16.8648 23.8567 15.8279 25.4722 15.6922 27.3097H13.6183C9.40523 27.3097 5.97772 30.7372 5.97772 34.9502V48.0001H42.0224V37.2482H40.5934V46.571H36.9083V38.6712H35.4794V46.571H30.4363V37.2506V31.5347H32.3357V28.7386H34.3818C37.807 28.7386 40.5934 31.525 40.5934 34.9502V35.8133H42.0224ZM19.0046 31.5347H21.2056C21.5317 31.5347 21.9078 31.8306 22.2628 32.247L23.1903 33.7781C22.7065 34.7009 21.8589 35.8216 21.2056 35.8216H19.0046V31.5347ZM26.7414 27.8317L24.5349 31.4741C24.4358 31.5979 24.3373 31.7297 24.2396 31.8702C24.1566 31.9897 24.0789 32.1087 24.0061 32.2252C23.9331 32.1087 23.8555 31.9897 23.7725 31.8702C23.6598 31.7081 23.5461 31.5583 23.4315 31.4183L21.2587 27.8317V24.8661C22.1082 25.1932 23.0295 25.3743 23.9928 25.3743C24.9617 25.3743 25.8879 25.191 26.7414 24.8604V27.8317ZM31.6673 13.861H32.4383C33.0276 13.861 33.507 14.3405 33.507 14.9298C33.507 15.5191 33.0276 15.9985 32.4383 15.9985H31.6673V13.861ZM31.3167 1.42894L30.8635 6.53157H21.148V7.96053H30.7365L30.4911 10.7232H17.5091L17.2637 7.96053H19.7132V6.53157H17.1367L16.6833 1.42894H31.3167ZM15.5885 15.9984C14.9992 15.9984 14.5198 15.519 14.5198 14.9297C14.5198 14.3404 14.9992 13.8609 15.5885 13.8609H16.3595V15.9984H15.5885ZM17.7885 17.4274V12.5393C17.7885 12.411 17.7927 12.2816 17.8009 12.1521H30.1847C30.193 12.2817 30.1972 12.411 30.1972 12.5393V17.7411C30.1972 20.9204 27.7929 23.5473 24.7073 23.903V22.0377H23.2783V23.903C20.1927 23.5473 17.7885 20.9204 17.7885 17.7411V17.4274ZM17.1053 27.7218C17.1053 26.0635 18.0957 24.602 19.6035 23.9804C19.678 24.033 19.7534 24.0843 19.8299 24.1344V28.2309L20.9657 30.1058H17.5757H17.1053V27.7218ZM29.0073 46.571H19.0046V41.5351H17.5756V46.571H12.6159V38.6712H11.1869V46.571H7.40668V34.9502C7.40668 31.525 10.1932 28.7386 13.6183 28.7386H15.6764V31.5347H17.5757V37.2506V40.1061H19.0047V37.2506H21.2057C22.42 37.2506 23.4015 36.1325 24.0061 35.2072C24.6106 36.1325 25.5921 37.2506 26.8064 37.2506H29.0074V46.571H29.0073ZM29.0073 35.8216H26.8063C26.1505 35.8216 25.2987 34.692 24.8161 33.7676L25.7062 32.2984C26.1126 31.8083 26.5022 31.5347 26.8064 31.5347H29.0074V35.8216H29.0073ZM30.9067 30.1058H30.4363H27.0344L28.1702 28.2309V24.1251C28.2451 24.076 28.3189 24.0252 28.3918 23.9736C29.9096 24.591 30.9066 26.0555 30.9066 27.7219V30.1058H30.9067Z" fill="black"/>
<path d="M20.2281 14.5576H21.669V15.9865H20.2281V14.5576Z" fill="black"/>
<path d="M25.9321 14.5576H27.3729V15.9865H25.9321V14.5576Z" fill="black"/>
<path d="M21.4757 20.7506L24.0006 19.4774L26.5373 20.7511L27.1785 19.474L23.9994 17.8779L20.8323 19.4746L21.4757 20.7506Z" fill="black"/>
<path d="M23.2914 38.6713H24.7204V40.1062H23.2914V38.6713Z" fill="black"/>
<path d="M23.2914 42.9581H24.7204V44.3931H23.2914V42.9581Z" fill="black"/>
</g>
<defs>
<clipPath id="clip0">
<rect width="48" height="48" fill="white"/>
</clipPath>
</defs>
</svg>
