<svg width="34" height="33" viewBox="0 0 34 33" fill="none" xmlns="http://www.w3.org/2000/svg">
<path d="M1 16.5C1 7.93959 7.93959 1 16.5 1H17.5C26.0604 1 33 7.93959 33 16.5C33 25.0604 26.0604 32 17.5 32H16.5C7.93959 32 1 25.0604 1 16.5Z" stroke="#2B2B2B" stroke-width="2"/>
<path d="M21.6054 6.13746L19.2113 6.1333C16.5217 6.1333 14.7835 8.0652 14.7835 11.0553V13.3247H12.3764C12.1684 13.3247 12 13.5074 12 13.7327V17.0208C12 17.2461 12.1686 17.4286 12.3764 17.4286H14.7835V25.7255C14.7835 25.9508 14.952 26.1333 15.16 26.1333H18.3006C18.5086 26.1333 18.677 25.9506 18.677 25.7255V17.4286H21.4915C21.6995 17.4286 21.8679 17.2461 21.8679 17.0208L21.8691 13.7327C21.8691 13.6245 21.8293 13.5209 21.7588 13.4444C21.6884 13.3678 21.5923 13.3247 21.4925 13.3247H18.677V11.4009C18.677 10.4763 18.8804 10.0069 19.9923 10.0069L21.605 10.0063C21.8128 10.0063 21.9812 9.82357 21.9812 9.59844V6.54527C21.9812 6.32035 21.813 6.13788 21.6054 6.13746Z" fill="#2B2B2B"/>
</svg>
