<svg width="62" height="62" viewBox="0 0 62 62" fill="none" xmlns="http://www.w3.org/2000/svg">
<g filter="url(#filter0_d)">
<rect x="14" y="12.1333" width="34" height="33" rx="6" fill="#FF0000"/>
<path d="M33.9643 21.39C34.737 21.4993 35.4936 21.6933 36.2413 21.9231C37.5465 22.325 38.778 22.8834 39.9363 23.6077C40.0169 23.6577 40.1245 23.6894 40.2194 23.6894C41.5799 23.695 42.9399 23.6931 44.2993 23.6942C44.4088 23.6942 44.5178 23.7057 44.627 23.7119C44.627 23.7386 44.631 23.7498 44.6265 23.756C44.563 23.8537 44.4987 23.9501 44.4349 24.0475C43.9735 24.7553 43.5791 25.4957 43.3463 26.3141C43.321 26.402 43.3157 26.4756 43.3752 26.5618C44.5863 28.3009 44.9728 30.2102 44.4666 32.2684C44.0229 34.0735 42.9882 35.4809 41.4159 36.4774C40.2922 37.19 39.0508 37.5292 37.7245 37.5366C37.1673 37.5399 36.6129 37.4649 36.0686 37.3239C34.7423 36.9799 33.6054 36.3187 32.6684 35.3174C32.5448 35.186 32.4286 35.0487 32.2968 34.9001C31.8014 35.6385 31.3138 36.3648 30.8144 37.1102C30.317 36.367 29.8362 35.6477 29.3565 34.9313C29.3233 34.9487 29.3138 34.9506 29.3073 34.9568C29.2964 34.9658 29.2871 34.9768 29.2784 34.9872C28.1451 36.3255 26.7195 37.1459 24.9826 37.4203C24.0164 37.5733 23.0595 37.5183 22.1212 37.2596C20.7913 36.8942 19.6611 36.1926 18.748 35.1574C17.8557 34.1451 17.3007 32.97 17.0923 31.6339C16.8539 30.3869 17.1443 29.1845 17.2167 28.8927C17.4268 28.0445 17.7931 27.2657 18.2958 26.5495C18.3312 26.4986 18.3436 26.4087 18.3267 26.3481C18.1217 25.5962 17.7683 24.9123 17.3546 24.2573C17.2496 24.0908 17.1238 23.9366 17.0075 23.7768C17.0075 23.7585 17.0075 23.7397 17.0075 23.7212C17.0308 23.724 17.0538 23.7285 17.0766 23.7285C18.4685 23.729 19.8602 23.7296 21.2522 23.7268C21.3128 23.7268 21.3802 23.7018 21.4319 23.6686C22.4099 23.0412 23.4519 22.5441 24.5467 22.157C25.3362 21.8784 26.1423 21.661 26.9644 21.5018C27.7603 21.3479 28.5605 21.2395 29.3691 21.1861C31.3405 21.0344 32.9161 21.2431 33.9643 21.39ZM32.2193 30.5829C32.2193 33.6396 34.6993 36.1367 37.745 36.1249C40.8022 36.114 43.271 33.687 43.2688 30.5967C43.2665 27.412 40.6831 25.0179 37.6265 25.08C34.6089 25.1426 32.2468 27.5749 32.2193 30.5829ZM23.9308 25.0589C20.9575 25.0331 18.3652 27.5145 18.4171 30.6753C18.4654 33.623 20.8949 36.1218 23.9926 36.0952C27.0214 36.0693 29.4559 33.596 29.4615 30.6009C29.4663 27.5238 27.002 25.0589 23.9308 25.0589ZM24.2049 23.617C25.8845 23.7195 27.3598 24.3048 28.6063 25.4384C29.8502 26.5697 30.5791 27.981 30.8439 29.6406C31.1164 28.0007 31.8261 26.6025 33.0467 25.4825C34.2693 24.3613 35.7251 23.7728 37.3771 23.6484C35.4167 22.7769 33.3495 22.4067 31.2217 22.3657C28.8035 22.3183 26.4512 22.6747 24.2049 23.617Z" fill="#2B2B2B"/>
<path d="M37.7338 27.0957C39.6254 27.0926 41.1575 28.6166 41.1575 30.5062C41.1575 32.4032 39.6515 33.8696 37.8748 33.9373C35.8905 34.0134 34.3028 32.4324 34.3033 30.5147C34.305 28.575 35.904 27.0637 37.7338 27.0957ZM39.965 30.5147C39.9641 29.2817 38.9674 28.2796 37.7428 28.2796C36.5042 28.2796 35.4959 29.2763 35.4908 30.5057C35.4863 31.7297 36.4997 32.7481 37.7268 32.7515C38.9558 32.7562 39.9655 31.7454 39.965 30.5147Z" fill="#2B2B2B"/>
<path d="M23.8577 27.0957C25.7482 27.0938 27.2826 28.6205 27.2778 30.5099C27.2724 32.4223 25.765 33.8567 24.0195 33.9362C22.0273 34.0272 20.4199 32.4392 20.4236 30.511C20.4275 28.5576 22.0374 27.0632 23.8577 27.0957ZM26.0864 30.5071C26.0827 29.2665 25.0795 28.2776 23.8271 28.2799C22.6191 28.2821 21.6069 29.3016 21.6097 30.5141C21.6128 31.7407 22.6239 32.7492 23.8543 32.7526C25.0772 32.7554 26.0894 31.737 26.0864 30.5071Z" fill="#2B2B2B"/>
<path d="M37.7355 29.3796C38.3624 29.3791 38.8764 29.8933 38.8705 30.5166C38.8643 31.1412 38.359 31.6473 37.7426 31.6476C37.1078 31.6476 36.5975 31.146 36.5989 30.5244C36.6 29.8796 37.0957 29.3802 37.7355 29.3796Z" fill="#2B2B2B"/>
<path d="M23.852 29.3695C24.4884 29.3689 24.9998 29.8773 25.0024 30.5118C25.0049 31.1409 24.4887 31.6574 23.8553 31.6588C23.2068 31.6602 22.7066 31.1592 22.7072 30.5073C22.7072 29.8672 23.2062 29.3703 23.852 29.3695Z" fill="#2B2B2B"/>
</g>
<defs>
<filter id="filter0_d" x="0" y="0.133301" width="62" height="61" filterUnits="userSpaceOnUse" color-interpolation-filters="sRGB">
<feFlood flood-opacity="0" result="BackgroundImageFix"/>
<feColorMatrix in="SourceAlpha" type="matrix" values="0 0 0 0 0 0 0 0 0 0 0 0 0 0 0 0 0 0 127 0" result="hardAlpha"/>
<feMorphology radius="2" operator="dilate" in="SourceAlpha" result="effect1_dropShadow"/>
<feOffset dy="2"/>
<feGaussianBlur stdDeviation="6"/>
<feColorMatrix type="matrix" values="0 0 0 0 1 0 0 0 0 0 0 0 0 0 0 0 0 0 0.15 0"/>
<feBlend mode="normal" in2="BackgroundImageFix" result="effect1_dropShadow"/>
<feBlend mode="normal" in="SourceGraphic" in2="effect1_dropShadow" result="shape"/>
</filter>
</defs>
</svg>
