<svg width="62" height="62" viewBox="0 0 62 62" fill="none" xmlns="http://www.w3.org/2000/svg">
<g filter="url(#filter0_d)">
<rect x="14" y="12.1333" width="34" height="33" rx="6" fill="#FF0000"/>
<g clip-path="url(#clip0)">
<path d="M51.1914 25.636L49.1431 25.6819L49.019 22.8525L50.6017 22.8066L50.5707 21.7207L48.9724 21.7666L48.8638 19.2431L50.7414 19.1819L50.7103 18.0807L47.6224 18.1878L48.0103 26.8595L51.2224 26.7831L51.1914 25.636Z" fill="#2B2B2B"/>
<path d="M55.381 26.5842C55.7069 26.1866 55.8621 25.7125 55.8621 25.1619C55.8621 24.5042 55.6138 23.8619 55.1172 23.2348C54.8845 22.9901 54.6517 22.7454 54.419 22.5007C54.1862 22.256 53.9534 22.0113 53.7207 21.7666C53.2241 21.216 52.9759 20.7113 52.9759 20.2372C52.9759 19.6254 53.2552 19.3348 53.7983 19.3348C54.1552 19.3348 54.3259 19.549 54.3259 19.9619V20.4207L55.5828 20.4972C55.5362 19.9466 55.381 19.4725 55.1172 19.0595C54.7603 18.5395 54.2793 18.2795 53.6586 18.2795C53.0379 18.2795 52.5724 18.5242 52.2466 19.0137C51.9517 19.4113 51.8121 19.8701 51.8121 20.3901C51.8121 21.0019 52.0759 21.6137 52.5879 22.256C52.8207 22.5007 53.0535 22.7454 53.3017 22.9901C53.5345 23.2348 53.7828 23.4948 54.0155 23.7395C54.5121 24.2748 54.7759 24.7642 54.7759 25.2078C54.7759 25.4372 54.6983 25.6666 54.5276 25.8654C54.3569 26.0642 54.1241 26.1713 53.8293 26.1713C53.2552 26.1713 52.9293 25.7278 52.8362 24.8407L51.7034 24.856C51.719 25.4372 51.8897 25.9725 52.2466 26.4619C52.65 27.0278 53.1776 27.3184 53.8759 27.3184C54.481 27.2878 55.0086 27.0584 55.381 26.5842Z" fill="#2B2B2B"/>
<path d="M58.469 27.0278C59.7879 27.0278 60.4397 26.0948 60.4397 24.2442C60.4397 24.1831 60.4397 24.0913 60.4397 23.9842C60.4397 23.8619 60.4397 23.7242 60.4241 23.5713L59.2138 23.6019C59.2448 23.9537 59.2603 24.2137 59.2603 24.3972C59.2759 24.5654 59.2759 24.6419 59.2759 24.6266C59.2759 25.5442 59.0121 26.0031 58.469 26.0031C58.0034 26.0031 57.7397 25.7431 57.6621 25.2384L57.4759 19.9619C57.4759 19.3195 57.7397 18.9984 58.2672 18.9984C58.7638 18.9984 59.0121 19.4113 59.0121 20.2219C59.0121 20.2831 59.0121 20.3442 58.9966 20.436C58.9966 20.5125 58.981 20.6042 58.981 20.696C58.981 20.7878 58.9655 20.8642 58.9655 20.9407C58.9655 21.0172 58.95 21.0784 58.95 21.1242L60.1914 21.0937V20.6195C60.2069 20.4972 60.2069 20.4054 60.2069 20.329C60.2069 20.2525 60.2069 20.1913 60.2069 20.1454C60.2069 19.3654 60.0517 18.8148 59.7414 18.4937C59.369 18.1266 58.9035 17.9431 58.3448 17.9431C57.631 17.9431 57.1035 18.1572 56.731 18.5854C56.4207 18.9525 56.281 19.4266 56.2966 20.0078L56.4362 24.6725C56.5138 26.2478 57.181 27.0278 58.469 27.0278Z" fill="#2B2B2B"/>
<path d="M65.4828 26.7984L64.1948 17.8207L62.5655 17.7901L60.8586 26.4619L62.0069 26.4772L62.3638 24.5654L63.9155 24.6113L64.2724 26.7984H65.4828ZM62.55 23.4795L63.3569 19.5948L63.8069 23.5101L62.55 23.4795Z" fill="#2B2B2B"/>
<path d="M67.8724 18.1266C67.8414 18.1266 67.6707 18.1266 67.3448 18.1419C67.019 18.1572 66.5224 18.1725 65.8552 18.1878L66.2431 26.9972L67.4224 26.8442L67.2672 23.2348C68.0431 23.2042 68.4931 23.1737 68.6172 23.1584C69.5017 22.9748 69.9517 22.1642 69.9517 20.7113C69.9362 18.9831 69.2534 18.1266 67.8724 18.1266ZM67.981 22.1031C67.6241 22.1337 67.3603 22.1337 67.2052 22.1337L67.081 19.2431C67.1431 19.2278 67.1897 19.2278 67.2362 19.2278C67.2983 19.2278 67.3448 19.2278 67.3914 19.2278C68.0276 19.2278 68.4155 19.396 68.6017 19.7325C68.6793 19.8854 68.7259 20.2831 68.7259 20.8948C68.7259 21.6442 68.4776 22.0419 67.981 22.1031Z" fill="#2B2B2B"/>
<path d="M74.219 26.7831L74.1879 25.636L72.1397 25.6819L72.0155 22.8525L73.5983 22.8066L73.5517 21.7207L71.969 21.7666L71.8603 19.2431L73.7379 19.1819L73.6914 18.0807L70.619 18.1878L71.0069 26.8595L74.219 26.7831Z" fill="#2B2B2B"/>
<path d="M50.9431 35.8831L51.9517 35.8984L51.9052 37.6572C51.8741 38.4831 51.5328 38.8807 50.8655 38.8501C50.2138 38.8348 49.9035 38.4219 49.919 37.6113L50.1207 31.6925C50.1362 30.8819 50.4776 30.4842 51.1603 30.5148C51.7655 30.5301 52.0603 30.9431 52.0293 31.769C51.9983 32.0595 51.9828 32.3042 51.9517 32.5184C51.9362 32.7325 51.9052 32.9007 51.8741 33.0537L53.2862 33.069C53.3172 32.5337 53.3328 32.1513 53.3483 31.9066C53.4259 30.1784 52.7276 29.3066 51.269 29.276C50.369 29.2607 49.7017 29.5054 49.2517 30.0407C48.8483 30.4995 48.6466 31.0807 48.631 31.769L48.4603 37.1984C48.4293 37.9019 48.5224 38.4984 48.7397 38.9572C49.05 39.6454 49.5931 39.9972 50.3535 40.0278C51.0672 40.0431 51.6414 39.7525 52.0448 39.1407L52.1069 39.8901H53.2241L53.3948 34.7819L50.9741 34.736L50.9431 35.8831Z" fill="#2B2B2B"/>
<path d="M57.8017 36.4948C57.8017 37.2442 57.4914 37.6266 56.8552 37.6419C56.5293 37.6572 56.25 37.5348 56.0483 37.2595C55.8931 37.0301 55.8155 36.8007 55.8155 36.5407L55.8776 28.4042H54.3724L54.3259 36.1431V36.3419C54.3414 38.116 55.1948 39.0031 56.8707 38.9878C58.4534 38.9572 59.2603 38.0242 59.2914 36.2042L59.3535 28.4042L57.8638 28.236L57.8017 36.4948Z" fill="#2B2B2B"/>
<path d="M60.4862 34.1701L60.5328 35.3478L62.0224 35.3325L61.9759 34.1395L60.4862 34.1701Z" fill="#2B2B2B"/>
<path d="M60.4397 32.3654L60.4707 33.5584L61.9603 33.5278L61.9293 32.3348L60.4397 32.3654Z" fill="#2B2B2B"/>
<path d="M60.5793 37.1525L62.069 37.1372L62.0224 35.929L60.5328 35.9595L60.5793 37.1525Z" fill="#2B2B2B"/>
<path d="M60.3621 28.9701L60.3776 29.8572L61.8672 29.8419L61.8517 28.9395L60.3621 28.9701Z" fill="#2B2B2B"/>
<path d="M60.3931 30.576L60.4241 31.7537L61.9138 31.7384L61.8828 30.5301L60.3931 30.576Z" fill="#2B2B2B"/>
<path d="M62.0845 37.7337L60.5948 37.7642V38.1925L59.3845 38.2078L61.3862 39.6913L63.3103 38.1466L62.0845 38.1619V37.7337Z" fill="#2B2B2B"/>
<path d="M69.0207 32.3195C68.9431 30.469 68.0276 29.5513 66.2741 29.5819L63.9776 29.6431L64.4276 39.9819C64.7845 39.9666 65.0948 39.9666 65.3586 39.9666C65.6379 39.9666 65.8552 39.9666 66.0259 39.9666C66.8948 39.9513 67.531 39.8595 67.9345 39.7219C68.8345 39.4007 69.269 38.529 69.2379 37.1066L69.0207 32.3195ZM67.5466 38.2842C67.3914 38.4831 67.0345 38.5901 66.4603 38.6207L65.8086 38.636L65.4828 30.9431H65.6069C66.2897 30.9278 66.7707 31.0195 67.05 31.2031C67.3293 31.3866 67.4845 31.7384 67.5155 32.2737L67.7328 37.3513C67.7638 37.7948 67.7017 38.1007 67.5466 38.2842Z" fill="#2B2B2B"/>
<path d="M74.5914 37.1372L72.0466 37.1525L72 33.7725L73.9862 33.7572L73.9707 32.4572L72 32.4725L71.9535 29.4595L74.3121 29.4442L74.2966 28.1442L70.5103 28.1595L70.619 38.5137L74.6224 38.4984L74.5914 37.1372Z" fill="#2B2B2B"/>
<path d="M41.369 19.9007C39.2897 17.5454 36.6517 16.1231 33.5638 15.496C33.1603 15.4195 32.7414 15.3584 32.3224 15.2972C32.2914 15.2972 32.2603 15.2819 32.2448 15.2666C32.1207 15.2666 31.981 15.2666 31.8569 15.2666C31.3448 15.3737 31.0966 15.7254 30.9103 16.169C30.0259 18.3866 29.3276 20.6348 28.8466 22.9595C28.7845 23.2348 28.7224 23.3113 28.4276 23.3419C26.6276 23.556 25.0914 24.9325 24.719 26.6913C24.5483 27.4713 24.5948 28.236 24.8431 28.9854C24.9362 29.2454 24.9052 29.3066 24.7034 29.4595C23.4155 30.4537 22.1431 31.4478 20.8552 32.4572C20.8397 32.4725 20.8086 32.4878 20.7466 32.5184C20.669 32.2125 20.6069 31.9372 20.5448 31.6619C20.3276 30.7748 20.2034 29.8725 20.2345 28.9548C20.2966 26.6148 21.1034 24.5654 22.5931 22.7607C24.0052 21.0478 25.8052 19.916 27.9621 19.3348C28.5052 19.1819 28.8931 18.8913 29.0948 18.3866C29.25 18.0348 29.3431 17.6678 29.4517 17.3007C29.4828 17.209 29.4672 17.1019 29.4672 16.9948C29.4517 16.8113 29.3431 16.7195 29.1569 16.7654C28.8155 16.8419 28.4897 16.949 28.1483 17.0407C26.8914 17.3619 25.6655 17.7901 24.5172 18.4019C21.6155 19.9619 19.7069 22.3172 18.6672 25.3913C18.3103 26.4313 18.0931 27.4866 18.031 28.5572C18.031 28.5878 18.0155 28.6337 18 28.6642C18 29.0619 18 29.4748 18 29.8725C18.031 30.1478 18.0621 30.4078 18.0931 30.6831C18.2638 32.1207 18.7138 33.4819 19.3655 34.7819C19.5517 35.149 19.831 35.4242 20.281 35.4548C20.6534 35.4854 20.9638 35.3172 21.2431 35.0725C21.8328 34.5525 22.4069 34.0172 22.9966 33.5125C24.2224 32.4725 25.5103 31.509 26.8603 30.6372C27.1397 30.4537 27.3724 30.2395 27.481 29.9031C27.6052 29.5054 27.4966 29.1537 27.2638 28.8172C27.0466 28.5113 26.9069 28.1748 26.8603 27.8078C26.7362 26.7066 27.5897 25.6054 28.7069 25.4831C28.9707 25.4525 29.25 25.4678 29.5293 25.4831C30.181 25.5442 30.6466 25.2078 30.7862 24.5807C31.0655 23.3725 31.2983 22.1642 31.6241 20.9713C31.919 19.9007 32.2914 18.8607 32.6483 17.8054C32.7414 17.5301 32.7724 17.5148 33.0672 17.576C34.9293 17.9584 36.6362 18.7078 38.1569 19.8395C39.8638 21.109 41.0586 22.7607 41.881 24.6878C41.9741 24.9019 42.0672 25.1313 42.1448 25.3607C42.2224 25.5442 42.1914 25.5748 41.9897 25.6207C41.2138 25.789 40.4379 25.9419 39.6621 26.1407C34.5879 27.4407 29.9483 29.6278 25.7431 32.7172C24.1759 33.8795 22.7017 35.149 21.3362 36.5254C21.0414 36.816 20.731 37.1219 20.4362 37.4125C19.9707 37.8713 19.9397 38.4678 20.3897 38.9419C21.2121 39.7984 22.1431 40.5325 23.1672 41.1442C23.3069 41.236 23.4776 41.2666 23.6328 41.3278C23.7414 41.3278 23.85 41.3278 23.9586 41.3278C24.3155 41.2207 24.5793 40.976 24.8276 40.716C28.5362 36.9384 32.881 34.1242 37.9086 32.3195C39.15 31.876 40.4224 31.5395 41.6948 31.2184C41.7103 31.2184 41.7259 31.2184 41.7724 31.2184C41.7103 31.4325 41.6483 31.6466 41.5862 31.8607C40.2828 35.9137 36.6828 38.2078 33.4862 38.7278C32.6172 38.8654 31.7328 38.9113 30.8483 38.8348C30.3517 38.789 29.9328 38.9572 29.5759 39.2784C29.2655 39.569 29.0017 39.9054 28.8 40.2725C28.7534 40.349 28.7379 40.4254 28.7069 40.5019C28.6448 40.7313 28.7069 40.8384 28.9552 40.8689C29.219 40.8995 29.4983 40.8995 29.7621 40.9301C30.7397 40.9913 31.7017 41.0525 32.6793 40.9913C36.3103 40.716 39.2741 39.2019 41.5552 36.4031C42.5483 35.1795 43.3397 33.8337 43.8052 32.3348C44.0379 31.6007 44.2241 30.836 44.2862 30.0713C44.3017 29.8725 44.2862 29.6737 44.2397 29.4901C44.1 28.9242 43.5724 28.6337 42.9362 28.7407C42.5793 28.8019 42.2224 28.8631 41.8655 28.9548C36.3724 30.2242 31.3293 32.4266 26.9069 35.929C25.8517 36.7701 24.8431 37.6419 23.881 38.5748C23.8345 38.6054 23.8034 38.6513 23.7569 38.6819C23.6172 38.8042 23.5397 38.8042 23.3845 38.6972C23.2293 38.5748 23.0897 38.4525 22.9345 38.3454C22.7638 38.2231 22.7638 38.1466 22.9034 38.009C23.2759 37.6419 23.6638 37.2748 24.0517 36.9231C27.5431 33.7725 31.4845 31.3407 35.8914 29.6278C38.3897 28.6642 40.9655 27.976 43.6034 27.5478C43.6655 27.5325 43.7276 27.5172 43.7897 27.5019C44.2552 27.3948 44.5655 27.1195 44.6586 26.6607C44.6586 26.5231 44.6586 26.3854 44.6586 26.2478C44.55 25.8348 44.4414 25.4066 44.3172 24.9937C43.7431 23.0819 42.7035 21.4148 41.369 19.9007Z" fill="#2B2B2B"/>
</g>
</g>
<defs>
<filter id="filter0_d" x="0" y="0.133301" width="62" height="61" filterUnits="userSpaceOnUse" color-interpolation-filters="sRGB">
<feFlood flood-opacity="0" result="BackgroundImageFix"/>
<feColorMatrix in="SourceAlpha" type="matrix" values="0 0 0 0 0 0 0 0 0 0 0 0 0 0 0 0 0 0 127 0" result="hardAlpha"/>
<feMorphology radius="2" operator="dilate" in="SourceAlpha" result="effect1_dropShadow"/>
<feOffset dy="2"/>
<feGaussianBlur stdDeviation="6"/>
<feColorMatrix type="matrix" values="0 0 0 0 1 0 0 0 0 0 0 0 0 0 0 0 0 0 0.15 0"/>
<feBlend mode="normal" in2="BackgroundImageFix" result="effect1_dropShadow"/>
<feBlend mode="normal" in="SourceGraphic" in2="effect1_dropShadow" result="shape"/>
</filter>
<clipPath id="clip0">
<rect width="27" height="26" fill="white" transform="translate(18 15.2666)"/>
</clipPath>
</defs>
</svg>
