<svg width="161" height="82" viewBox="0 0 161 82" fill="none" xmlns="http://www.w3.org/2000/svg">
<path d="M160.255 49.0118L159.969 48.6982L160.112 48.299C161.17 45.6189 160.284 43.338 159.483 42.0264C159.14 43.5661 158.597 44.7066 158.311 45.2483C158.968 46.7594 159.026 48.2135 158.482 49.5251C158.368 49.7817 158.254 50.0383 158.082 50.2664C158.968 52.2622 159.083 53.8874 158.368 55.1704C157.625 56.4819 156.224 56.9951 155.423 57.1662C154.823 62.3554 149.59 62.726 149.533 62.726H149.505C149.161 62.726 148.847 62.4409 148.847 62.0988C148.818 61.7281 149.104 61.4145 149.476 61.386C149.648 61.386 153.936 61.0438 154.136 56.5675L154.165 55.9972L154.737 55.9402C154.765 55.9402 156.509 55.7406 157.196 54.4861C157.625 53.7163 157.596 52.6899 157.11 51.4353C156.252 52.2907 155.251 52.8039 154.708 53.0605C154.68 53.7448 154.508 54.3721 154.165 54.9423C153.422 56.2538 151.906 57.1947 149.876 57.5939C149.79 57.6224 149.619 57.6224 149.39 57.6509C148.389 57.765 146.045 58.0216 145.244 59.4757C144.73 60.3881 144.844 61.7281 145.645 63.4388C146.388 65.0925 147.389 66.0334 148.532 66.233C150.763 66.6321 153.136 64.3512 153.164 64.3512C164.315 53.7448 160.312 49.0689 160.255 49.0118Z" fill="#0A0A0A"/>
<path d="M148.447 49.2399C148.389 49.2399 148.332 49.2399 148.304 49.2399C147.589 49.2399 146.931 48.9548 146.331 48.3846C145.988 48.0424 145.673 47.6433 145.387 47.1586C145.216 47.8143 144.987 49.1544 144.987 51.8345C144.987 55.6266 145.559 56.8811 145.845 57.2518C147.074 56.596 148.532 56.4249 149.304 56.3394C149.476 56.3109 149.59 56.3109 149.676 56.2824C151.306 55.9687 152.507 55.2559 153.05 54.2865C153.536 53.4312 153.536 52.3192 153.078 50.9791C152.964 50.637 153.136 50.2378 153.479 50.1238C153.822 50.0097 154.194 50.1808 154.337 50.523C154.479 50.8936 154.565 51.2643 154.651 51.6349C155.48 51.1787 156.738 50.3234 157.281 49.0118C157.71 47.9854 157.596 46.7879 156.996 45.5049L156.824 45.1627L157.024 44.8491C157.11 44.7351 158.196 42.9958 158.425 40.3728C158.425 40.3442 158.425 40.3157 158.425 40.3157C158.539 38.8331 158.368 37.0939 157.596 35.2121C156.424 32.3894 155.48 31.2775 154.937 30.8213C154.937 31.8477 154.708 32.646 154.508 33.1022C155.623 34.2712 156.567 36.0104 156.224 38.4339C157.11 38.605 157.396 39.0897 157.482 39.3178C157.625 39.66 157.424 40.0591 157.081 40.1732C156.995 40.2017 156.938 40.2302 156.853 40.2302C156.624 40.2302 156.395 40.0876 156.252 39.8881C156.166 39.831 155.595 39.4604 153.536 40.0876C153.707 41.0285 153.707 42.1975 153.336 43.7086C153.25 44.0223 152.993 44.2219 152.678 44.2219C152.621 44.2219 152.564 44.2219 152.535 44.1933C152.164 44.1078 151.963 43.7372 152.049 43.395C153.05 39.1753 150.963 38.1773 150.963 38.1488C150.62 38.0063 150.477 37.6071 150.648 37.265C150.791 36.9228 151.191 36.7803 151.535 36.9513C151.62 36.9798 152.592 37.4645 153.193 38.8046C153.85 38.605 154.422 38.491 154.88 38.4339C155.595 34.0146 151.22 32.4465 151.02 32.3609C150.677 32.2469 150.477 31.8477 150.62 31.5056C150.734 31.1634 151.134 30.9639 151.477 31.1064C151.506 31.1064 152.392 31.4485 153.422 32.1899C153.679 31.306 153.85 29.5953 152.449 27.685C151.077 25.8032 148.304 24.121 146.645 24.6627C145.302 25.0904 145.016 27.0007 145.016 28.5118V32.2184C145.016 32.9027 145.187 34.7844 146.016 35.6398C146.302 35.9249 146.617 36.039 147.017 36.039C147.389 36.039 147.675 36.3241 147.675 36.6947C147.675 37.0654 147.389 37.3505 147.017 37.3505C146.56 37.3505 146.159 37.265 145.788 37.0654C145.559 38.0348 145.244 39.6029 145.244 41.2281C145.244 43.281 146.016 46.2177 147.274 47.3867C147.646 47.7288 147.989 47.8999 148.389 47.8714C148.761 47.8428 149.076 48.128 149.104 48.4986C149.076 48.8978 148.818 49.2114 148.447 49.2399Z" fill="#0A0A0A"/>
<path d="M132.378 57.6509C132.178 57.6224 132.007 57.5939 131.892 57.5939C129.862 57.1947 128.347 56.2538 127.603 54.9423C127.289 54.3721 127.117 53.7448 127.06 53.0605C126.517 52.8039 125.516 52.2907 124.659 51.4353C124.201 52.7184 124.144 53.7448 124.573 54.4861C125.259 55.7406 127.003 55.9117 127.032 55.9402L127.603 55.9972L127.632 56.5675C127.861 61.0723 132.121 61.386 132.292 61.386C132.664 61.4145 132.95 61.7281 132.921 62.0988C132.893 62.4409 132.607 62.726 132.264 62.726H132.235C132.178 62.726 126.946 62.3554 126.345 57.1662C125.573 56.9951 124.144 56.4819 123.401 55.1704C122.686 53.9159 122.8 52.2622 123.686 50.2664C123.543 50.0383 123.401 49.7817 123.286 49.5251C122.743 48.2135 122.8 46.7879 123.458 45.2483C123.172 44.7351 122.6 43.5946 122.285 42.0264C121.485 43.338 120.599 45.6189 121.656 48.299L121.799 48.6982L121.514 49.0118C121.485 49.0689 117.454 53.7448 128.547 64.3227C128.576 64.3512 130.949 66.6321 133.179 66.2045C134.351 65.9764 135.323 65.0355 136.067 63.4103C136.839 61.6996 136.981 60.3881 136.467 59.4472C135.723 58.0216 133.379 57.765 132.378 57.6509Z" fill="#0A0A0A"/>
<path d="M135.209 24.6342C133.551 24.0925 130.777 25.8032 129.405 27.6565C128.004 29.5668 128.175 31.249 128.433 32.1613C129.462 31.42 130.348 31.1064 130.377 31.0779C130.72 30.9639 131.092 31.1349 131.235 31.4771C131.349 31.8192 131.177 32.2184 130.834 32.3324C130.634 32.3894 126.288 33.9861 126.974 38.4054C127.461 38.4625 128.004 38.5765 128.661 38.7761C129.262 37.4075 130.234 36.9513 130.32 36.9228C130.663 36.7803 131.063 36.9228 131.206 37.2365C131.349 37.5786 131.206 37.9778 130.891 38.1203C130.863 38.1203 128.804 39.1467 129.805 43.3665C129.891 43.7372 129.662 44.0793 129.319 44.1648C129.262 44.1648 129.205 44.1933 129.176 44.1933C128.861 44.1933 128.604 43.9938 128.518 43.6801C128.175 42.169 128.147 41 128.318 40.0591C126.26 39.4319 125.688 39.8025 125.602 39.8595C125.488 40.0876 125.259 40.2017 125.002 40.2017C124.916 40.2017 124.83 40.2017 124.773 40.1447C124.43 40.0021 124.258 39.6314 124.373 39.2893C124.458 39.0612 124.744 38.5765 125.631 38.4054C125.316 35.9819 126.231 34.2427 127.346 33.0737C127.146 32.6175 126.889 31.8192 126.917 30.7928C126.374 31.249 125.431 32.3609 124.258 35.1836C123.458 37.0654 123.315 38.8046 123.401 40.2872C123.401 40.3157 123.401 40.3442 123.401 40.3442C123.629 42.9673 124.716 44.7066 124.802 44.8206L125.002 45.1342L124.83 45.4764C124.201 46.7594 124.115 47.9569 124.544 48.9833C125.087 50.2949 126.345 51.1502 127.175 51.6064C127.26 51.2643 127.346 50.8936 127.489 50.4945C127.603 50.1523 128.004 49.9527 128.347 50.0953C128.69 50.2093 128.862 50.6085 128.747 50.9506C128.261 52.2907 128.261 53.4027 128.776 54.258C129.319 55.2274 130.52 55.9117 132.15 56.2538C132.235 56.2823 132.35 56.2824 132.521 56.3109C133.293 56.3964 134.751 56.5675 135.981 57.2232C136.267 56.8526 136.839 55.5981 136.839 51.806C136.839 49.1544 136.638 47.8143 136.438 47.1301C136.152 47.6148 135.838 48.0424 135.495 48.3561C134.894 48.9263 134.237 49.2114 133.522 49.2114C133.465 49.2114 133.408 49.2114 133.379 49.2114C133.007 49.1829 132.721 48.8693 132.75 48.4986C132.779 48.128 133.093 47.8428 133.465 47.8714C133.865 47.8999 134.208 47.7288 134.58 47.3867C135.838 46.2177 136.61 43.281 136.61 41.2281C136.61 39.6029 136.295 38.0348 136.067 37.0654C135.695 37.2365 135.295 37.3505 134.837 37.3505C134.465 37.3505 134.18 37.0654 134.18 36.6947C134.18 36.3241 134.465 36.039 134.837 36.039C135.237 36.039 135.552 35.8964 135.838 35.6398C136.667 34.813 136.839 32.9027 136.839 32.2184V28.4833C136.839 26.9722 136.553 25.0904 135.209 24.6342Z" fill="#0A0A0A"/>
<path fill-rule="evenodd" clip-rule="evenodd" d="M150.848 10.863C150.848 10.8345 150.848 10.8345 150.848 10.806C150.848 9.23783 150.219 7.81224 149.161 6.78581C149.133 6.7573 149.133 6.7573 149.104 6.72879C149.047 6.67177 149.018 6.64326 148.961 6.58623C148.933 6.55772 148.904 6.5292 148.847 6.50069C148.818 6.47218 148.79 6.44367 148.761 6.41516C148.704 6.38665 148.647 6.32963 148.618 6.30112C148.59 6.30112 148.59 6.2726 148.561 6.2726C148.504 6.21558 148.418 6.18707 148.361 6.13004C147.475 5.53129 146.445 5.16064 145.302 5.13213C145.33 4.90403 145.359 4.67594 145.359 4.44785C145.359 3.22184 144.873 2.10988 144.044 1.31155C143.243 0.513215 142.128 0 140.899 0C139.669 0 138.554 0.484703 137.753 1.31155C136.953 2.10988 136.438 3.22184 136.438 4.44785C136.438 4.67594 136.467 4.90403 136.495 5.13213C135.352 5.16064 134.322 5.53129 133.436 6.13004C133.379 6.18707 133.293 6.21558 133.236 6.2726C133.207 6.30111 133.207 6.30112 133.179 6.32963C133.122 6.35814 133.093 6.41516 133.036 6.44367C132.979 6.47219 132.95 6.52921 132.893 6.55772C132.864 6.58623 132.836 6.58624 132.836 6.61475C132.779 6.67177 132.693 6.72879 132.636 6.81432C132.464 6.9854 132.321 7.12796 132.178 7.29903C131.406 8.26843 130.949 9.49444 130.949 10.8345C130.949 12.4026 131.578 13.8282 132.636 14.8547C133.636 15.8526 134.98 16.4798 136.495 16.5083C136.467 16.7364 136.438 16.9645 136.438 17.1926C136.438 18.4186 136.924 19.5306 137.753 20.3289C138.154 20.7281 138.611 21.0417 139.126 21.2413H138.926C138.182 21.2413 137.582 21.8401 137.582 22.5814C137.582 23.3227 138.182 23.9214 138.926 23.9214C138.182 23.9214 137.582 24.5202 137.582 25.2615C137.582 26.0028 138.182 26.63 138.926 26.63H139.126V80.717C139.126 81.4298 139.698 82 140.412 82H141.356C142.071 82 142.643 81.4298 142.643 80.717V76.4117H149.505V72.8192H142.643V71.8213H149.505V68.2288H142.643V26.6871H142.843C143.586 26.6871 144.187 26.0883 144.187 25.3185C144.187 24.5772 143.586 23.9784 142.843 23.9784C143.586 23.9784 144.187 23.3797 144.187 22.6384C144.187 21.8971 143.586 21.2983 142.843 21.2983H142.643C143.157 21.0702 143.615 20.7566 144.015 20.386C144.816 19.5876 145.33 18.4757 145.33 17.2497C145.33 17.0216 145.302 16.7935 145.273 16.5654C146.788 16.5083 148.132 15.9096 149.133 14.9117C150.191 13.8282 150.82 12.4312 150.848 10.863ZM139.526 3.05077C139.869 2.70863 140.384 2.48053 140.899 2.48053C141.442 2.48053 141.928 2.70863 142.271 3.05077C142.614 3.39291 142.843 3.90612 142.843 4.41933C142.843 4.96106 142.614 5.44576 142.271 5.81641C142.214 5.87343 142.157 5.90195 142.099 5.95897C142.042 5.98748 141.985 6.01599 141.928 6.07302C141.67 6.24409 141.413 6.32962 141.156 6.38665C141.07 6.38665 140.984 6.41516 140.899 6.41516C140.813 6.41516 140.727 6.41516 140.641 6.38665C140.384 6.35814 140.098 6.24409 139.869 6.07302C139.812 6.0445 139.755 6.01599 139.698 5.95897C139.641 5.90195 139.583 5.87343 139.526 5.81641C139.183 5.47427 138.954 4.96106 138.954 4.41933C138.954 3.90612 139.183 3.42142 139.526 3.05077ZM142.299 18.5897C141.956 18.9319 141.442 19.1599 140.927 19.1599C140.384 19.1599 139.898 18.9319 139.555 18.5897C139.212 18.2476 138.983 17.7344 138.983 17.2211C138.983 16.6794 139.212 16.1947 139.555 15.8526C139.612 15.7956 139.669 15.767 139.726 15.71C139.783 15.6815 139.841 15.653 139.898 15.596C140.127 15.4249 140.412 15.3394 140.67 15.2823C140.67 15.2823 140.67 15.2823 140.698 15.2823C140.784 15.2823 140.87 15.2538 140.956 15.2538C141.041 15.2538 141.127 15.2538 141.213 15.2823C141.213 15.2823 141.213 15.2823 141.242 15.2823C141.499 15.3109 141.785 15.4249 142.014 15.596C142.071 15.6245 142.128 15.653 142.185 15.71C142.242 15.767 142.299 15.7956 142.357 15.8526C142.7 16.1947 142.929 16.7079 142.929 17.2211C142.871 17.7629 142.643 18.2476 142.299 18.5897ZM147.417 13.1154C146.846 13.6857 146.016 14.0563 145.13 14.0563C144.787 14.0563 144.501 13.9993 144.187 13.9138C143.958 13.8282 143.729 13.7427 143.5 13.6001C142.957 13.201 142.299 12.9444 141.613 12.8303C141.556 12.8303 141.528 12.8303 141.47 12.8018C141.413 12.8018 141.356 12.7733 141.27 12.7733C141.156 12.7733 141.013 12.7448 140.899 12.7448C140.784 12.7448 140.641 12.7448 140.527 12.7733C140.47 12.7733 140.412 12.7733 140.327 12.8018C140.27 12.8018 140.241 12.8018 140.184 12.8303C139.498 12.9444 138.84 13.201 138.297 13.6001C138.097 13.7142 137.868 13.8282 137.61 13.9138C137.325 13.9993 137.01 14.0563 136.667 14.0563C135.781 14.0563 134.951 13.6857 134.38 13.1154C133.808 12.5452 133.436 11.7184 133.436 10.8345C133.436 9.95063 133.808 9.12378 134.38 8.55355C134.637 8.29694 134.951 8.06884 135.295 7.92628C135.723 7.7267 136.181 7.61266 136.667 7.61266C137.01 7.61266 137.353 7.69819 137.639 7.84075C137.925 7.98331 138.182 8.18289 138.354 8.41099C138.497 8.61057 138.583 8.86718 138.583 9.1523C138.583 9.38039 138.525 9.60848 138.411 9.77955C138.325 9.86509 138.24 9.95063 138.125 9.97914C138.039 10.0077 137.925 9.97913 137.811 9.92211C137.21 9.57997 136.467 9.77955 136.124 10.3783C135.781 10.9771 135.981 11.7184 136.581 12.0605C137.267 12.4597 137.954 12.5452 138.611 12.4026C139.326 12.2601 139.955 11.8324 140.384 11.3192C140.613 11.0341 140.756 10.7204 140.87 10.3783C140.984 10.7204 141.156 11.0341 141.356 11.3192C141.785 11.8609 142.414 12.2601 143.129 12.4026C143.758 12.5452 144.472 12.4597 145.159 12.0605C145.759 11.7184 145.959 10.9771 145.616 10.3783C145.273 9.77955 144.53 9.57997 143.929 9.92211C143.815 9.97913 143.7 10.0077 143.615 9.97914C143.5 9.95063 143.386 9.8936 143.329 9.77955C143.214 9.60848 143.157 9.38039 143.157 9.1523C143.157 8.86718 143.243 8.61057 143.386 8.41099C143.558 8.18289 143.815 7.98331 144.101 7.84075C144.387 7.69819 144.73 7.61266 145.073 7.61266C145.788 7.61266 146.445 7.84075 146.988 8.23992C147.131 8.32545 147.246 8.4395 147.36 8.55355C147.932 9.12378 148.304 9.95063 148.304 10.8345C148.361 11.7184 147.989 12.5167 147.417 13.1154Z" fill="#0A0A0A"/>
<path d="M78.4547 55.7406C83.0294 55.7406 85.3167 54.1154 85.3167 50.8651V36.0104C85.3167 34.3282 84.6305 33.1022 83.2581 32.3039C81.8857 31.5055 80.2846 31.1064 78.4547 31.1064C73.7371 31.1064 71.3926 32.7886 71.3926 36.1815V50.6085C71.4212 54.0584 73.7657 55.7406 78.4547 55.7406ZM77.3397 36.0389C77.3397 35.2406 77.6828 34.8414 78.369 34.8414C79.0552 34.8414 79.3983 35.2406 79.3983 36.0389V50.8081C79.3983 51.6349 79.0552 52.0341 78.369 52.0341C77.6828 52.0341 77.3397 51.6349 77.3397 50.8081V36.0389Z" fill="#0A0A0A"/>
<path d="M87.8041 54.8282C88.6619 55.4555 89.6626 55.7406 90.8348 55.7406C92.5217 55.7406 93.7512 55.37 94.5231 54.6001V55.3985H100.47V31.2775H94.5231V50.9221C94.5231 51.6349 94.18 51.977 93.4939 51.977C92.8077 51.977 92.4645 51.6064 92.4645 50.8651V31.249H86.5175V52.3477C86.5175 53.4026 86.9464 54.201 87.8041 54.8282Z" fill="#0A0A0A"/>
<path d="M110.706 50.9506C110.277 50.7225 110.077 50.2378 110.077 49.525V34.87H113.279V31.306H110.077V26.459H104.13V31.306H101.471V34.87H104.13V49.5821C104.13 51.863 104.387 53.4026 104.93 54.201C105.445 54.9993 107.075 55.3985 109.734 55.3985H113.479V51.3213C112.05 51.3213 111.135 51.2072 110.706 50.9506Z" fill="#0A0A0A"/>
<path d="M80.0558 72.7052L80.113 70.8234C80.113 69.2838 79.3125 68.3429 77.7399 67.9722C79.3125 67.4875 80.0844 66.5751 80.0844 65.2351V63.1537C80.0844 62.0988 79.6841 61.329 78.8836 60.8158C78.083 60.3311 77.1681 60.0745 76.0816 60.0745H71.3641V77.3811H75.1667V69.0842C75.9673 69.0842 76.339 69.3693 76.339 69.9681C76.339 69.9966 76.339 70.7379 76.3104 72.1635L76.2818 73.1899V73.2184C76.2818 75.4994 76.4819 76.8964 76.9108 77.3811H80.7134C80.2846 77.0675 80.0558 75.4994 80.0558 72.7052ZM76.3961 66.0905C76.3961 66.7177 75.9959 67.0028 75.2239 67.0028V62.3269C75.9959 62.3269 76.3961 62.6405 76.3961 63.2393V66.0905Z" fill="#0A0A0A"/>
<path d="M85.6312 59.9319C82.7148 59.9319 81.2567 61.0439 81.2567 63.2963V74.4445C81.2567 76.5258 82.7148 77.5522 85.6026 77.5522C86.8892 77.5522 87.9471 77.2956 88.7477 76.7254C89.5482 76.1837 89.9485 75.4139 89.9485 74.4159V63.2963C89.9485 61.0439 88.4903 59.9319 85.6312 59.9319ZM86.2316 74.6155C86.2316 74.9577 86.0315 75.1287 85.6026 75.1287C85.1737 75.1287 84.9736 74.9577 84.9736 74.6155V62.8401C84.9736 62.498 85.1737 62.3269 85.6026 62.3269C86.0029 62.3269 86.2316 62.498 86.2316 62.8401V74.6155Z" fill="#0A0A0A"/>
<path d="M95.095 59.9319C92.1787 59.9319 90.7205 61.0439 90.7205 63.2963V74.4445C90.7205 76.5258 92.1787 77.5522 95.0664 77.5522C96.353 77.5522 97.4109 77.2956 98.2115 76.7254C99.012 76.1837 99.4123 75.4139 99.4123 74.4159V63.2963C99.4123 61.0439 97.9541 59.9319 95.095 59.9319ZM95.6954 74.6155C95.6954 74.9577 95.4953 75.1287 95.0664 75.1287C94.6375 75.1287 94.4374 74.9577 94.4374 74.6155V62.8401C94.4374 62.498 94.6661 62.3269 95.0664 62.3269C95.4667 62.3269 95.6954 62.498 95.6954 62.8401V74.6155Z" fill="#0A0A0A"/>
<path d="M106.875 69.0842L105.131 60.1029H100.213V77.4096H103.186V67.6871L105.474 77.4096H108.104L110.077 67.6871V77.4096H113.479V60.1029H108.39L106.875 69.0842Z" fill="#0A0A0A"/>
<path d="M10.7218 39.46C13.2664 38.6047 14.5531 37.122 14.5531 35.0407V30.9065C14.5531 29.0532 13.8669 27.7131 12.5231 26.8863C11.1507 26.0595 9.54955 25.6318 7.7197 25.6318H0V55.4266H8.26293C10.0356 55.4266 11.5795 54.9419 12.8662 53.9725C14.1528 53.0031 14.7818 51.5205 14.7818 49.5532V43.7653C14.7818 41.5699 13.438 40.1158 10.7218 39.46ZM8.3773 50.0094C8.3773 51.0643 7.77688 51.5775 6.54745 51.5775V40.9141C7.77688 40.9141 8.3773 41.4273 8.3773 42.4823V50.0094ZM8.3773 36.0956C8.3773 37.1506 7.77688 37.6923 6.54745 37.6923V29.4809C7.77688 29.4809 8.3773 29.9941 8.3773 31.049V36.0956Z" fill="#0A0A0A"/>
<path d="M22.1295 25.632H16.1825V55.4269H22.1295V25.632Z" fill="#0A0A0A"/>
<path d="M45.8604 31.1348C41.1714 31.1348 38.8269 32.817 38.8269 36.2099V50.6369C38.8269 54.0298 41.1714 55.712 45.8604 55.712C50.4351 55.712 52.7224 54.0869 52.7224 50.8365V44.9631H46.7754V50.808C46.7754 51.6348 46.4323 52.034 45.7747 52.034C45.0885 52.034 44.7454 51.6348 44.7454 50.808V36.0389C44.7454 35.2405 45.0885 34.8414 45.7747 34.8414C46.4323 34.8414 46.7754 35.2405 46.7754 36.0389V41.9693H52.7224V36.0104C52.7224 32.76 50.4351 31.1348 45.8604 31.1348Z" fill="#0A0A0A"/>
<path d="M64.8738 41.8553L69.1911 31.3059H63.0439L60.0132 39.0041V25.632H54.0662V55.3984H60.0132V46.7023L63.6443 55.3984H70.6207L64.8738 41.8553Z" fill="#0A0A0A"/>
<path d="M30.8213 31.1348C26.1037 31.1348 23.7306 32.76 23.7306 36.0104V40.8289H29.4489C29.4489 40.4867 29.4203 39.9735 29.3632 39.2892C29.3346 38.6049 29.306 38.0917 29.306 37.7496C29.306 35.8108 29.7063 34.8699 30.4782 34.8699C31.1644 34.8699 31.5075 35.2691 31.5075 36.0674V39.6314C31.5075 40.059 30.8213 40.6008 29.4489 41.285C27.0758 42.4825 25.5033 43.4804 24.7028 44.3073C23.9308 45.1056 23.5305 46.0465 23.5305 47.13V51.977C23.5305 54.486 25.1602 55.7691 28.3911 55.7691C30.4782 55.7691 31.7648 55.3414 32.1937 54.5145V55.4554H37.4545V36.2099C37.4545 32.817 35.253 31.1348 30.8213 31.1348ZM28.534 51.92L29.7634 48.3275C29.0487 48.0423 28.5626 47.3581 28.5626 46.5597C28.5626 45.5048 29.4203 44.6494 30.4782 44.6494C31.5361 44.6494 32.3939 45.5048 32.3939 46.5597C32.3939 47.3581 31.9078 48.0423 31.193 48.3275L32.4225 51.92H28.534Z" fill="#0A0A0A"/>
</svg>
