<svg width="34" height="33" viewBox="0 0 34 33" fill="none" xmlns="http://www.w3.org/2000/svg">
<rect x="1" y="1" width="32" height="31" rx="15.5" stroke="#2B2B2B" stroke-width="2"/>
<g clip-path="url(#clip0)">
<path d="M21.3983 8.1333H13.6017C11.0643 8.1333 9 10.1976 9 12.735V20.5317C9 23.069 11.0643 25.1333 13.6017 25.1333H21.3984C23.9357 25.1333 26 23.069 26 20.5317V12.735C26 10.1976 23.9357 8.1333 21.3983 8.1333V8.1333ZM17.5 21.2816C14.9369 21.2816 12.8517 19.1964 12.8517 16.6333C12.8517 14.0702 14.9369 11.985 17.5 11.985C20.0631 11.985 22.1483 14.0702 22.1483 16.6333C22.1483 19.1964 20.0631 21.2816 17.5 21.2816ZM22.2595 13.0812C21.502 13.0812 20.8859 12.4651 20.8859 11.7077C20.8859 10.9502 21.502 10.334 22.2595 10.334C23.0169 10.334 23.6331 10.9502 23.6331 11.7077C23.6331 12.4651 23.0169 13.0812 22.2595 13.0812Z" fill="#2B2B2B"/>
</g>
<defs>
<clipPath id="clip0">
<rect width="17" height="17" fill="white" transform="translate(9 8.1333)"/>
</clipPath>
</defs>
</svg>
