<svg width="34" height="33" viewBox="0 0 34 33" fill="none" xmlns="http://www.w3.org/2000/svg">
<g clip-path="url(#clip0)">
<g clip-path="url(#clip1)">
<path d="M26 10.5522C25.3306 10.8458 24.6174 11.0404 23.8737 11.1349C24.6388 10.6782 25.2226 9.96043 25.4971 9.0953C24.7839 9.52055 23.9964 9.82093 23.1571 9.98855C22.4799 9.26743 21.5146 8.8208 20.4616 8.8208C18.4186 8.8208 16.7739 10.4791 16.7739 12.5119C16.7739 12.8044 16.7986 13.0857 16.8594 13.3534C13.7915 13.2038 11.0769 11.7334 9.25325 9.49355C8.93487 10.0459 8.74813 10.6782 8.74813 11.3588C8.74813 12.6368 9.40625 13.7697 10.3872 14.4256C9.79437 14.4143 9.21275 14.2422 8.72 13.9711C8.72 13.9823 8.72 13.9969 8.72 14.0116C8.72 15.8048 9.99912 17.2943 11.6765 17.6374C11.3761 17.7196 11.0487 17.7589 10.709 17.7589C10.4727 17.7589 10.2342 17.7454 10.0104 17.6959C10.4885 19.1573 11.8453 20.2317 13.4585 20.2666C12.203 21.2487 10.6089 21.8404 8.88313 21.8404C8.5805 21.8404 8.29025 21.8269 8 21.7898C9.63462 22.8439 11.5719 23.4458 13.661 23.4458C20.4515 23.4458 24.164 17.8208 24.164 12.9451C24.164 12.7819 24.1584 12.6244 24.1505 12.4681C24.8829 11.9483 25.4982 11.2992 26 10.5522Z" fill="#2B2B2B"/>
</g>
</g>
<path d="M1 16.5C1 7.93959 7.93959 1 16.5 1H17.5C26.0604 1 33 7.93959 33 16.5C33 25.0604 26.0604 32 17.5 32H16.5C7.93959 32 1 25.0604 1 16.5Z" stroke="#2B2B2B" stroke-width="2"/>
<defs>
<clipPath id="clip0">
<rect width="18" height="15" fill="white" transform="translate(8 9.1333)"/>
</clipPath>
<clipPath id="clip1">
<rect width="18" height="18" fill="white" transform="translate(8 7.1333)"/>
</clipPath>
</defs>
</svg>
