<svg width="48" height="48" viewBox="0 0 48 48" fill="none" xmlns="http://www.w3.org/2000/svg">
<path d="M33.0696 27.3259H8.32302L29.7524 13.7008C29.8148 13.6612 29.8687 13.6097 29.9111 13.5492C29.9536 13.4887 29.9837 13.4204 29.9997 13.3483C30.0158 13.2762 30.0175 13.2016 30.0047 13.1288C29.9919 13.0561 29.9649 12.9865 29.9253 12.9242L27.8021 9.585C27.3179 8.82529 26.5521 8.28867 25.6728 8.09287C24.7934 7.89708 23.8723 8.05811 23.1115 8.54063L20.0961 10.4579L20.3349 9.315C20.4291 8.90179 20.4407 8.47405 20.369 8.05635C20.2974 7.63865 20.1439 7.23922 19.9174 6.88102C19.6909 6.52282 19.3958 6.2129 19.0492 5.96907C18.7026 5.72525 18.3112 5.55231 17.8975 5.46021C17.4838 5.36811 17.056 5.35866 16.6387 5.4324C16.2214 5.50613 15.8227 5.6616 15.4656 5.88988C15.1086 6.11816 14.8001 6.41474 14.558 6.76259C14.3159 7.11043 14.1449 7.50269 14.0549 7.91681L12.4883 14.9531L7.24293 13.7856C6.46068 13.6112 5.64152 13.7351 4.94585 14.1331C4.25017 14.531 3.72807 15.1742 3.48177 15.9369C3.23547 16.6996 3.28271 17.5267 3.61424 18.2563C3.94577 18.986 4.53772 19.5656 5.27418 19.8818L2.04374 21.9358C1.28405 22.42 0.747452 23.1858 0.55166 24.0651C0.355869 24.9444 0.51688 25.8655 0.999368 26.6263L3.12252 29.9656C3.16215 30.0279 3.21367 30.0819 3.27414 30.1243C3.33461 30.1668 3.40285 30.1969 3.47496 30.2129C3.54707 30.229 3.62164 30.2307 3.69441 30.2179C3.76717 30.2052 3.83671 30.1782 3.89906 30.1386L5.8753 28.8823V43.1218C5.87632 44.0227 6.23466 44.8864 6.87171 45.5234C7.50876 46.1604 8.37248 46.5187 9.27337 46.5197H30.2344C31.1352 46.5187 31.9989 46.1604 32.6359 45.5234C33.2729 44.8864 33.6312 44.0227 33.6322 43.1218V27.8884C33.6322 27.8145 33.6177 27.7413 33.5894 27.6731C33.5611 27.6048 33.5197 27.5428 33.4674 27.4906C33.4152 27.4383 33.3531 27.3969 33.2849 27.3686C33.2166 27.3404 33.1434 27.3259 33.0696 27.3259ZM23.7152 9.49013C24.078 9.25811 24.4996 9.13469 24.9303 9.13444C25.0979 9.13453 25.265 9.15298 25.4286 9.18947C25.7203 9.25361 25.9963 9.37494 26.2407 9.54645C26.4852 9.71796 26.6932 9.93624 26.8527 10.1887L28.6741 13.0532L19.8147 18.6863L16.7738 13.9037L23.7152 9.49013ZM15.153 8.16141C15.2745 7.62006 15.6061 7.14915 16.0748 6.85229C16.5436 6.55542 17.111 6.45692 17.6524 6.57844C18.1937 6.69996 18.6646 7.03156 18.9615 7.50028C19.2584 7.96901 19.3569 8.53646 19.2353 9.07781L18.7735 11.2869L13.7422 14.4978L15.153 8.16141ZM15.8242 14.5073L18.8651 19.2899L13.7314 22.5539L10.6906 17.7713L15.8242 14.5073ZM4.77852 18.0481C4.55651 17.6989 4.44302 17.2918 4.4524 16.8782C4.46178 16.4645 4.59362 16.0629 4.83124 15.7242C5.06886 15.3855 5.40158 15.1248 5.78734 14.9752C6.1731 14.8256 6.59456 14.7937 6.99843 14.8837L11.5439 15.8956L6.49809 19.0586L6.08915 18.9675C5.82075 18.9085 5.56672 18.7969 5.34175 18.6391C5.11678 18.4813 4.92535 18.2804 4.77852 18.0481ZM3.77024 28.8874L1.94896 26.0228C1.62622 25.5139 1.5185 24.8978 1.64944 24.3096C1.78037 23.7214 2.13927 23.2091 2.6474 22.8852L9.74118 18.375L12.782 23.1576L3.77024 28.8874ZM14.6783 45.3947H9.27337C8.67078 45.394 8.09307 45.1543 7.66697 44.7282C7.24087 44.3021 7.00119 43.7244 7.00049 43.1218V28.4509H14.6786L14.6783 45.3947ZM21.8281 45.3947H15.8033V28.4509H21.8281V45.3947ZM32.5071 43.1218C32.5064 43.7244 32.2667 44.3021 31.8406 44.7282C31.4146 45.1542 30.8369 45.394 30.2344 45.3947H22.9531V28.4509H32.5071V43.1218Z" fill="black"/>
<path d="M39.3593 22.216L39.6284 20.6471C39.6461 20.5437 39.6345 20.4374 39.595 20.3402C39.5555 20.243 39.4895 20.1589 39.4047 20.0972C39.3198 20.0355 39.2193 19.9988 39.1147 19.9912C39.0101 19.9836 38.9054 20.0054 38.8125 20.0542L37.4036 20.7948L35.9946 20.0542C35.9017 20.0053 35.797 19.9834 35.6923 19.991C35.5876 19.9986 35.4872 20.0353 35.4022 20.097C35.3173 20.1586 35.2514 20.2429 35.2118 20.3401C35.1723 20.4373 35.1607 20.5437 35.1784 20.6471L35.4475 22.216L34.3077 23.327C34.2325 23.4002 34.1793 23.4931 34.1542 23.595C34.129 23.6969 34.1328 23.8038 34.1653 23.9036C34.1977 24.0035 34.2574 24.0922 34.3377 24.1599C34.4179 24.2276 34.5155 24.2714 34.6194 24.2865L36.1944 24.5154L36.8989 25.9428C36.9453 26.0369 37.0172 26.1162 37.1063 26.1716C37.1955 26.2271 37.2983 26.2565 37.4033 26.2565C37.5083 26.2565 37.6112 26.2271 37.7003 26.1716C37.7895 26.1162 37.8614 26.0369 37.9078 25.9428L38.6121 24.5154L40.1871 24.2865C40.291 24.2714 40.3886 24.2276 40.4689 24.1599C40.5491 24.0922 40.6088 24.0035 40.6413 23.9036C40.6737 23.8038 40.6776 23.6969 40.6524 23.595C40.6272 23.4931 40.574 23.4002 40.4989 23.327L39.3593 22.216ZM38.1577 23.4442C38.0675 23.4573 37.9818 23.4921 37.908 23.5457C37.8342 23.5993 37.7745 23.6701 37.7342 23.7518L37.4033 24.4223L37.0724 23.7518C37.032 23.6701 36.9724 23.5993 36.8986 23.5457C36.8249 23.4921 36.7392 23.4573 36.6489 23.4442L35.9089 23.3366L36.4444 22.8147C36.5097 22.7511 36.5585 22.6725 36.5867 22.5857C36.6149 22.499 36.6216 22.4067 36.6062 22.3168L36.4797 21.5798L37.1416 21.9277C37.2223 21.9701 37.3121 21.9923 37.4033 21.9923C37.4945 21.9923 37.5844 21.9701 37.6651 21.9277L38.3269 21.5798L38.2005 22.3168C38.1851 22.4067 38.1917 22.499 38.2199 22.5857C38.2481 22.6725 38.2969 22.7511 38.3622 22.8147L38.8977 23.3366L38.1577 23.4442Z" fill="black"/>
<path d="M45.8289 14.4656L44.282 14.0897L43.7147 12.6025C43.6773 12.5044 43.6132 12.4188 43.5297 12.3552C43.4461 12.2916 43.3465 12.2527 43.242 12.2428C43.1375 12.233 43.0323 12.2525 42.9383 12.2993C42.8444 12.3461 42.7654 12.4183 42.7103 12.5077L41.8749 13.8626L40.2851 13.9426C40.1803 13.9479 40.0791 13.9824 39.9928 14.0422C39.9066 14.102 39.8388 14.1847 39.7971 14.2811C39.7555 14.3774 39.7416 14.4835 39.7571 14.5873C39.7725 14.6911 39.8167 14.7885 39.8846 14.8685L40.915 16.0817L40.5 17.6183C40.4726 17.7196 40.4741 17.8265 40.5044 17.9271C40.5346 18.0276 40.5924 18.1176 40.6711 18.187C40.7499 18.2564 40.8464 18.3024 40.95 18.3198C41.0535 18.3371 41.1598 18.3252 41.2569 18.2853L42.7287 17.6802L44.0625 18.5499C44.1504 18.6073 44.2526 18.6389 44.3575 18.6412C44.4625 18.6435 44.5659 18.6164 44.6563 18.5629C44.7466 18.5095 44.8202 18.4319 44.8687 18.3388C44.9172 18.2457 44.9387 18.1409 44.9307 18.0363L44.8103 16.4491L46.049 15.45C46.1307 15.3841 46.1923 15.2967 46.2269 15.1977C46.2615 15.0986 46.2677 14.9918 46.2448 14.8894C46.2219 14.787 46.1708 14.6931 46.0973 14.6182C46.0238 14.5433 45.9308 14.4904 45.8289 14.4656ZM43.8736 15.7594C43.8026 15.8166 43.7466 15.8903 43.7104 15.974C43.6742 16.0577 43.6589 16.1489 43.6659 16.2398L43.7221 16.9854L43.0958 16.5768C43.0194 16.527 42.932 16.4965 42.8413 16.4879C42.7505 16.4793 42.659 16.493 42.5746 16.5277L41.8831 16.8119L42.0781 16.09C42.1019 16.002 42.1039 15.9095 42.084 15.8205C42.0641 15.7315 42.0229 15.6487 41.9638 15.5792L41.4798 15.0093L42.2266 14.9718C42.3177 14.9672 42.4063 14.9406 42.4848 14.8942C42.5633 14.8478 42.6294 14.783 42.6773 14.7053L43.0696 14.0689L43.336 14.7675C43.3686 14.8527 43.4213 14.9287 43.4897 14.989C43.5581 15.0493 43.6402 15.092 43.7288 15.1135L44.4554 15.2902L43.8736 15.7594Z" fill="black"/>
<path d="M37.5563 5.32154L37.141 6.8581C37.1136 6.95943 37.1151 7.06641 37.1454 7.16693C37.1756 7.26746 37.2333 7.35752 37.3121 7.42693C37.3908 7.49634 37.4874 7.54234 37.5909 7.55971C37.6945 7.57708 37.8008 7.56513 37.8979 7.52522L39.3698 6.92007L40.703 7.78997C40.7909 7.84732 40.8931 7.87893 40.998 7.88122C41.103 7.88352 41.2064 7.85641 41.2968 7.80295C41.3871 7.7495 41.4607 7.67184 41.5092 7.57876C41.5577 7.48568 41.5791 7.38088 41.5712 7.27622L41.4507 5.68903L42.6897 4.68985C42.7714 4.62397 42.833 4.53656 42.8676 4.4375C42.9022 4.33843 42.9084 4.23167 42.8855 4.12926C42.8626 4.02686 42.8115 3.93291 42.738 3.85802C42.6645 3.78313 42.5716 3.73029 42.4696 3.70547L40.9227 3.32963L40.3555 1.84238C40.3181 1.7443 40.254 1.65864 40.1705 1.5951C40.0869 1.53155 39.9873 1.49265 39.8828 1.4828C39.7782 1.47295 39.6731 1.49254 39.5791 1.53935C39.4852 1.58616 39.4062 1.65833 39.3511 1.74769L38.5158 3.10257L36.926 3.18244C36.8212 3.1877 36.7199 3.22218 36.6336 3.28199C36.5474 3.3418 36.4796 3.42454 36.4379 3.52087C36.3962 3.6172 36.3823 3.72327 36.3978 3.82708C36.4133 3.93089 36.4574 4.02831 36.5254 4.10832L37.5563 5.32154ZM38.8679 4.21116C38.959 4.20659 39.0476 4.17993 39.1261 4.1335C39.2046 4.08707 39.2706 4.02225 39.3185 3.94463L39.7109 3.30816L39.9773 4.00678C40.0098 4.09199 40.0626 4.16802 40.131 4.22832C40.1994 4.28861 40.2815 4.33137 40.3701 4.35291L41.0966 4.52944L40.5146 4.99875C40.4436 5.05599 40.3876 5.12963 40.3514 5.21334C40.3152 5.29704 40.2999 5.38829 40.3068 5.47922L40.363 6.22491L39.7367 5.81625C39.6603 5.76643 39.573 5.73593 39.4822 5.72737C39.3914 5.71882 39.2999 5.73246 39.2155 5.76713L38.524 6.05138L38.719 5.3295C38.7428 5.24146 38.7449 5.14894 38.725 5.05993C38.7051 4.97092 38.6638 4.88808 38.6048 4.81857L38.1207 4.24857L38.8679 4.21116Z" fill="black"/>
<path d="M27.3512 22.297C26.0813 23.0963 25.4609 24.0647 25.4351 24.1056C25.3552 24.2316 25.3286 24.3841 25.3612 24.5297C25.3938 24.6753 25.4829 24.802 25.6088 24.8819C25.7348 24.9618 25.8874 24.9883 26.033 24.9558C26.1786 24.9232 26.3052 24.8341 26.3851 24.7081C26.4695 24.5769 28.5047 21.5004 32.9345 22.5962C33.0788 22.6305 33.2307 22.6064 33.3574 22.5292C33.484 22.4521 33.575 22.328 33.6106 22.1841C33.6462 22.0402 33.6236 21.888 33.5476 21.7606C33.4716 21.6333 33.3484 21.5412 33.2048 21.5042C30.4793 20.8299 28.5172 21.5631 27.3512 22.297Z" fill="black"/>
<path d="M38.025 16.34C38.1628 16.3971 38.3177 16.3973 38.4555 16.3403C38.5934 16.2833 38.703 16.1738 38.7602 16.036C38.8174 15.8982 38.8175 15.7434 38.7605 15.6055C38.7035 15.4676 38.594 15.358 38.4562 15.3008C34.4518 13.6389 31.5413 14.8835 29.805 16.2203C28.653 17.1162 27.6996 18.2413 27.0049 19.5246C26.972 19.5908 26.9525 19.6628 26.9475 19.7365C26.9424 19.8102 26.952 19.8842 26.9755 19.9542C26.9991 20.0242 27.0362 20.0889 27.0847 20.1445C27.1333 20.2002 27.1923 20.2458 27.2585 20.2786C27.3247 20.3115 27.3966 20.331 27.4703 20.336C27.544 20.341 27.618 20.3315 27.688 20.308C27.758 20.2844 27.8227 20.2473 27.8784 20.1987C27.9341 20.1502 27.9796 20.0912 28.0125 20.025C28.6324 18.8957 29.4757 17.9044 30.4912 17.1117C32.6745 15.4312 35.2092 15.1714 38.025 16.34Z" fill="black"/>
<path d="M31.7042 12.1729C31.6583 12.3148 31.6706 12.4691 31.7385 12.602C31.8064 12.7348 31.9243 12.8352 32.0662 12.8811C32.8406 13.1093 33.6437 13.2254 34.4511 13.2258C35.3917 13.2258 36.4782 13.056 37.4525 12.4785C38.7275 11.723 39.545 10.4359 39.8838 8.65347C39.8979 8.58079 39.8975 8.50603 39.8826 8.4335C39.8677 8.36097 39.8387 8.29209 39.7971 8.23081C39.7556 8.16953 39.7023 8.11705 39.6405 8.07639C39.5786 8.03573 39.5093 8.00769 39.4365 7.99387C39.3638 7.98004 39.2891 7.98072 39.2166 7.99585C39.1441 8.01098 39.0753 8.04028 39.0142 8.08205C38.9531 8.12382 38.9008 8.17725 38.8603 8.23927C38.8199 8.30129 38.7921 8.37069 38.7786 8.44348C38.5031 9.89294 37.8656 10.9241 36.8838 11.5082C35.0162 12.6194 32.4525 11.8238 32.4119 11.8109C32.27 11.7651 32.1158 11.7776 31.9831 11.8454C31.8505 11.9133 31.7501 12.0311 31.7042 12.1729Z" fill="black"/>
<path d="M24.2688 26.7069C24.4691 26.7069 24.665 26.6475 24.8316 26.5362C24.9982 26.4249 25.1281 26.2667 25.2048 26.0815C25.2815 25.8964 25.3016 25.6927 25.2625 25.4962C25.2234 25.2997 25.1269 25.1192 24.9852 24.9775C24.8436 24.8358 24.6631 24.7393 24.4665 24.7002C24.27 24.6611 24.0663 24.6812 23.8812 24.7578C23.6961 24.8345 23.5379 24.9644 23.4265 25.131C23.3152 25.2976 23.2558 25.4934 23.2558 25.6938C23.2561 25.9624 23.3629 26.2198 23.5528 26.4097C23.7427 26.5997 24.0002 26.7065 24.2688 26.7069ZM24.2688 25.5819C24.2909 25.5818 24.3126 25.5884 24.331 25.6007C24.3495 25.613 24.3639 25.6305 24.3723 25.651C24.3808 25.6714 24.3831 25.694 24.3787 25.7157C24.3744 25.7375 24.3638 25.7574 24.3481 25.7731C24.3324 25.7888 24.3124 25.7994 24.2907 25.8038C24.269 25.8081 24.2464 25.8059 24.2259 25.7974C24.2055 25.7889 24.188 25.7745 24.1757 25.7561C24.1634 25.7376 24.1568 25.716 24.1568 25.6938C24.157 25.6641 24.1688 25.6358 24.1898 25.6148C24.2107 25.5938 24.2391 25.582 24.2688 25.5819Z" fill="black"/>
<path d="M32.2394 8.33185C32.4397 8.33185 32.6356 8.27243 32.8022 8.16112C32.9688 8.0498 33.0987 7.89158 33.1753 7.70647C33.252 7.52136 33.2721 7.31766 33.233 7.12115C33.1939 6.92463 33.0974 6.74412 32.9557 6.60244C32.814 6.46076 32.6335 6.36428 32.437 6.32519C32.2405 6.2861 32.0368 6.30616 31.8517 6.38284C31.6666 6.45952 31.5084 6.58936 31.397 6.75596C31.2857 6.92256 31.2263 7.11842 31.2263 7.31879C31.2266 7.58738 31.3334 7.84488 31.5234 8.0348C31.7133 8.22472 31.9708 8.33155 32.2394 8.33185ZM32.2394 7.20685C32.2615 7.20685 32.2832 7.21342 32.3016 7.22574C32.3201 7.23805 32.3344 7.25555 32.3429 7.27603C32.3514 7.29651 32.3536 7.31904 32.3493 7.34077C32.3449 7.36251 32.3342 7.38247 32.3186 7.39813C32.3029 7.4138 32.2829 7.42446 32.2612 7.42877C32.2394 7.43308 32.2169 7.43085 32.1964 7.42236C32.176 7.41386 32.1585 7.39949 32.1462 7.38105C32.1339 7.36262 32.1273 7.34095 32.1273 7.31879C32.1275 7.28913 32.1394 7.26073 32.1603 7.23977C32.1813 7.2188 32.2097 7.20697 32.2394 7.20685Z" fill="black"/>
<path d="M46.5182 7.55936C46.3178 7.55936 46.122 7.61877 45.9554 7.73009C45.7888 7.84142 45.6589 7.99964 45.5822 8.18476C45.5056 8.36988 45.4855 8.57357 45.5246 8.77009C45.5637 8.96661 45.6602 9.14712 45.8019 9.28879C45.9436 9.43047 46.1241 9.52695 46.3206 9.56603C46.5171 9.6051 46.7208 9.58503 46.9059 9.50834C47.091 9.43165 47.2493 9.30179 47.3606 9.13518C47.4719 8.96857 47.5313 8.77269 47.5313 8.57232C47.531 8.30374 47.4241 8.04625 47.2342 7.85634C47.0443 7.66644 46.7868 7.55963 46.5182 7.55936ZM46.5182 8.68436C46.496 8.68436 46.4744 8.67778 46.4559 8.66547C46.4375 8.65316 46.4232 8.63567 46.4147 8.6152C46.4062 8.59473 46.404 8.5722 46.4083 8.55047C46.4126 8.52874 46.4233 8.50877 46.439 8.49311C46.4546 8.47744 46.4746 8.46677 46.4963 8.46245C46.5181 8.45812 46.5406 8.46034 46.5611 8.46882C46.5815 8.4773 46.599 8.49166 46.6113 8.51008C46.6237 8.52851 46.6302 8.55017 46.6302 8.57232C46.6301 8.602 46.6183 8.63042 46.5973 8.65141C46.5763 8.67239 46.5479 8.68423 46.5182 8.68436Z" fill="black"/>
<path d="M23.8541 21.0025C23.8541 20.8021 23.7947 20.6063 23.6834 20.4396C23.572 20.273 23.4138 20.1432 23.2286 20.0665C23.0435 19.9899 22.8398 19.9698 22.6432 20.009C22.4467 20.0481 22.2662 20.1447 22.1245 20.2864C21.9829 20.4281 21.8864 20.6087 21.8474 20.8052C21.8084 21.0018 21.8285 21.2055 21.9053 21.3906C21.982 21.5757 22.112 21.7339 22.2786 21.8451C22.4453 21.9564 22.6412 22.0157 22.8416 22.0156C23.1101 22.0152 23.3675 21.9083 23.5573 21.7184C23.7471 21.5285 23.8539 21.271 23.8541 21.0025ZM22.8416 21.115C22.8195 21.1151 22.7978 21.1085 22.7794 21.0962C22.761 21.084 22.7466 21.0665 22.7381 21.046C22.7296 21.0256 22.7273 21.0031 22.7316 20.9814C22.7359 20.9597 22.7465 20.9397 22.7621 20.924C22.7777 20.9083 22.7977 20.8976 22.8194 20.8932C22.8411 20.8888 22.8636 20.891 22.8841 20.8994C22.9045 20.9078 22.9221 20.922 22.9345 20.9404C22.9468 20.9588 22.9535 20.9804 22.9536 21.0025C22.9534 21.0323 22.9415 21.0608 22.9205 21.0817C22.8994 21.1027 22.8709 21.1145 22.8412 21.1146L22.8416 21.115Z" fill="black"/>
<path d="M44.85 21.6386C44.6496 21.6386 44.4537 21.698 44.2872 21.8093C44.1206 21.9207 43.9907 22.0789 43.914 22.264C43.8374 22.4491 43.8173 22.6528 43.8564 22.8493C43.8955 23.0458 43.992 23.2263 44.1336 23.368C44.2753 23.5097 44.4558 23.6062 44.6523 23.6453C44.8489 23.6844 45.0525 23.6643 45.2377 23.5876C45.4228 23.5109 45.581 23.3811 45.6923 23.2145C45.8036 23.0479 45.863 22.852 45.863 22.6517C45.8627 22.3831 45.7559 22.1256 45.566 21.9357C45.3761 21.7457 45.1186 21.6389 44.85 21.6386ZM44.85 22.7636C44.8278 22.7636 44.8062 22.757 44.7878 22.7447C44.7694 22.7324 44.7551 22.7149 44.7466 22.6944C44.7382 22.674 44.736 22.6515 44.7403 22.6298C44.7446 22.6081 44.7553 22.5881 44.771 22.5725C44.7866 22.5568 44.8066 22.5462 44.8283 22.5419C44.85 22.5376 44.8725 22.5398 44.8929 22.5483C44.9134 22.5567 44.9309 22.5711 44.9432 22.5895C44.9554 22.6079 44.962 22.6295 44.962 22.6517C44.9619 22.6813 44.95 22.7097 44.929 22.7307C44.908 22.7517 44.8796 22.7635 44.85 22.7636Z" fill="black"/>
</svg>
