<svg width="34" height="34" viewBox="0 0 34 34" fill="none" xmlns="http://www.w3.org/2000/svg">
<path d="M1 17.3667C1 8.80629 7.93959 1.8667 16.5 1.8667H17.5C26.0604 1.8667 33 8.80629 33 17.3667C33 25.9271 26.0604 32.8667 17.5 32.8667H16.5C7.93959 32.8667 1 25.9271 1 17.3667Z" stroke="white" stroke-width="2"/>
<path d="M21.6054 7.00416L19.2113 7C16.5217 7 14.7835 8.9319 14.7835 11.922V14.1914H12.3764C12.1684 14.1914 12 14.3741 12 14.5994V17.8875C12 18.1128 12.1686 18.2953 12.3764 18.2953H14.7835V26.5922C14.7835 26.8175 14.952 27 15.16 27H18.3006C18.5086 27 18.677 26.8173 18.677 26.5922V18.2953H21.4915C21.6995 18.2953 21.8679 18.1128 21.8679 17.8875L21.8691 14.5994C21.8691 14.4912 21.8293 14.3876 21.7588 14.311C21.6884 14.2345 21.5923 14.1914 21.4925 14.1914H18.677V12.2676C18.677 11.343 18.8804 10.8736 19.9923 10.8736L21.605 10.873C21.8128 10.873 21.9812 10.6903 21.9812 10.4651V7.41197C21.9812 7.18705 21.813 7.00458 21.6054 7.00416Z" fill="white"/>
</svg>
