<svg width="34" height="34" viewBox="0 0 34 34" fill="none" xmlns="http://www.w3.org/2000/svg">
<g clip-path="url(#clip0)">
<rect x="1" y="1.8667" width="32" height="31" rx="15.5" stroke="white" stroke-width="2"/>
</g>
<path d="M21.3983 9H13.6017C11.0643 9 9 11.0643 9 13.6017V21.3984C9 23.9357 11.0643 26 13.6017 26H21.3984C23.9357 26 26 23.9357 26 21.3984V13.6017C26 11.0643 23.9357 9 21.3983 9V9ZM17.5 22.1483C14.9369 22.1483 12.8517 20.0631 12.8517 17.5C12.8517 14.9369 14.9369 12.8517 17.5 12.8517C20.0631 12.8517 22.1483 14.9369 22.1483 17.5C22.1483 20.0631 20.0631 22.1483 17.5 22.1483ZM22.2595 13.9479C21.502 13.9479 20.8859 13.3318 20.8859 12.5744C20.8859 11.8169 21.502 11.2007 22.2595 11.2007C23.0169 11.2007 23.6331 11.8169 23.6331 12.5744C23.6331 13.3318 23.0169 13.9479 22.2595 13.9479Z" fill="white"/>
<defs>
<clipPath id="clip0">
<rect y="0.866699" width="34" height="33" rx="6" fill="white"/>
</clipPath>
</defs>
</svg>
