<svg width="136" height="70" viewBox="0 0 136 70" fill="none" xmlns="http://www.w3.org/2000/svg">
<path d="M135.371 41.5095L135.129 41.2439L135.25 40.9058C136.144 38.636 135.395 36.7042 134.719 35.5934C134.429 36.8974 133.97 37.8633 133.729 38.3221C134.284 39.6019 134.332 40.8334 133.874 41.9442C133.777 42.1615 133.68 42.3788 133.536 42.572C134.284 44.2623 134.381 45.6387 133.777 46.7254C133.149 47.8362 131.966 48.2708 131.29 48.4157C130.783 52.8105 126.364 53.1245 126.316 53.1245H126.291C126.002 53.1245 125.736 52.883 125.736 52.5932C125.712 52.2793 125.953 52.0137 126.267 51.9895C126.412 51.9895 130.034 51.6998 130.203 47.9086L130.227 47.4256L130.71 47.3774C130.735 47.3774 132.208 47.2083 132.787 46.1458C133.149 45.4939 133.125 44.6245 132.715 43.5621C131.99 44.2865 131.145 44.7211 130.686 44.9385C130.662 45.518 130.517 46.0492 130.227 46.5322C129.6 47.643 128.32 48.4398 126.605 48.7779C126.533 48.8021 126.388 48.8021 126.195 48.8262C125.35 48.9228 123.37 49.1401 122.693 50.3716C122.259 51.1444 122.355 52.2793 123.031 53.7281C123.659 55.1287 124.504 55.9256 125.47 56.0946C127.354 56.4327 129.358 54.5009 129.382 54.5009C138.8 45.518 135.419 41.5578 135.371 41.5095Z" fill="white"/>
<path d="M125.398 41.7027C125.35 41.7027 125.301 41.7027 125.277 41.7027C124.673 41.7027 124.118 41.4612 123.611 40.9783C123.321 40.6885 123.056 40.3504 122.814 39.9399C122.669 40.4953 122.476 41.6303 122.476 43.9001C122.476 47.1117 122.959 48.1742 123.2 48.4881C124.239 47.9327 125.47 47.7879 126.122 47.7154C126.267 47.6913 126.364 47.6913 126.436 47.6671C127.813 47.4015 128.827 46.7978 129.286 45.9768C129.696 45.2524 129.696 44.3106 129.31 43.1757C129.213 42.8859 129.358 42.5479 129.648 42.4513C129.938 42.3547 130.252 42.4996 130.372 42.7893C130.493 43.1033 130.565 43.4172 130.638 43.7311C131.338 43.3447 132.401 42.6203 132.859 41.5095C133.222 40.6402 133.125 39.626 132.618 38.5394L132.473 38.2496L132.642 37.984C132.715 37.8874 133.632 36.4144 133.825 34.1928C133.825 34.1687 133.825 34.1445 133.825 34.1445C133.922 32.8889 133.777 31.4159 133.125 29.8221C132.135 27.4315 131.338 26.4898 130.879 26.1034C130.879 26.9727 130.686 27.6489 130.517 28.0352C131.459 29.0253 132.256 30.4983 131.966 32.5508C132.715 32.6957 132.956 33.1062 133.029 33.2994C133.149 33.5891 132.98 33.9272 132.69 34.0238C132.618 34.0479 132.57 34.0721 132.497 34.0721C132.304 34.0721 132.111 33.9514 131.99 33.7823C131.918 33.734 131.435 33.4201 129.696 33.9514C129.841 34.7482 129.841 35.7383 129.527 37.0181C129.455 37.2837 129.237 37.4527 128.972 37.4527C128.923 37.4527 128.875 37.4527 128.851 37.4286C128.537 37.3562 128.368 37.0422 128.441 36.7525C129.286 33.1786 127.523 32.3335 127.523 32.3093C127.233 32.1886 127.112 31.8505 127.257 31.5608C127.378 31.271 127.716 31.1503 128.006 31.2951C128.078 31.3193 128.899 31.7298 129.406 32.8647C129.962 32.6957 130.445 32.5991 130.831 32.5508C131.435 28.8079 127.74 27.4798 127.571 27.4074C127.281 27.3108 127.112 26.9727 127.233 26.683C127.33 26.3932 127.668 26.2242 127.958 26.3449C127.982 26.3449 128.73 26.6347 129.6 27.2625C129.817 26.5139 129.962 25.0651 128.779 23.4472C127.619 21.8535 125.277 20.4288 123.877 20.8876C122.742 21.2498 122.5 22.8677 122.5 24.1475V27.2867C122.5 27.8662 122.645 29.4599 123.345 30.1844C123.587 30.4258 123.852 30.5224 124.191 30.5224C124.504 30.5224 124.746 30.7639 124.746 31.0778C124.746 31.3917 124.504 31.6332 124.191 31.6332C123.804 31.6332 123.466 31.5608 123.152 31.3917C122.959 32.2127 122.693 33.5409 122.693 34.9173C122.693 36.6559 123.345 39.1431 124.408 40.1331C124.722 40.4229 125.012 40.5678 125.35 40.5436C125.664 40.5195 125.929 40.7609 125.953 41.0749C125.929 41.4129 125.712 41.6786 125.398 41.7027Z" fill="white"/>
<path d="M111.827 48.8262C111.658 48.8021 111.513 48.7779 111.417 48.7779C109.702 48.4398 108.422 47.643 107.794 46.5322C107.529 46.0492 107.384 45.518 107.336 44.9385C106.877 44.7211 106.032 44.2865 105.307 43.5621C104.921 44.6487 104.873 45.518 105.235 46.1458C105.814 47.2083 107.287 47.3532 107.311 47.3774L107.794 47.4256L107.819 47.9086C108.012 51.7239 111.61 51.9895 111.755 51.9895C112.069 52.0137 112.31 52.2793 112.286 52.5932C112.262 52.883 112.02 53.1245 111.73 53.1245H111.706C111.658 53.1245 107.239 52.8105 106.732 48.4157C106.08 48.2708 104.873 47.8362 104.245 46.7254C103.641 45.6629 103.738 44.2623 104.486 42.572C104.365 42.3788 104.245 42.1615 104.148 41.9442C103.689 40.8334 103.738 39.626 104.293 38.3221C104.052 37.8874 103.569 36.9215 103.303 35.5934C102.627 36.7042 101.878 38.636 102.772 40.9058L102.892 41.2439L102.651 41.5095C102.627 41.5578 99.222 45.518 108.591 54.4767C108.615 54.5009 110.62 56.4327 112.503 56.0704C113.493 55.8773 114.314 55.0804 114.942 53.704C115.594 52.2551 115.715 51.1444 115.28 50.3475C114.652 49.1401 112.672 48.9228 111.827 48.8262Z" fill="white"/>
<path d="M114.218 20.8634C112.817 20.4046 110.475 21.8535 109.316 23.4231C108.132 25.0409 108.277 26.4656 108.495 27.2384C109.364 26.6105 110.113 26.3449 110.137 26.3208C110.426 26.2242 110.74 26.3691 110.861 26.6588C110.958 26.9486 110.813 27.2867 110.523 27.3832C110.354 27.4315 106.684 28.7838 107.263 32.5267C107.674 32.575 108.132 32.6715 108.688 32.8406C109.195 31.6815 110.016 31.2951 110.088 31.271C110.378 31.1503 110.716 31.271 110.837 31.5366C110.958 31.8264 110.837 32.1644 110.571 32.2852C110.547 32.2852 108.809 33.1545 109.654 36.7283C109.726 37.0422 109.533 37.332 109.243 37.4044C109.195 37.4044 109.147 37.4286 109.123 37.4286C108.857 37.4286 108.64 37.2596 108.567 36.9939C108.277 35.7141 108.253 34.7241 108.398 33.9272C106.659 33.396 106.177 33.7099 106.104 33.7582C106.007 33.9514 105.814 34.048 105.597 34.048C105.525 34.048 105.452 34.0479 105.404 33.9997C105.114 33.8789 104.969 33.565 105.066 33.2752C105.138 33.082 105.38 32.6715 106.128 32.5267C105.863 30.4741 106.635 29.0011 107.577 28.0111C107.408 27.6247 107.191 26.9486 107.215 26.0793C106.756 26.4656 105.959 27.4074 104.969 29.798C104.293 31.3917 104.172 32.8647 104.245 34.1204C104.245 34.1445 104.245 34.1687 104.245 34.1687C104.438 36.3903 105.356 37.8633 105.428 37.9598L105.597 38.2255L105.452 38.5152C104.921 39.6019 104.848 40.6161 105.211 41.4854C105.669 42.5961 106.732 43.3206 107.432 43.7069C107.505 43.4172 107.577 43.1033 107.698 42.7652C107.794 42.4754 108.132 42.3064 108.422 42.4271C108.712 42.5237 108.857 42.8618 108.76 43.1516C108.35 44.2865 108.35 45.2282 108.784 45.9527C109.243 46.7737 110.257 47.3532 111.634 47.643C111.706 47.6671 111.803 47.6671 111.948 47.6913C112.6 47.7637 113.831 47.9086 114.87 48.464C115.111 48.1501 115.594 47.0876 115.594 43.876C115.594 41.6303 115.425 40.4953 115.256 39.9158C115.014 40.3263 114.749 40.6885 114.459 40.9541C113.952 41.4371 113.397 41.6786 112.793 41.6786C112.745 41.6786 112.696 41.6786 112.672 41.6786C112.358 41.6544 112.117 41.3888 112.141 41.0749C112.165 40.7609 112.431 40.5195 112.745 40.5436C113.083 40.5678 113.372 40.4229 113.686 40.1331C114.749 39.1431 115.401 36.6559 115.401 34.9173C115.401 33.5409 115.135 32.2127 114.942 31.3917C114.628 31.5366 114.29 31.6332 113.904 31.6332C113.59 31.6332 113.348 31.3917 113.348 31.0778C113.348 30.7639 113.59 30.5224 113.904 30.5224C114.242 30.5224 114.507 30.4017 114.749 30.1844C115.449 29.4841 115.594 27.8662 115.594 27.2867V24.1233C115.594 22.8435 115.353 21.2498 114.218 20.8634Z" fill="white"/>
<path fill-rule="evenodd" clip-rule="evenodd" d="M127.426 9.20019C127.426 9.17604 127.426 9.17604 127.426 9.15189C127.426 7.82378 126.895 6.61641 126.002 5.7471C125.977 5.72295 125.977 5.72295 125.953 5.69881C125.905 5.65051 125.881 5.62636 125.833 5.57807C125.808 5.55392 125.784 5.52977 125.736 5.50562C125.712 5.48147 125.688 5.45733 125.664 5.43318C125.615 5.40903 125.567 5.36074 125.543 5.33659C125.519 5.33659 125.519 5.31244 125.495 5.31244C125.446 5.26415 125.374 5.24 125.325 5.19171C124.577 4.68461 123.708 4.37069 122.742 4.34655C122.766 4.15337 122.79 3.96019 122.79 3.76701C122.79 2.72867 122.379 1.78691 121.679 1.11079C121.003 0.434656 120.061 0 119.023 0C117.985 0 117.043 0.410509 116.367 1.11079C115.691 1.78691 115.256 2.72867 115.256 3.76701C115.256 3.96019 115.28 4.15337 115.304 4.34655C114.338 4.37069 113.469 4.68461 112.72 5.19171C112.672 5.24 112.6 5.26415 112.551 5.31244C112.527 5.33659 112.527 5.3366 112.503 5.36074C112.455 5.38489 112.431 5.43318 112.382 5.45733C112.334 5.48148 112.31 5.52977 112.262 5.55392C112.238 5.57807 112.213 5.57807 112.213 5.60222C112.165 5.65051 112.093 5.6988 112.044 5.77125C111.899 5.91613 111.779 6.03687 111.658 6.18176C111.006 7.00277 110.62 8.04111 110.62 9.17604C110.62 10.5042 111.151 11.7115 112.044 12.5808C112.89 13.426 114.024 13.9572 115.304 13.9814C115.28 14.1746 115.256 14.3677 115.256 14.5609C115.256 15.5993 115.666 16.541 116.367 17.2171C116.705 17.5552 117.091 17.8208 117.526 17.9899H117.357C116.729 17.9899 116.222 18.497 116.222 19.1248C116.222 19.7526 116.729 20.2597 117.357 20.2597C116.729 20.2597 116.222 20.7668 116.222 21.3947C116.222 22.0225 116.729 22.5537 117.357 22.5537H117.526V68.3615C117.526 68.9652 118.009 69.4481 118.612 69.4481H119.409C120.013 69.4481 120.496 68.9652 120.496 68.3615V64.7152H126.291V61.6727H120.496V60.8275H126.291V57.7849H120.496V22.602H120.665C121.293 22.602 121.8 22.0949 121.8 21.443C121.8 20.8151 121.293 20.308 120.665 20.308C121.293 20.308 121.8 19.8009 121.8 19.1731C121.8 18.5453 121.293 18.0382 120.665 18.0382H120.496C120.931 17.845 121.317 17.5794 121.655 17.2654C122.331 16.5893 122.766 15.6476 122.766 14.6092C122.766 14.416 122.742 14.2229 122.718 14.0297C123.997 13.9814 125.132 13.4743 125.977 12.6291C126.871 11.7115 127.402 10.5283 127.426 9.20019ZM117.864 2.58378C118.154 2.29401 118.588 2.10083 119.023 2.10083C119.482 2.10083 119.892 2.29401 120.182 2.58378C120.472 2.87355 120.665 3.3082 120.665 3.74286C120.665 4.20166 120.472 4.61217 120.182 4.92608C120.134 4.97438 120.085 4.99853 120.037 5.04682C119.989 5.07097 119.941 5.09511 119.892 5.14341C119.675 5.28829 119.458 5.36074 119.24 5.40903C119.168 5.40903 119.095 5.43318 119.023 5.43318C118.951 5.43318 118.878 5.43318 118.806 5.40903C118.588 5.38489 118.347 5.28829 118.154 5.14341C118.105 5.11926 118.057 5.09512 118.009 5.04682C117.96 4.99853 117.912 4.97438 117.864 4.92608C117.574 4.63631 117.381 4.20166 117.381 3.74286C117.381 3.3082 117.574 2.8977 117.864 2.58378ZM120.206 15.7442C119.916 16.0339 119.482 16.2271 119.047 16.2271C118.588 16.2271 118.178 16.0339 117.888 15.7442C117.598 15.4544 117.405 15.0197 117.405 14.5851C117.405 14.1263 117.598 13.7158 117.888 13.426C117.936 13.3777 117.985 13.3536 118.033 13.3053C118.081 13.2811 118.13 13.257 118.178 13.2087C118.371 13.0638 118.612 12.9913 118.83 12.943C118.83 12.943 118.83 12.943 118.854 12.943C118.926 12.943 118.999 12.9189 119.071 12.9189C119.144 12.9189 119.216 12.9189 119.289 12.943C119.289 12.943 119.289 12.943 119.313 12.943C119.53 12.9672 119.772 13.0638 119.965 13.2087C120.013 13.2328 120.061 13.257 120.11 13.3053C120.158 13.3536 120.206 13.3777 120.255 13.426C120.544 13.7158 120.737 14.1504 120.737 14.5851C120.689 15.0439 120.496 15.4544 120.206 15.7442ZM124.529 11.1078C124.046 11.5908 123.345 11.9047 122.597 11.9047C122.307 11.9047 122.066 11.8564 121.8 11.784C121.607 11.7115 121.414 11.6391 121.22 11.5183C120.762 11.1803 120.206 10.963 119.627 10.8664C119.578 10.8664 119.554 10.8664 119.506 10.8422C119.458 10.8422 119.409 10.8181 119.337 10.8181C119.24 10.8181 119.12 10.7939 119.023 10.7939C118.926 10.7939 118.806 10.7939 118.709 10.8181C118.661 10.8181 118.612 10.8181 118.54 10.8422C118.492 10.8422 118.468 10.8422 118.419 10.8664C117.84 10.963 117.284 11.1803 116.826 11.5183C116.657 11.6149 116.463 11.7115 116.246 11.784C116.005 11.8564 115.739 11.9047 115.449 11.9047C114.701 11.9047 114 11.5908 113.517 11.1078C113.034 10.6249 112.72 9.92461 112.72 9.17604C112.72 8.42747 113.034 7.72719 113.517 7.24424C113.735 7.02692 114 6.83373 114.29 6.713C114.652 6.54396 115.039 6.44738 115.449 6.44738C115.739 6.44738 116.029 6.51982 116.27 6.64056C116.512 6.76129 116.729 6.93033 116.874 7.12351C116.995 7.29254 117.067 7.50987 117.067 7.75134C117.067 7.94452 117.019 8.1377 116.922 8.28258C116.85 8.35502 116.777 8.42747 116.681 8.45162C116.608 8.47576 116.512 8.45161 116.415 8.40332C115.908 8.11355 115.28 8.28258 114.99 8.78968C114.701 9.29678 114.87 9.92461 115.377 10.2144C115.956 10.5524 116.536 10.6249 117.091 10.5042C117.695 10.3834 118.226 10.0212 118.588 9.58655C118.782 9.34508 118.902 9.07945 118.999 8.78968C119.095 9.07945 119.24 9.34508 119.409 9.58655C119.772 10.0454 120.303 10.3834 120.906 10.5042C121.438 10.6249 122.041 10.5524 122.621 10.2144C123.128 9.92461 123.297 9.29678 123.007 8.78968C122.718 8.28258 122.09 8.11355 121.583 8.40332C121.486 8.45161 121.389 8.47576 121.317 8.45162C121.22 8.42747 121.124 8.37917 121.076 8.28258C120.979 8.1377 120.931 7.94452 120.931 7.75134C120.931 7.50987 121.003 7.29254 121.124 7.12351C121.269 6.93033 121.486 6.76129 121.727 6.64056C121.969 6.51982 122.259 6.44738 122.549 6.44738C123.152 6.44738 123.708 6.64055 124.166 6.97862C124.287 7.05106 124.384 7.14765 124.48 7.24424C124.963 7.72719 125.277 8.42747 125.277 9.17604C125.325 9.92461 125.012 10.6007 124.529 11.1078Z" fill="white"/>
<path d="M66.2849 47.2083C70.1485 47.2083 72.0803 45.8319 72.0803 43.0791V30.4982C72.0803 29.0735 71.5007 28.0352 70.3416 27.3591C69.1826 26.6829 67.8303 26.3449 66.2849 26.3449C62.3005 26.3449 60.3205 27.7696 60.3205 30.6431V42.8618C60.3446 45.7836 62.3247 47.2083 66.2849 47.2083ZM65.3431 30.5224C65.3431 29.8463 65.6329 29.5082 66.2124 29.5082C66.792 29.5082 67.0817 29.8463 67.0817 30.5224V43.0308C67.0817 43.7311 66.792 44.0691 66.2124 44.0691C65.6329 44.0691 65.3431 43.7311 65.3431 43.0308V30.5224Z" fill="white"/>
<path d="M74.1811 46.4356C74.9055 46.9668 75.7507 47.2083 76.7407 47.2083C78.1654 47.2083 79.2038 46.8944 79.8558 46.2424V46.9185H84.8784V26.4898H79.8558V43.1274C79.8558 43.7311 79.566 44.0208 78.9865 44.0208C78.4069 44.0208 78.1171 43.7069 78.1171 43.0791V26.4656H73.0945V44.3348C73.0945 45.2282 73.4567 45.9043 74.1811 46.4356Z" fill="white"/>
<path d="M93.5232 43.1515C93.161 42.9584 92.992 42.5479 92.992 41.9442V29.5324H95.6965V26.5139H92.992V22.4089H87.9693V26.5139H85.7236V29.5324H87.9693V41.9925C87.9693 43.9243 88.1866 45.2282 88.6454 45.9044C89.0801 46.5805 90.4565 46.9185 92.7022 46.9185H95.8655V43.4655C94.6581 43.4655 93.8854 43.3689 93.5232 43.1515Z" fill="white"/>
<path d="M67.6371 61.5761L67.6854 59.9824C67.6854 58.6784 67.0093 57.8815 65.6812 57.5676C67.0093 57.1571 67.6613 56.3844 67.6613 55.2495V53.4867C67.6613 52.5932 67.3232 51.9413 66.6471 51.5066C65.9709 51.0961 65.1982 50.8788 64.2806 50.8788H60.2963V65.5363H63.5079V58.5094C64.184 58.5094 64.498 58.7508 64.498 59.2579C64.498 59.2821 64.498 59.9099 64.4738 61.1173L64.4497 61.9866V62.0107C64.4497 63.9425 64.6187 65.1258 64.9809 65.5363H68.1925C67.8303 65.2707 67.6371 63.9426 67.6371 61.5761ZM64.5462 55.9739C64.5462 56.5051 64.2082 56.7466 63.5562 56.7466V52.7864C64.2082 52.7864 64.5462 53.052 64.5462 53.5591V55.9739Z" fill="white"/>
<path d="M72.3459 50.7581C69.8828 50.7581 68.6513 51.6998 68.6513 53.6075V63.0491C68.6513 64.8119 69.8828 65.6812 72.3217 65.6812C73.4084 65.6812 74.3018 65.4639 74.978 64.9809C75.6541 64.5221 75.9922 63.8701 75.9922 63.025V53.6075C75.9922 51.6998 74.7606 50.7581 72.3459 50.7581ZM72.853 63.194C72.853 63.4838 72.6839 63.6287 72.3217 63.6287C71.9595 63.6287 71.7905 63.4838 71.7905 63.194V53.2211C71.7905 52.9313 71.9595 52.7864 72.3217 52.7864C72.6598 52.7864 72.853 52.9313 72.853 53.2211V63.194Z" fill="white"/>
<path d="M80.3387 50.7581C77.8757 50.7581 76.6442 51.6998 76.6442 53.6075V63.0491C76.6442 64.8119 77.8757 65.6812 80.3146 65.6812C81.4012 65.6812 82.2947 65.4639 82.9708 64.9809C83.6469 64.5221 83.985 63.8701 83.985 63.025V53.6075C83.985 51.6998 82.7535 50.7581 80.3387 50.7581ZM80.8458 63.194C80.8458 63.4838 80.6768 63.6287 80.3146 63.6287C79.9524 63.6287 79.7833 63.4838 79.7833 63.194V53.2211C79.7833 52.9313 79.9765 52.7864 80.3146 52.7864C80.6526 52.7864 80.8458 52.9313 80.8458 53.2211V63.194Z" fill="white"/>
<path d="M90.2874 58.5093L88.8144 50.9029H84.6611V65.5604H87.1724V57.3261L89.1042 65.5604H91.3258L92.992 57.3261V65.5604H95.8655V50.9029H91.5672L90.2874 58.5093Z" fill="white"/>
<path d="M9.07972 33.4198C11.2288 32.6954 12.3155 31.4397 12.3155 29.677V26.1756C12.3155 24.606 11.7359 23.471 10.601 22.7708C9.44193 22.0705 8.08967 21.7083 6.54423 21.7083H0.0244141V46.9424H7.00303C8.50018 46.9424 9.80414 46.5319 10.8908 45.7109C11.9774 44.8899 12.5087 43.6342 12.5087 41.968V37.0661C12.5087 35.2067 11.3737 33.9752 9.07972 33.4198ZM7.09963 42.3544C7.09963 43.2478 6.59253 43.6825 5.55419 43.6825V34.6513C6.59253 34.6513 7.09963 35.086 7.09963 35.9794V42.3544ZM7.09963 30.5704C7.09963 31.4639 6.59253 31.9227 5.55419 31.9227V24.9682C6.59253 24.9682 7.09963 25.4028 7.09963 26.2963V30.5704Z" fill="white"/>
<path d="M18.7143 21.7085H13.6917V46.9426H18.7143V21.7085Z" fill="white"/>
<path d="M38.7567 26.369C34.7965 26.369 32.8164 27.7937 32.8164 30.6672V42.8859C32.8164 45.7594 34.7965 47.1841 38.7567 47.1841C42.6203 47.1841 44.5521 45.8077 44.5521 43.0549V38.0805H39.5294V43.0307C39.5294 43.731 39.2397 44.0691 38.6843 44.0691C38.1047 44.0691 37.815 43.731 37.815 43.0307V30.5223C37.815 29.8462 38.1047 29.5082 38.6843 29.5082C39.2397 29.5082 39.5294 29.8462 39.5294 30.5223V35.545H44.5521V30.4982C44.5521 27.7454 42.6203 26.369 38.7567 26.369Z" fill="white"/>
<path d="M54.8148 35.4484L58.4611 26.5139H53.2694L50.7097 33.0337V21.7085H45.6871V46.9185H50.7097V39.5535L53.7765 46.9185H59.6685L54.8148 35.4484Z" fill="white"/>
<path d="M26.0552 26.369C22.0708 26.369 20.0666 27.7454 20.0666 30.4982V34.5791H24.8961C24.8961 34.2894 24.8719 33.8547 24.8236 33.2752C24.7995 32.6956 24.7753 32.261 24.7753 31.9712C24.7753 30.3292 25.1134 29.5323 25.7654 29.5323C26.3449 29.5323 26.6347 29.8704 26.6347 30.5465V33.5649C26.6347 33.9271 26.0552 34.3859 24.8961 34.9655C22.8918 35.9797 21.5637 36.8248 20.8876 37.5251C20.2356 38.2012 19.8976 38.9981 19.8976 39.9157V44.0208C19.8976 46.1458 21.274 47.2324 24.0026 47.2324C25.7654 47.2324 26.852 46.8702 27.2142 46.1699V46.9668H31.6574V30.6672C31.6574 27.7937 29.798 26.369 26.0552 26.369ZM24.1234 43.9725L25.1617 40.9299C24.558 40.6884 24.1475 40.1089 24.1475 39.4328C24.1475 38.5393 24.8719 37.8149 25.7654 37.8149C26.6588 37.8149 27.3833 38.5393 27.3833 39.4328C27.3833 40.1089 26.9728 40.6884 26.3691 40.9299L27.4074 43.9725H24.1234Z" fill="white"/>
</svg>
