<svg width="62" height="61" viewBox="0 0 62 61" fill="none" xmlns="http://www.w3.org/2000/svg">
<g filter="url(#filter0_d)">
<rect x="14" y="12" width="34" height="33" rx="6" fill="#FF0000"/>
<g clip-path="url(#clip0)">
<path d="M51.1914 25.5027L49.1431 25.5486L49.019 22.7192L50.6017 22.6733L50.5707 21.5874L48.9724 21.6333L48.8638 19.1098L50.7414 19.0486L50.7103 17.9474L47.6224 18.0545L48.0103 26.7262L51.2224 26.6498L51.1914 25.5027Z" fill="white"/>
<path d="M55.381 26.4509C55.7069 26.0533 55.8621 25.5792 55.8621 25.0286C55.8621 24.3709 55.6138 23.7286 55.1172 23.1015C54.8845 22.8568 54.6517 22.6121 54.419 22.3674C54.1862 22.1227 53.9534 21.878 53.7207 21.6333C53.2241 21.0827 52.9759 20.578 52.9759 20.1039C52.9759 19.4921 53.2552 19.2015 53.7983 19.2015C54.1552 19.2015 54.3259 19.4157 54.3259 19.8286V20.2874L55.5828 20.3639C55.5362 19.8133 55.381 19.3392 55.1172 18.9262C54.7603 18.4062 54.2793 18.1462 53.6586 18.1462C53.0379 18.1462 52.5724 18.3909 52.2466 18.8804C51.9517 19.278 51.8121 19.7368 51.8121 20.2568C51.8121 20.8686 52.0759 21.4804 52.5879 22.1227C52.8207 22.3674 53.0535 22.6121 53.3017 22.8568C53.5345 23.1015 53.7828 23.3615 54.0155 23.6062C54.5121 24.1415 54.7759 24.6309 54.7759 25.0745C54.7759 25.3039 54.6983 25.5333 54.5276 25.7321C54.3569 25.9309 54.1241 26.038 53.8293 26.038C53.2552 26.038 52.9293 25.5945 52.8362 24.7074L51.7034 24.7227C51.719 25.3039 51.8897 25.8392 52.2466 26.3286C52.65 26.8945 53.1776 27.1851 53.8759 27.1851C54.481 27.1545 55.0086 26.9251 55.381 26.4509Z" fill="white"/>
<path d="M58.469 26.8945C59.7879 26.8945 60.4397 25.9615 60.4397 24.1109C60.4397 24.0498 60.4397 23.958 60.4397 23.8509C60.4397 23.7286 60.4397 23.5909 60.4241 23.438L59.2138 23.4686C59.2448 23.8204 59.2603 24.0804 59.2603 24.2639C59.2759 24.4321 59.2759 24.5086 59.2759 24.4933C59.2759 25.4109 59.0121 25.8698 58.469 25.8698C58.0034 25.8698 57.7397 25.6098 57.6621 25.1051L57.4759 19.8286C57.4759 19.1862 57.7397 18.8651 58.2672 18.8651C58.7638 18.8651 59.0121 19.278 59.0121 20.0886C59.0121 20.1498 59.0121 20.2109 58.9966 20.3027C58.9966 20.3792 58.981 20.4709 58.981 20.5627C58.981 20.6545 58.9655 20.7309 58.9655 20.8074C58.9655 20.8839 58.95 20.9451 58.95 20.9909L60.1914 20.9604V20.4862C60.2069 20.3639 60.2069 20.2721 60.2069 20.1957C60.2069 20.1192 60.2069 20.058 60.2069 20.0121C60.2069 19.2321 60.0517 18.6815 59.7414 18.3604C59.369 17.9933 58.9035 17.8098 58.3448 17.8098C57.631 17.8098 57.1035 18.0239 56.731 18.4521C56.4207 18.8192 56.281 19.2933 56.2966 19.8745L56.4362 24.5392C56.5138 26.1145 57.181 26.8945 58.469 26.8945Z" fill="white"/>
<path d="M65.4828 26.6651L64.1948 17.6874L62.5655 17.6568L60.8586 26.3286L62.0069 26.3439L62.3638 24.4321L63.9155 24.478L64.2724 26.6651H65.4828ZM62.55 23.3462L63.3569 19.4615L63.8069 23.3768L62.55 23.3462Z" fill="white"/>
<path d="M67.8724 17.9933C67.8414 17.9933 67.6707 17.9933 67.3448 18.0086C67.019 18.0239 66.5224 18.0392 65.8552 18.0545L66.2431 26.8639L67.4224 26.7109L67.2672 23.1015C68.0431 23.0709 68.4931 23.0404 68.6172 23.0251C69.5017 22.8415 69.9517 22.0309 69.9517 20.578C69.9362 18.8498 69.2534 17.9933 67.8724 17.9933ZM67.981 21.9698C67.6241 22.0004 67.3603 22.0004 67.2052 22.0004L67.081 19.1098C67.1431 19.0945 67.1897 19.0945 67.2362 19.0945C67.2983 19.0945 67.3448 19.0945 67.3914 19.0945C68.0276 19.0945 68.4155 19.2627 68.6017 19.5992C68.6793 19.7521 68.7259 20.1498 68.7259 20.7615C68.7259 21.5109 68.4776 21.9086 67.981 21.9698Z" fill="white"/>
<path d="M74.219 26.6498L74.1879 25.5027L72.1397 25.5486L72.0155 22.7192L73.5983 22.6733L73.5517 21.5874L71.969 21.6333L71.8603 19.1098L73.7379 19.0486L73.6914 17.9474L70.619 18.0545L71.0069 26.7262L74.219 26.6498Z" fill="white"/>
<path d="M50.9431 35.7498L51.9517 35.7651L51.9052 37.5239C51.8741 38.3498 51.5328 38.7474 50.8655 38.7168C50.2138 38.7015 49.9035 38.2886 49.919 37.478L50.1207 31.5592C50.1362 30.7486 50.4776 30.3509 51.1603 30.3815C51.7655 30.3968 52.0603 30.8098 52.0293 31.6357C51.9983 31.9262 51.9828 32.1709 51.9517 32.3851C51.9362 32.5992 51.9052 32.7674 51.8741 32.9204L53.2862 32.9356C53.3172 32.4004 53.3328 32.018 53.3483 31.7733C53.4259 30.0451 52.7276 29.1733 51.269 29.1427C50.369 29.1274 49.7017 29.3721 49.2517 29.9074C48.8483 30.3662 48.6466 30.9474 48.631 31.6357L48.4603 37.0651C48.4293 37.7686 48.5224 38.3651 48.7397 38.8239C49.05 39.5121 49.5931 39.8639 50.3535 39.8945C51.0672 39.9098 51.6414 39.6192 52.0448 39.0074L52.1069 39.7568H53.2241L53.3948 34.6486L50.9741 34.6027L50.9431 35.7498Z" fill="white"/>
<path d="M57.8017 36.3615C57.8017 37.1109 57.4914 37.4933 56.8552 37.5086C56.5293 37.5239 56.25 37.4015 56.0483 37.1262C55.8931 36.8968 55.8155 36.6674 55.8155 36.4074L55.8776 28.2709H54.3724L54.3259 36.0098V36.2086C54.3414 37.9827 55.1948 38.8698 56.8707 38.8545C58.4534 38.8239 59.2603 37.8909 59.2914 36.0709L59.3535 28.2709L57.8638 28.1027L57.8017 36.3615Z" fill="white"/>
<path d="M60.4862 34.0368L60.5328 35.2145L62.0224 35.1992L61.9759 34.0062L60.4862 34.0368Z" fill="white"/>
<path d="M60.4397 32.2321L60.4707 33.4251L61.9603 33.3945L61.9293 32.2015L60.4397 32.2321Z" fill="white"/>
<path d="M60.5793 37.0192L62.069 37.0039L62.0224 35.7957L60.5328 35.8262L60.5793 37.0192Z" fill="white"/>
<path d="M60.3621 28.8368L60.3776 29.7239L61.8672 29.7086L61.8517 28.8062L60.3621 28.8368Z" fill="white"/>
<path d="M60.3931 30.4427L60.4241 31.6204L61.9138 31.6051L61.8828 30.3968L60.3931 30.4427Z" fill="white"/>
<path d="M62.0845 37.6004L60.5948 37.6309V38.0592L59.3845 38.0745L61.3862 39.558L63.3103 38.0133L62.0845 38.0286V37.6004Z" fill="white"/>
<path d="M69.0207 32.1862C68.9431 30.3357 68.0276 29.418 66.2741 29.4486L63.9776 29.5098L64.4276 39.8486C64.7845 39.8333 65.0948 39.8333 65.3586 39.8333C65.6379 39.8333 65.8552 39.8333 66.0259 39.8333C66.8948 39.818 67.531 39.7262 67.9345 39.5886C68.8345 39.2674 69.269 38.3957 69.2379 36.9733L69.0207 32.1862ZM67.5466 38.1509C67.3914 38.3498 67.0345 38.4568 66.4603 38.4874L65.8086 38.5027L65.4828 30.8098H65.6069C66.2897 30.7945 66.7707 30.8862 67.05 31.0698C67.3293 31.2533 67.4845 31.6051 67.5155 32.1404L67.7328 37.218C67.7638 37.6615 67.7017 37.9674 67.5466 38.1509Z" fill="white"/>
<path d="M74.5914 37.0039L72.0466 37.0192L72 33.6392L73.9862 33.6239L73.9707 32.3239L72 32.3392L71.9535 29.3262L74.3121 29.3109L74.2966 28.0109L70.5103 28.0262L70.619 38.3804L74.6224 38.3651L74.5914 37.0039Z" fill="white"/>
<path d="M41.369 19.7674C39.2897 17.4121 36.6517 15.9898 33.5638 15.3627C33.1603 15.2862 32.7414 15.2251 32.3224 15.1639C32.2914 15.1639 32.2603 15.1486 32.2448 15.1333C32.1207 15.1333 31.981 15.1333 31.8569 15.1333C31.3448 15.2404 31.0966 15.5921 30.9103 16.0357C30.0259 18.2533 29.3276 20.5015 28.8466 22.8262C28.7845 23.1015 28.7224 23.178 28.4276 23.2086C26.6276 23.4227 25.0914 24.7992 24.719 26.558C24.5483 27.338 24.5948 28.1027 24.8431 28.8521C24.9362 29.1121 24.9052 29.1733 24.7034 29.3262C23.4155 30.3204 22.1431 31.3145 20.8552 32.3239C20.8397 32.3392 20.8086 32.3545 20.7466 32.3851C20.669 32.0792 20.6069 31.8039 20.5448 31.5286C20.3276 30.6415 20.2034 29.7392 20.2345 28.8215C20.2966 26.4815 21.1034 24.4321 22.5931 22.6274C24.0052 20.9145 25.8052 19.7827 27.9621 19.2015C28.5052 19.0486 28.8931 18.758 29.0948 18.2533C29.25 17.9015 29.3431 17.5345 29.4517 17.1674C29.4828 17.0757 29.4672 16.9686 29.4672 16.8615C29.4517 16.678 29.3431 16.5862 29.1569 16.6321C28.8155 16.7086 28.4897 16.8157 28.1483 16.9074C26.8914 17.2286 25.6655 17.6568 24.5172 18.2686C21.6155 19.8286 19.7069 22.1839 18.6672 25.258C18.3103 26.298 18.0931 27.3533 18.031 28.4239C18.031 28.4545 18.0155 28.5004 18 28.5309C18 28.9286 18 29.3415 18 29.7392C18.031 30.0145 18.0621 30.2745 18.0931 30.5498C18.2638 31.9874 18.7138 33.3486 19.3655 34.6486C19.5517 35.0156 19.831 35.2909 20.281 35.3215C20.6534 35.3521 20.9638 35.1839 21.2431 34.9392C21.8328 34.4192 22.4069 33.8839 22.9966 33.3792C24.2224 32.3392 25.5103 31.3757 26.8603 30.5039C27.1397 30.3204 27.3724 30.1062 27.481 29.7698C27.6052 29.3721 27.4966 29.0204 27.2638 28.6839C27.0466 28.378 26.9069 28.0415 26.8603 27.6745C26.7362 26.5733 27.5897 25.4721 28.7069 25.3498C28.9707 25.3192 29.25 25.3345 29.5293 25.3498C30.181 25.4109 30.6466 25.0745 30.7862 24.4474C31.0655 23.2392 31.2983 22.0309 31.6241 20.838C31.919 19.7674 32.2914 18.7274 32.6483 17.6721C32.7414 17.3968 32.7724 17.3815 33.0672 17.4427C34.9293 17.8251 36.6362 18.5745 38.1569 19.7062C39.8638 20.9757 41.0586 22.6274 41.881 24.5545C41.9741 24.7686 42.0672 24.998 42.1448 25.2274C42.2224 25.4109 42.1914 25.4415 41.9897 25.4874C41.2138 25.6557 40.4379 25.8086 39.6621 26.0074C34.5879 27.3074 29.9483 29.4945 25.7431 32.5839C24.1759 33.7462 22.7017 35.0156 21.3362 36.3921C21.0414 36.6827 20.731 36.9886 20.4362 37.2792C19.9707 37.738 19.9397 38.3345 20.3897 38.8086C21.2121 39.6651 22.1431 40.3992 23.1672 41.0109C23.3069 41.1027 23.4776 41.1333 23.6328 41.1945C23.7414 41.1945 23.85 41.1945 23.9586 41.1945C24.3155 41.0874 24.5793 40.8427 24.8276 40.5827C28.5362 36.8051 32.881 33.9909 37.9086 32.1862C39.15 31.7427 40.4224 31.4062 41.6948 31.0851C41.7103 31.0851 41.7259 31.0851 41.7724 31.0851C41.7103 31.2992 41.6483 31.5133 41.5862 31.7274C40.2828 35.7804 36.6828 38.0745 33.4862 38.5945C32.6172 38.7321 31.7328 38.778 30.8483 38.7015C30.3517 38.6557 29.9328 38.8239 29.5759 39.1451C29.2655 39.4356 29.0017 39.7721 28.8 40.1392C28.7534 40.2157 28.7379 40.2921 28.7069 40.3686C28.6448 40.598 28.7069 40.7051 28.9552 40.7356C29.219 40.7662 29.4983 40.7662 29.7621 40.7968C30.7397 40.858 31.7017 40.9192 32.6793 40.858C36.3103 40.5827 39.2741 39.0686 41.5552 36.2698C42.5483 35.0462 43.3397 33.7004 43.8052 32.2015C44.0379 31.4674 44.2241 30.7027 44.2862 29.938C44.3017 29.7392 44.2862 29.5404 44.2397 29.3568C44.1 28.7909 43.5724 28.5004 42.9362 28.6074C42.5793 28.6686 42.2224 28.7298 41.8655 28.8215C36.3724 30.0909 31.3293 32.2933 26.9069 35.7957C25.8517 36.6368 24.8431 37.5086 23.881 38.4415C23.8345 38.4721 23.8034 38.518 23.7569 38.5486C23.6172 38.6709 23.5397 38.6709 23.3845 38.5639C23.2293 38.4415 23.0897 38.3192 22.9345 38.2121C22.7638 38.0898 22.7638 38.0133 22.9034 37.8757C23.2759 37.5086 23.6638 37.1415 24.0517 36.7898C27.5431 33.6392 31.4845 31.2074 35.8914 29.4945C38.3897 28.5309 40.9655 27.8427 43.6034 27.4145C43.6655 27.3992 43.7276 27.3839 43.7897 27.3686C44.2552 27.2615 44.5655 26.9862 44.6586 26.5274C44.6586 26.3898 44.6586 26.2521 44.6586 26.1145C44.55 25.7015 44.4414 25.2733 44.3172 24.8604C43.7431 22.9486 42.7035 21.2815 41.369 19.7674Z" fill="white"/>
</g>
</g>
<defs>
<filter id="filter0_d" x="0" y="0" width="62" height="61" filterUnits="userSpaceOnUse" color-interpolation-filters="sRGB">
<feFlood flood-opacity="0" result="BackgroundImageFix"/>
<feColorMatrix in="SourceAlpha" type="matrix" values="0 0 0 0 0 0 0 0 0 0 0 0 0 0 0 0 0 0 127 0" result="hardAlpha"/>
<feMorphology radius="2" operator="dilate" in="SourceAlpha" result="effect1_dropShadow"/>
<feOffset dy="2"/>
<feGaussianBlur stdDeviation="6"/>
<feColorMatrix type="matrix" values="0 0 0 0 1 0 0 0 0 0 0 0 0 0 0 0 0 0 0.15 0"/>
<feBlend mode="normal" in2="BackgroundImageFix" result="effect1_dropShadow"/>
<feBlend mode="normal" in="SourceGraphic" in2="effect1_dropShadow" result="shape"/>
</filter>
<clipPath id="clip0">
<rect width="27" height="26" fill="white" transform="translate(18 15.1333)"/>
</clipPath>
</defs>
</svg>
