<svg width="62" height="61" viewBox="0 0 62 61" fill="none" xmlns="http://www.w3.org/2000/svg">
<g filter="url(#filter0_d)">
<rect x="14" y="12" width="34" height="33" rx="6" fill="#FF0000"/>
<path d="M33.9643 21.2567C34.737 21.366 35.4936 21.56 36.2413 21.7898C37.5465 22.1917 38.778 22.7501 39.9363 23.4744C40.0169 23.5244 40.1245 23.5561 40.2194 23.5561C41.5799 23.5617 42.9399 23.5598 44.2993 23.5609C44.4088 23.5609 44.5178 23.5724 44.627 23.5786C44.627 23.6053 44.631 23.6165 44.6265 23.6227C44.563 23.7204 44.4987 23.8168 44.4349 23.9142C43.9735 24.622 43.5791 25.3624 43.3463 26.1808C43.321 26.2687 43.3157 26.3423 43.3752 26.4285C44.5863 28.1676 44.9728 30.0769 44.4666 32.1351C44.0229 33.9402 42.9882 35.3476 41.4159 36.3441C40.2922 37.0567 39.0508 37.3959 37.7245 37.4032C37.1673 37.4066 36.6129 37.3316 36.0686 37.1906C34.7423 36.8466 33.6054 36.1854 32.6684 35.1841C32.5448 35.0527 32.4286 34.9154 32.2968 34.7668C31.8014 35.5052 31.3138 36.2315 30.8144 36.9769C30.317 36.2337 29.8362 35.5144 29.3565 34.798C29.3233 34.8154 29.3138 34.8173 29.3073 34.8235C29.2964 34.8325 29.2871 34.8435 29.2784 34.8539C28.1451 36.1922 26.7195 37.0126 24.9826 37.287C24.0164 37.44 23.0595 37.385 22.1212 37.1263C20.7913 36.7609 19.6611 36.0593 18.748 35.0241C17.8557 34.0118 17.3007 32.8367 17.0923 31.5006C16.8539 30.2536 17.1443 29.0512 17.2167 28.7594C17.4268 27.9112 17.7931 27.1324 18.2958 26.4162C18.3312 26.3653 18.3436 26.2754 18.3267 26.2148C18.1217 25.4629 17.7683 24.779 17.3546 24.124C17.2496 23.9575 17.1238 23.8033 17.0075 23.6435C17.0075 23.6252 17.0075 23.6064 17.0075 23.5879C17.0308 23.5907 17.0538 23.5952 17.0766 23.5952C18.4685 23.5957 19.8602 23.5963 21.2522 23.5935C21.3128 23.5935 21.3802 23.5685 21.4319 23.5353C22.4099 22.9079 23.4519 22.4108 24.5467 22.0237C25.3362 21.7451 26.1423 21.5277 26.9644 21.3685C27.7603 21.2146 28.5605 21.1062 29.3691 21.0528C31.3405 20.9011 32.9161 21.1098 33.9643 21.2567ZM32.2193 30.4496C32.2193 33.5063 34.6993 36.0034 37.745 35.9916C40.8022 35.9807 43.271 33.5537 43.2688 30.4634C43.2665 27.2787 40.6831 24.8846 37.6265 24.9467C34.6089 25.0093 32.2468 27.4416 32.2193 30.4496ZM23.9308 24.9256C20.9575 24.8998 18.3652 27.3812 18.4171 30.542C18.4654 33.4897 20.8949 35.9885 23.9926 35.9619C27.0214 35.936 29.4559 33.4627 29.4615 30.4676C29.4663 27.3905 27.002 24.9256 23.9308 24.9256ZM24.2049 23.4837C25.8845 23.5862 27.3598 24.1715 28.6063 25.3051C29.8502 26.4364 30.5791 27.8477 30.8439 29.5073C31.1164 27.8674 31.8261 26.4692 33.0467 25.3492C34.2693 24.228 35.7251 23.6395 37.3771 23.5151C35.4167 22.6436 33.3495 22.2734 31.2217 22.2324C28.8035 22.185 26.4512 22.5414 24.2049 23.4837Z" fill="white"/>
<path d="M37.7338 26.9624C39.6254 26.9593 41.1575 28.4833 41.1575 30.3729C41.1575 32.2699 39.6515 33.7363 37.8748 33.804C35.8905 33.8801 34.3028 32.2991 34.3033 30.3814C34.305 28.4417 35.904 26.9304 37.7338 26.9624ZM39.965 30.3814C39.9641 29.1484 38.9674 28.1463 37.7428 28.1463C36.5042 28.1463 35.4959 29.143 35.4908 30.3724C35.4863 31.5964 36.4997 32.6148 37.7268 32.6182C38.9558 32.6229 39.9655 31.6121 39.965 30.3814Z" fill="white"/>
<path d="M23.8577 26.9624C25.7482 26.9605 27.2826 28.4872 27.2778 30.3766C27.2724 32.289 25.765 33.7234 24.0195 33.8029C22.0273 33.8939 20.4199 32.3059 20.4236 30.3777C20.4275 28.4243 22.0374 26.9299 23.8577 26.9624ZM26.0864 30.3738C26.0827 29.1332 25.0795 28.1443 23.8271 28.1466C22.6191 28.1488 21.6069 29.1683 21.6097 30.3808C21.6128 31.6074 22.6239 32.6159 23.8543 32.6193C25.0772 32.6221 26.0894 31.6037 26.0864 30.3738Z" fill="white"/>
<path d="M37.7355 29.2463C38.3624 29.2458 38.8764 29.76 38.8705 30.3833C38.8643 31.0079 38.359 31.514 37.7426 31.5143C37.1078 31.5143 36.5975 31.0127 36.5989 30.3911C36.6 29.7463 37.0957 29.2469 37.7355 29.2463Z" fill="white"/>
<path d="M23.852 29.2362C24.4884 29.2356 24.9998 29.744 25.0024 30.3785C25.0049 31.0076 24.4887 31.5241 23.8553 31.5255C23.2068 31.5269 22.7066 31.0259 22.7072 30.374C22.7072 29.7339 23.2062 29.237 23.852 29.2362Z" fill="white"/>
</g>
<defs>
<filter id="filter0_d" x="0" y="0" width="62" height="61" filterUnits="userSpaceOnUse" color-interpolation-filters="sRGB">
<feFlood flood-opacity="0" result="BackgroundImageFix"/>
<feColorMatrix in="SourceAlpha" type="matrix" values="0 0 0 0 0 0 0 0 0 0 0 0 0 0 0 0 0 0 127 0" result="hardAlpha"/>
<feMorphology radius="2" operator="dilate" in="SourceAlpha" result="effect1_dropShadow"/>
<feOffset dy="2"/>
<feGaussianBlur stdDeviation="6"/>
<feColorMatrix type="matrix" values="0 0 0 0 1 0 0 0 0 0 0 0 0 0 0 0 0 0 0.15 0"/>
<feBlend mode="normal" in2="BackgroundImageFix" result="effect1_dropShadow"/>
<feBlend mode="normal" in="SourceGraphic" in2="effect1_dropShadow" result="shape"/>
</filter>
</defs>
</svg>
