<svg width="34" height="34" viewBox="0 0 34 34" fill="none" xmlns="http://www.w3.org/2000/svg">
<g clip-path="url(#clip0)">
<g clip-path="url(#clip1)">
<path d="M26 11.4189C25.3306 11.7125 24.6174 11.9071 23.8737 12.0016C24.6388 11.5449 25.2226 10.8271 25.4971 9.962C24.7839 10.3872 23.9964 10.6876 23.1571 10.8553C22.4799 10.1341 21.5146 9.6875 20.4616 9.6875C18.4186 9.6875 16.7739 11.3458 16.7739 13.3786C16.7739 13.6711 16.7986 13.9524 16.8594 14.2201C13.7915 14.0705 11.0769 12.6001 9.25325 10.3603C8.93487 10.9126 8.74813 11.5449 8.74813 12.2255C8.74813 13.5035 9.40625 14.6364 10.3872 15.2922C9.79437 15.281 9.21275 15.1089 8.72 14.8377C8.72 14.849 8.72 14.8636 8.72 14.8782C8.72 16.6715 9.99912 18.161 11.6765 18.5041C11.3761 18.5863 11.0487 18.6256 10.709 18.6256C10.4727 18.6256 10.2342 18.6121 10.0104 18.5626C10.4885 20.024 11.8453 21.0984 13.4585 21.1332C12.203 22.1154 10.6089 22.7071 8.88313 22.7071C8.5805 22.7071 8.29025 22.6936 8 22.6565C9.63462 23.7106 11.5719 24.3125 13.661 24.3125C20.4515 24.3125 24.164 18.6875 24.164 13.8117C24.164 13.6486 24.1584 13.4911 24.1505 13.3348C24.8829 12.815 25.4982 12.1659 26 11.4189Z" fill="white"/>
</g>
</g>
<path d="M1 17.3667C1 8.80629 7.93959 1.8667 16.5 1.8667H17.5C26.0604 1.8667 33 8.80629 33 17.3667C33 25.9271 26.0604 32.8667 17.5 32.8667H16.5C7.93959 32.8667 1 25.9271 1 17.3667Z" stroke="white" stroke-width="2"/>
<defs>
<clipPath id="clip0">
<rect width="18" height="15" fill="white" transform="translate(8 10)"/>
</clipPath>
<clipPath id="clip1">
<rect width="18" height="18" fill="white" transform="translate(8 8)"/>
</clipPath>
</defs>
</svg>
